<?xml version="1.0" encoding="UTF-8" standalone="no"?>
<!-- Created with Inkscape (http://www.inkscape.org/) -->

<svg
   width="120mm"
   height="120mm"
   viewBox="-60 -60 120 120"
   sodipodi:docname="CD-Label_120x120.svg"
   version="1.1"
   id="svg3"
   xml:space="preserve"
   inkscape:export-filename="image.svg"
   inkscape:export-xdpi="96"
   inkscape:export-ydpi="96"
   xmlns:inkscape="http://www.inkscape.org/namespaces/inkscape"
   xmlns:sodipodi="http://sodipodi.sourceforge.net/DTD/sodipodi-0.dtd"
   xmlns="http://www.w3.org/2000/svg"
   xmlns:svg="http://www.w3.org/2000/svg"
   xmlns:rdf="http://www.w3.org/1999/02/22-rdf-syntax-ns#"
   xmlns:cc="http://creativecommons.org/ns#"
   xmlns:dc="http://purl.org/dc/elements/1.1/"><defs
     id="defs3" /><sodipodi:namedview
     pagecolor="#ffffff"
     bordercolor="#666666"
     borderopacity="1.0"
     inkscape:pageopacity="0.0"
     inkscape:pageshadow="2"
     inkscape:zoom="1"
     inkscape:cx="226.771653543"
     inkscape:cy="226.771653543"
     inkscape:document-units="mm"
     inkscape:current-layer="layer1"
     showgrid="false"
     units="mm"
     showguides="true"
     inkscape:guide-bbox="true"
     inkscape:snap-global="true"
     inkscape:snap-bbox="true"
     inkscape:snap-bbox-midpoints="true"
     inkscape:window-width="850"
     inkscape:window-height="832"
     inkscape:window-x="717"
     inkscape:window-y="28"
     inkscape:window-maximized="0"
     inkscape:bbox-paths="true"
     inkscape:bbox-nodes="true"
     inkscape:snap-bbox-edge-midpoints="true"
     inkscape:snap-grids="true"
     id="namedview1"
     inkscape:showpageshadow="2"
     inkscape:pagecheckerboard="0"
     inkscape:deskcolor="#d1d1d1"><sodipodi:guide
       orientation="1,0"
       position="226.77165,226.77165"
       id="guide2827"
       inkscape:locked="false" /><sodipodi:guide
       orientation="0,1"
       position="226.77165,226.77165"
       id="guide2829"
       inkscape:locked="false" /><inkscape:grid
       type="xygrid"
       id="grid3072"
       empspacing="10"
       visible="false"
       enabled="true"
       snapvisiblegridlinesonly="true"
       units="mm"
       dotted="false"
       spacingx="0.1mm"
       spacingy="0.1mm"
       originx="0"
       originy="0" /><sodipodi:guide
       position="70.009001,89.674089"
       orientation="0,-1"
       id="guide4"
       inkscape:locked="false" /><sodipodi:guide
       position="69.307205,29.191692"
       orientation="0,-1"
       id="guide5"
       inkscape:locked="false" /><sodipodi:guide
       position="90.46134,58.455427"
       orientation="1,0"
       id="guide6"
       inkscape:locked="false" /><sodipodi:guide
       position="30.307402,50.154512"
       orientation="1,0"
       id="guide7"
       inkscape:locked="false" /><sodipodi:guide
       position="70.209514,59.628383"
       orientation="0,-1"
       id="guide8"
       inkscape:locked="false" /><sodipodi:guide
       position="60.584884,43.417537"
       orientation="1,0"
       id="guide9"
       inkscape:locked="false" /><sodipodi:guide
       position="95.173398,104.4413"
       orientation="0,-1"
       id="guide10"
       inkscape:locked="false" /><sodipodi:guide
       position="84.846972,13.853043"
       orientation="0,-1"
       id="guide11"
       inkscape:locked="false" /><sodipodi:guide
       position="14.968148,61.07202"
       orientation="1,0"
       id="guide12"
       inkscape:locked="false" /><sodipodi:guide
       position="105.70034,54.545576"
       orientation="1,0"
       id="guide13"
       inkscape:locked="false" /><inkscape:page
       x="0"
       y="0"
       width="120"
       height="120"
       id="page2"
       margin="0"
       bleed="0" /></sodipodi:namedview><metadata
     id="metadata2822"><rdf:RDF><cc:Work
         rdf:about=""><dc:format>image/svg+xml</dc:format><dc:type
           rdf:resource="http://purl.org/dc/dcmitype/StillImage" /><dc:title /></cc:Work></rdf:RDF></metadata><g
     inkscape:label="Layer 1"
     inkscape:groupmode="layer"
     id="Template"
     style="fill:none;stroke:#000000;stroke-width:0.05"><path
       id="path17"
       style="fill:#000000;fill-opacity:1;fill-rule:nonzero;stroke:none;stroke-width:0.0132292"
       d="m -48.238961,-54.151261 -9.645923,2.619478 c 0.174412,0.06807 0.33452,0.136077 0.521416,0.176217 0.05073,0.0109 0.146737,0.01801 0.218591,0.02946 l -0.0739,0.0098 c 0.04129,0.03562 0.08892,0.06481 0.123506,0.10697 0.343383,0.418453 0.609487,0.948979 0.870748,1.416451 0.242194,0.433354 0.917675,1.692053 1.114661,2.057755 2.999699,5.553554 5.944928,11.136705 8.882145,16.723527 4.379699,8.360904 8.593,16.807823 12.79095,25.2609909 3.536252,7.1421576 6.947389,14.3444302 10.309449,21.5697431 -0.07808,0.103213 -0.153175,0.208581 -0.231511,0.311609 -2.205813,2.90109 -2.998374,3.840698 -5.288049,6.676595 -5.363057,6.437493 -10.774319,12.835182 -16.170072,19.245337 -2.554742,3.070739 -5.147771,6.10846 -7.765418,9.125541 0,0 11.145804,1.084297 16.590202,1.147217 7.10044,0.01095 14.201094,0.01147 21.301542,0.01602 2.63615,-0.0091 5.2720743,0.01466 7.9080445,0.03307 1.0334314,2.391245 2.0615175,4.784978 3.0706136,7.186642 L 0.70688883,59.205644 7.3287069,59.729643 C 8.30394,57.36266 9.2756036,54.994196 10.245841,52.625167 c 6.331598,0.165489 12.660048,0.436675 18.987472,0.715718 6.447536,0.301323 12.895256,0.59017 19.335254,1.027328 l 9.563757,-3.061829 C 57.109257,50.415807 56.08633,49.52529 55.063261,48.634713 53.997807,47.670884 52.918358,46.722126 51.866557,45.743416 46.053058,40.333915 40.630603,34.519609 35.149231,28.780111 31.719292,25.091108 28.327541,21.362716 25.062508,17.527568 26.986295,13.189161 28.936569,8.8625738 30.955172,4.5666016 35.459796,-4.9445976 40.102752,-14.38903 44.875769,-23.76862 c 3.256272,-6.416154 6.535685,-12.82126 9.728605,-19.269108 1.130242,-2.396897 3.903892,-7.859999 4.042647,-7.919413 l -3.72277,-0.589628 -5.491654,-1.498617 c -2.609516,0.647776 -5.213271,1.323493 -7.848617,1.860869 -5.275918,1.031782 -10.586793,1.892612 -15.942179,2.393652 -4.085431,0.372867 -8.166115,0.657542 -12.267985,0.769462 -0.394543,0.01077 -1.126534,0.01681 -1.775602,0.02325 -4.5052779,-0.09158 -9.0077566,-0.309854 -13.4937503,-0.756543 -5.7023105,-0.558999 -11.3912357,-1.231207 -17.0821617,-1.894458 -4.961736,-0.596158 -9.917011,-1.244246 -14.876611,-1.857251 -3.568864,-0.388604 -7.145241,-0.722967 -10.698572,-1.240234 -1.218347,-0.18628 -2.449769,-0.431181 -3.68608,-0.404626 z m 8.628414,4.920113 c 3.74867,0.450924 7.494243,0.927918 11.242208,1.384928 5.703281,0.667941 11.406113,1.338077 17.118335,1.925464 2.8842342,0.307569 5.7755849,0.518314 8.6702717,0.67076 -0.054289,1.372334 -0.1161876,2.744545 -0.1674316,4.117061 -0.1331939,5.014451 -0.4142539,10.022526 -0.7250203,15.02854 -0.1442305,2.353101 -0.3354432,4.702367 -0.550354,7.049183 -1.5064179,-1.319671 -3.0179719,-2.633508 -4.5423584,-3.932577 -6.5992134,-5.560634 -13.3370674,-10.953647 -19.9005944,-16.556612 -3.724595,-3.217798 -7.44935,-6.43577 -11.145056,-9.686747 z m 80.37804,2.534729 c -3.691932,3.001702 -7.390165,5.995504 -11.072709,9.008752 -5.425289,4.449788 -10.778578,8.985821 -16.194361,13.447241 -2.609353,2.101475 -5.2220712,4.198994 -7.8310464,6.300908 0.2486396,-2.677278 0.4660602,-5.357487 0.6335531,-8.041887 0.3206248,-5.018497 0.6134781,-10.03846 0.8412923,-15.062129 0.069422,-1.298555 0.1522765,-2.596198 0.2366781,-3.89382 7.1251489,0.06838 14.2663219,0.0878 21.3780229,-0.435115 2.423004,-0.178162 3.810618,-0.335527 6.224427,-0.580326 1.934573,-0.200103 3.861287,-0.459688 5.784143,-0.743624 z m -81.712842,6.339148 c 0.967927,0.826841 1.933887,1.65583 2.903699,2.480468 6.592536,5.592376 13.335051,11.003748 19.953304,16.565398 4.218546,3.574214 8.3504905,7.248489 12.460221,10.946618 l 0.1617472,-0.02739 c -0.3584243,0.6757813 -0.7549727,1.3333539 -1.1410156,1.9916094 -2.4035146,4.0433625 -5.1056546,7.89974337 -7.7478476,11.7884277 -0.900963,1.3307084 -1.816772,2.6513758 -2.727482,3.975468 -2.220238,-4.6823231 -4.466565,-9.3525683 -6.767029,-13.9965617 -4.166841,-8.4767474 -8.431695,-16.9051224 -12.744442,-25.3085324 -1.454184,-2.803252 -2.897313,-5.612079 -4.351155,-8.415507 z m 82.906567,2.246374 c -2.221442,4.486965 -4.459851,8.965743 -6.706567,13.440007 -4.746625,9.394497 -9.360436,18.8552044 -13.788306,28.4039507 -0.920511,1.9809812 -1.817941,3.972044 -2.71973,5.9613932 C 18.32918,9.1439181 17.908367,8.5960436 17.498629,8.0392578 14.107912,3.49569 10.724332,-1.0588034 7.6031087,-5.7940063 7.0206536,-6.7203051 6.428955,-7.646486 5.890035,-8.6010701 L 7.2827148,-9.750354 c 5.2482002,-4.28544 10.5449002,-8.510554 15.8026532,-12.784233 5.404469,-4.4738 10.757608,-9.009773 16.205212,-13.431221 0.887672,-0.718237 1.781005,-1.429295 2.670638,-2.145089 z M -0.28271484,-1.8516113 C 2.3364125,1.9307627 5.1017316,5.6113771 7.8697591,9.2851766 10.128287,12.340493 12.502604,15.301609 14.946847,18.204529 11.848868,25.250278 8.8282207,32.330191 5.8574788,39.430623 4.5245235,42.643056 3.1783776,45.849876 1.8411865,49.060527 0.75848274,46.602131 -0.32994511,44.14609 -1.4397502,41.699736 -4.8771745,34.082504 -8.2405074,26.432494 -11.706824,18.828263 c -0.401248,-0.866125 -0.813294,-1.727145 -1.215946,-2.592606 2.843791,-3.824172 5.5430083,-7.7521899 8.2398069,-11.680941 1.4702752,-2.1318211 2.9528044,-4.25746227 4.40024826,-6.4063273 z M -19.234013,24.320435 c 2.726861,6.056887 5.406083,12.134698 8.117851,18.198372 1.017954,2.267109 2.0165027,4.542847 3.0122191,6.819739 -6.1938751,-0.0059 -12.3879591,-0.0128 -18.5818111,-0.03152 -4.205633,-0.01558 -8.411513,-0.02614 -12.616801,-0.08682 -0.272773,-0.01054 -0.545997,-0.02003 -0.819072,-0.03307 1.632052,-1.925989 3.268659,-3.847861 4.888074,-5.78466 5.343441,-6.352044 10.723193,-12.674023 15.99954,-19.082039 z m 40.72723,1.366841 c 1.370146,1.517019 2.748303,3.027005 4.136182,4.527372 5.490411,5.763077 10.919829,11.600145 16.702856,17.074927 1.05153,0.995484 2.129513,1.963036 3.19412,2.944523 0.207392,0.18397 0.414793,0.367935 0.622185,0.551905 C 43.6034,50.659366 41.058174,50.53669 38.512333,50.418066 31.501226,50.09792 24.488898,49.779007 17.472791,49.591243 c -1.98071,-0.0368 -3.961454,-0.06399 -5.942273,-0.09663 1.271706,-3.105172 2.541512,-6.211151 3.823539,-9.312094 2.015211,-4.844828 4.062744,-9.676311 6.13916,-14.495239 z"
       sodipodi:nodetypes="ccscccsccccsccccccccccccccsccccccccccscccccccccccccccccccccccsccccccccccccccccccccccccccccccccccccccccccccsccccccc" /></g></svg>
