<?xml version="1.0" encoding="UTF-8" standalone="no"?>
<!-- Created with Inkscape (http://www.inkscape.org/) -->

<svg
   width="113.53777mm"
   height="109.6548mm"
   viewBox="-60 -60 113.53777 109.6548"
   sodipodi:docname="CD-Label_120x120.svg"
   version="1.1"
   id="svg3"
   xml:space="preserve"
   inkscape:export-filename="diɵ.svg"
   inkscape:export-xdpi="96"
   inkscape:export-ydpi="96"
   xmlns:inkscape="http://www.inkscape.org/namespaces/inkscape"
   xmlns:sodipodi="http://sodipodi.sourceforge.net/DTD/sodipodi-0.dtd"
   xmlns="http://www.w3.org/2000/svg"
   xmlns:svg="http://www.w3.org/2000/svg"
   xmlns:rdf="http://www.w3.org/1999/02/22-rdf-syntax-ns#"
   xmlns:cc="http://creativecommons.org/ns#"
   xmlns:dc="http://purl.org/dc/elements/1.1/"><defs
     id="defs3" /><sodipodi:namedview
     pagecolor="#ffffff"
     bordercolor="#666666"
     borderopacity="1.0"
     inkscape:pageopacity="0.0"
     inkscape:pageshadow="2"
     inkscape:zoom="1"
     inkscape:cx="226.771653543"
     inkscape:cy="226.771653543"
     inkscape:document-units="mm"
     inkscape:current-layer="layer1"
     showgrid="false"
     units="mm"
     showguides="true"
     inkscape:guide-bbox="true"
     inkscape:snap-global="true"
     inkscape:snap-bbox="true"
     inkscape:snap-bbox-midpoints="true"
     inkscape:window-width="850"
     inkscape:window-height="832"
     inkscape:window-x="717"
     inkscape:window-y="28"
     inkscape:window-maximized="0"
     inkscape:bbox-paths="true"
     inkscape:bbox-nodes="true"
     inkscape:snap-bbox-edge-midpoints="true"
     inkscape:snap-grids="true"
     id="namedview1"
     inkscape:showpageshadow="2"
     inkscape:pagecheckerboard="0"
     inkscape:deskcolor="#d1d1d1"><sodipodi:guide
       orientation="1,0"
       position="222.39414,221.46802"
       id="guide2827"
       inkscape:locked="false" /><sodipodi:guide
       orientation="0,1"
       position="222.39414,221.46802"
       id="guide2829"
       inkscape:locked="false" /><inkscape:grid
       type="xygrid"
       id="grid3072"
       empspacing="10"
       visible="false"
       enabled="true"
       snapvisiblegridlinesonly="true"
       units="mm"
       dotted="false"
       spacingx="0.1mm"
       spacingy="0.1mm"
       originx="-4.3775112"
       originy="-5.0415533" /><sodipodi:guide
       position="65.63149,84.37045"
       orientation="0,-1"
       id="guide4"
       inkscape:locked="false" /><sodipodi:guide
       position="64.929694,23.888053"
       orientation="0,-1"
       id="guide5"
       inkscape:locked="false" /><sodipodi:guide
       position="86.083829,53.151788"
       orientation="1,0"
       id="guide6"
       inkscape:locked="false" /><sodipodi:guide
       position="25.929891,44.850873"
       orientation="1,0"
       id="guide7"
       inkscape:locked="false" /><sodipodi:guide
       position="65.832003,54.324744"
       orientation="0,-1"
       id="guide8"
       inkscape:locked="false" /><sodipodi:guide
       position="56.207373,38.113898"
       orientation="1,0"
       id="guide9"
       inkscape:locked="false" /><sodipodi:guide
       position="90.795887,99.137658"
       orientation="0,-1"
       id="guide10"
       inkscape:locked="false" /><sodipodi:guide
       position="80.469461,8.5494038"
       orientation="0,-1"
       id="guide11"
       inkscape:locked="false" /><sodipodi:guide
       position="10.590637,55.768381"
       orientation="1,0"
       id="guide12"
       inkscape:locked="false" /><sodipodi:guide
       position="101.32283,49.241937"
       orientation="1,0"
       id="guide13"
       inkscape:locked="false" /><inkscape:page
       x="0"
       y="-3.1160972e-15"
       width="113.53777"
       height="109.65481"
       id="page2"
       margin="0"
       bleed="0" /></sodipodi:namedview><metadata
     id="metadata2822"><rdf:RDF><cc:Work
         rdf:about=""><dc:format>image/svg+xml</dc:format><dc:type
           rdf:resource="http://purl.org/dc/dcmitype/StillImage" /><dc:title /></cc:Work></rdf:RDF></metadata><g
     inkscape:label="Layer 1"
     inkscape:groupmode="layer"
     id="Template"
     style="fill:none;stroke:#000000;stroke-width:0.05"
     transform="translate(-4.3775111,-5.0415533)"><path
       id="path60"
       style="fill:#000000;fill-opacity:1;fill-rule:nonzero;stroke:none;stroke-width:0.0132292"
       d="m -45.708883,-54.958447 -9.913606,1.2361 c 0.941143,1.221256 1.729706,2.549253 2.522843,3.869531 l -0.155029,0.04703 c 0.06361,0.0054 0.127583,0.0076 0.191203,0.01292 0.05575,0.09278 0.11312,0.184846 0.168981,0.277502 2.908082,4.81897 5.502269,9.812069 8.001579,14.851807 3.901048,8.191394 7.516603,16.513287 11.421525,24.7028849 0.702762,1.4417146 1.404679,2.8835544 2.108399,4.3248006 0.0851,0.1742784 0.139878,0.2858791 0.221692,0.4532023 -0.24199,0.4713775 -0.479229,0.9451781 -0.722437,1.4159343 -2.745972,5.3108471 -5.74351,10.483698 -8.730733,15.6600259 -2.297436,4.021853 -4.578193,8.054248 -7.080188,11.952759 -1.495854,2.326461 -3.128001,4.562579 -4.876705,6.703467 l 9.448002,1.280542 c 1.717925,-2.230645 3.362099,-4.519208 4.852934,-6.910173 2.463334,-3.942832 4.73893,-7.997101 7.032645,-12.040609 1.584891,-2.774822 3.169999,-5.5499042 4.726844,-8.3405757 1.731768,3.7623124 3.389327,7.5566997 5.036902,11.3569297 3.481377,7.96749 7.369055,15.747665 11.202933,23.54895 1.9205613,3.959837 7.4818096,14.236117 7.045815,15.076679 l 7.5202213,0.175103 C 4.7407888,53.827488 7.21307,48.45544 7.8511556,47.030676 10.23443,41.749445 12.656232,36.484874 15.156653,31.257996 c 3.566091,-7.363012 7.190056,-14.699544 11.00553,-21.9371627 0.4768,-0.9157564 0.939243,-1.838792 1.41335,-2.7559041 2.282888,3.7920338 4.626224,7.5483378 7.135482,11.1941488 0.714599,1.03827 1.459667,2.055419 2.18953,3.083016 2.703642,3.738404 5.613754,7.318593 8.547282,10.876855 l 9.668144,-1.351338 C 52.167838,26.863893 49.248424,23.333314 46.539233,19.639067 45.812754,18.630695 45.071143,17.633203 44.360038,16.613928 40.686854,11.34891 37.363054,5.8470932 34.111568,0.31569824 33.525159,-0.71339336 32.947413,-1.7475082 32.369039,-2.7812703 c 2.431569,-4.7907154 4.848154,-9.5890527 7.260539,-14.3898197 3.659632,-7.168565 7.401545,-14.294754 11.026717,-21.480859 1.729249,-3.469864 6.806868,-13.617353 7.258988,-14.786178 l -9.964766,-0.716235 c -0.467336,1.207047 -1.03034,2.375876 -1.588534,3.542936 -0.06731,0.134393 -0.131722,0.270196 -0.198954,0.404627 -1.586979,-0.03908 -3.174043,-0.07402 -4.76095,-0.117823 -7.833942,-0.201696 -15.668791,-0.358098 -23.501924,-0.592211 -8.9797918,-0.23884 -17.96089219,-0.357963 -26.9420251,-0.52865 -8.0506039,-0.19568 -16.1004449,-0.425878 -24.1489139,-0.695048 -2.596834,-0.108298 -5.192802,-0.21731 -7.786605,-0.385507 -0.797384,-0.05171 -1.59227,-0.143687 -2.390035,-0.189135 -0.109264,-0.0062 -0.218788,0.0086 -0.328145,0.01292 l -0.513147,0.155546 c -0.47682,-0.819308 -0.966446,-1.631 -1.500167,-2.411739 z m 3.408578,5.763472 c 8.020454,0.283062 16.043758,0.489923 24.066748,0.68678 8.9774291,0.201132 17.95625792,0.304008 26.9332396,0.528133 7.8086634,0.226335 15.6181584,0.416408 23.4275104,0.6165 4.161716,0.113241 8.323765,0.216914 12.48606,0.303857 -1.238126,2.502308 -2.479773,5.002721 -3.699516,7.51427 -3.585146,7.175688 -7.253043,14.309501 -10.865487,21.471558 -0.94416,1.895265 -1.903785,3.782746 -2.853572,5.675106 -0.80835,-1.577665 -1.602028,-3.162935 -2.371432,-4.760433 -1.577464,-3.344278 -3.146523,-6.694111 -4.568196,-10.108427 -0.455387,-1.105529 -0.888268,-2.232425 -1.424203,-3.29954 l -9.9353107,1.07797 c 0.6149076,0.936889 1.0253992,1.992626 1.4722617,3.016354 1.47175,3.433921 3.069052,6.812078 4.678784,10.18284 2.258796,4.633511 4.685174,9.1816921 7.19491,13.683403 -1.877,3.6745564 -3.760044,7.3457118 -5.677173,10.9998454 C 12.718437,15.645005 9.0745335,23.002744 5.4766235,30.380013 3.8074893,33.8588 2.1672319,37.351149 0.53945719,40.849658 0.15878064,40.085103 -0.2371366,39.328224 -0.61034342,38.559875 -4.4427748,30.785906 -8.3340703,23.035374 -11.838599,15.10601 c -1.881319,-4.329768 -3.750675,-8.6635341 -5.746419,-12.9423625 -1.390969,-2.98220272 -2.327247,-4.8830406 -3.619934,-7.5204712 1.964017,-3.8304255 3.899451,-7.6760703 5.85804,-11.5093753 1.567729,-3.086679 3.237657,-6.140772 4.446757,-9.392708 0.363644,-1.049211 0.758986,-2.113794 0.875916,-3.225126 h -9.633521 c -0.191027,0.870424 -0.49997,1.736607 -0.7953,2.580721 -1.207189,3.150946 -2.802666,6.137821 -4.311881,9.150346 -0.416072,0.821109 -0.830012,1.643251 -1.244886,2.464966 -3.141363,-6.71929 -6.041138,-13.549012 -9.203572,-20.258712 -2.22856,-4.618639 -4.557835,-9.186571 -7.086906,-13.648263 z"
       sodipodi:nodetypes="ccccccccscccccccccccccccccsccccsccccccccccccsccccccccccccccccccccccccsccccccccccc" /></g></svg>
