<?xml version="1.0" encoding="UTF-8" standalone="no"?>
<!-- Created with Inkscape (http://www.inkscape.org/) -->

<svg
   width="109.97485mm"
   height="107.84063mm"
   viewBox="-60 -60 109.97485 107.84063"
   sodipodi:docname="CD-Label_120x120.svg"
   version="1.1"
   id="svg3"
   xml:space="preserve"
   inkscape:export-filename="diɵ.svg"
   inkscape:export-xdpi="96"
   inkscape:export-ydpi="96"
   xmlns:inkscape="http://www.inkscape.org/namespaces/inkscape"
   xmlns:sodipodi="http://sodipodi.sourceforge.net/DTD/sodipodi-0.dtd"
   xmlns="http://www.w3.org/2000/svg"
   xmlns:svg="http://www.w3.org/2000/svg"
   xmlns:rdf="http://www.w3.org/1999/02/22-rdf-syntax-ns#"
   xmlns:cc="http://creativecommons.org/ns#"
   xmlns:dc="http://purl.org/dc/elements/1.1/"><defs
     id="defs3" /><sodipodi:namedview
     pagecolor="#ffffff"
     bordercolor="#666666"
     borderopacity="1.0"
     inkscape:pageopacity="0.0"
     inkscape:pageshadow="2"
     inkscape:zoom="0.5"
     inkscape:cx="280"
     inkscape:cy="481"
     inkscape:document-units="mm"
     inkscape:current-layer="Template"
     showgrid="false"
     units="mm"
     showguides="true"
     inkscape:guide-bbox="true"
     inkscape:snap-global="true"
     inkscape:snap-bbox="true"
     inkscape:snap-bbox-midpoints="true"
     inkscape:window-width="1920"
     inkscape:window-height="991"
     inkscape:window-x="3831"
     inkscape:window-y="-9"
     inkscape:window-maximized="1"
     inkscape:bbox-paths="true"
     inkscape:bbox-nodes="true"
     inkscape:snap-bbox-edge-midpoints="true"
     inkscape:snap-grids="true"
     id="namedview1"
     inkscape:showpageshadow="2"
     inkscape:pagecheckerboard="0"
     inkscape:deskcolor="#d1d1d1"><sodipodi:guide
       orientation="1,0"
       position="219.71606,218.65492"
       id="guide2827"
       inkscape:locked="false" /><sodipodi:guide
       orientation="0,1"
       position="219.71606,218.65492"
       id="guide2829"
       inkscape:locked="false" /><inkscape:grid
       type="xygrid"
       id="grid3072"
       empspacing="10"
       visible="false"
       enabled="true"
       snapvisiblegridlinesonly="true"
       units="mm"
       dotted="false"
       spacingx="0.1mm"
       spacingy="0.1mm"
       originx="-7.0555813"
       originy="-4.042647" /><sodipodi:guide
       position="62.953418,81.557364"
       orientation="0,-1"
       id="guide4"
       inkscape:locked="false" /><sodipodi:guide
       position="62.251622,21.074968"
       orientation="0,-1"
       id="guide5"
       inkscape:locked="false" /><sodipodi:guide
       position="83.405757,50.338702"
       orientation="1,0"
       id="guide6"
       inkscape:locked="false" /><sodipodi:guide
       position="23.25182,42.037788"
       orientation="1,0"
       id="guide7"
       inkscape:locked="false" /><sodipodi:guide
       position="63.153931,51.511658"
       orientation="0,-1"
       id="guide8"
       inkscape:locked="false" /><sodipodi:guide
       position="53.529302,35.300813"
       orientation="1,0"
       id="guide9"
       inkscape:locked="false" /><sodipodi:guide
       position="88.117815,96.324577"
       orientation="0,-1"
       id="guide10"
       inkscape:locked="false" /><sodipodi:guide
       position="77.791389,5.7363195"
       orientation="0,-1"
       id="guide11"
       inkscape:locked="false" /><sodipodi:guide
       position="7.7610855,63.993692"
       orientation="1,0"
       id="guide12"
       inkscape:locked="false" /><sodipodi:guide
       position="98.644756,46.428852"
       orientation="1,0"
       id="guide13"
       inkscape:locked="false" /><inkscape:page
       x="0"
       y="0"
       width="109.97485"
       height="107.84063"
       id="page2"
       margin="0"
       bleed="0" /></sodipodi:namedview><metadata
     id="metadata2822"><rdf:RDF><cc:Work
         rdf:about=""><dc:format>image/svg+xml</dc:format><dc:type
           rdf:resource="http://purl.org/dc/dcmitype/StillImage" /><dc:title /></cc:Work></rdf:RDF></metadata><g
     inkscape:label="Layer 1"
     inkscape:groupmode="layer"
     id="Template"
     style="fill:none;stroke:#000000;stroke-width:0.05"
     transform="translate(-7.0555813,-4.042647)"><path
       style="fill:#000000;fill-opacity:1;fill-rule:nonzero;stroke:none;stroke-width:0.0132292"
       id="path114"
       d="m -4.6710563,-13.329866 c 0.095313,1.314037 0.5944922,2.566678 0.9982702,3.8095476 0.9223587,3.11903 2.1630746,6.1159891 3.55006272,9.05273446 C 2.0191237,3.8314242 4.7106108,7.8278681 7.410681,11.789953 c 3.152751,4.618342 6.706301,8.932905 10.432867,13.094391 3.562879,3.945641 7.34903,7.676803 11.253571,11.281351 3.586236,3.220572 7.212414,6.39695 10.854891,9.553752 2.41482,2.100811 4.887999,4.132509 7.361113,6.163832 0,0 9.717309,-1.741382 9.717309,-1.741382 v 0 C 54.546723,48.130325 52.061981,46.119492 49.635897,44.038274 45.984184,40.908531 42.373209,37.731274 38.76923,34.546818 34.870338,31.00314 31.077898,27.34463 27.525526,23.449646 23.80736,19.38473 20.271579,15.155308 17.13691,10.618214 14.48307,6.7455318 11.8407,2.8391891 9.6925006,-1.3427806 8.3241815,-4.1884828 7.0821162,-7.0898454 6.2241703,-10.136081 5.891388,-11.185188 5.4956348,-12.242243 5.3210548,-13.329866 Z" /><path
       style="fill:#000000;fill-opacity:1;fill-rule:nonzero;stroke:none;stroke-width:0.0132292"
       id="path115"
       d="m -5.2121822,-13.556659 c -0.207772,0.577017 -0.4325831,1.152276 -0.6547961,1.726806 -0.6569551,1.657387 -1.3642287,3.2912578 -2.1292105,4.901795 -1.4982481,3.023063 -3.4074152,5.8203729 -5.2521692,8.6383441 -2.862826,4.288409 -5.810359,8.5184139 -8.786556,12.7285959 -3.524652,5.079966 -7.359872,9.928646 -11.289938,14.697975 -4.370132,5.380103 -9.407703,10.148122 -14.570371,14.751478 -3.392133,2.86236 -1.708195,1.470673 -5.049196,4.178234 0,0 9.605245,1.71577 9.605245,1.71577 v 0 c 3.331462,-2.765663 1.651147,-1.34324 5.038116,-4.270619 5.183224,-4.706061 10.241785,-9.568912 14.633929,-15.039287 3.938582,-4.821115 7.797517,-9.709686 11.340161,-14.832549 2.9933475,-4.232759 5.9727674,-8.4759745 8.847841,-12.7904132 1.9011874,-2.89416062 3.86523441,-5.7699697 5.3549629,-8.9054039 0.7764727,-1.6587602 1.5091172,-3.336081 2.1874718,-5.0375419 0.2642288,-0.67903 0.5698596,-1.35009 0.7109751,-2.068722 z" /><path
       style="fill:#000000;fill-opacity:1;fill-rule:nonzero;stroke:none;stroke-width:0.0132292"
       id="path116"
       d="m -5.2007866,-6.465479 c 0.016431,1.2518945 -0.0254,2.5043897 -0.045458,3.7562472 -0.031456,3.29262312 -0.1358927,6.5834921 -0.2782861,9.8729852 -0.2116773,5.2685476 -0.3557826,10.5393146 -0.4666827,15.8108486 -0.1291828,5.544659 -0.3167592,11.087815 -0.5168556,16.630311 -0.089067,3.134098 -0.2352066,6.265651 -0.4221506,9.395262 0,0 9.8357953,0.111223 9.8357953,0.111223 v 0 C 3.0737793,45.966955 3.2067747,42.82103 3.2927273,39.673147 3.4789463,34.122088 3.6547725,28.570571 3.7919299,23.018063 3.9149188,17.761686 4.0532033,12.505069 4.3189005,7.2535953 4.477632,3.9485844 4.6051611,0.64219761 4.6724394,-2.666073 4.7073406,-3.9327868 4.761813,-5.1987678 4.7924517,-6.465479 Z" /><path
       id="path118"
       style="fill:#000000;fill-opacity:1;fill-rule:nonzero;stroke:none;stroke-width:0.0132292"
       d="m -2.2247151,-55.957353 -1.9089292,0.846977 c -0.3975789,0.28228 -0.8579182,0.499147 -1.2676229,0.737423 -2.0081398,1.170081 -3.862158,2.579717 -5.7138638,3.978051 -3.123118,2.308477 -6.146737,4.747571 -9.145178,7.214547 -3.756144,3.181778 -7.523498,6.354105 -11.107332,9.730156 -3.910112,3.69809 -7.470516,7.741719 -10.910962,11.873693 -2.867459,3.518554 -9.972954,12.9488848 -10.29963,13.369727 l 4.846733,0.6397543 c 1.586052,0.5643864 3.231706,0.9709716 4.870504,1.3508219 4.864605,1.069094 9.750126,2.0385884 14.651302,2.9238525 4.258014,0.744466 8.53743,1.375482 12.849345,1.7068726 3.096098,0.2379531 3.972594,0.228116 7.0698525,0.3209106 9.8061065,0.38495823 19.5840655,-0.1546778 29.3315425,-1.1342976 3.957971,-0.4356656 7.912683,-0.9522706 11.830286,-1.6722494 2.25421,-0.4142793 3.275628,-0.6624674 5.501473,-1.1565185 3.266662,-0.7775787 6.519083,-1.6579984 9.664526,-2.8427206 0.645759,-0.2432231 1.239256,-0.4856049 1.831413,-0.732255 l 2.3828,-0.3255616 c -0.137537,-0.1706687 -4.463827,-5.3861312 -6.526216,-7.6367432 -3.478403,-3.910661 -6.952663,-7.826728 -10.542509,-11.635982 -3.819512,-4.011967 -7.609406,-8.056297 -11.554851,-11.945008 -3.036676,-2.82157 -6.106465,-5.617799 -9.406144,-8.132836 -2.090227,-1.625994 -4.106818,-3.353819 -6.2745519,-4.875155 -1.8242173,-1.12869 0.2977034,0.176479 -1.3513387,-0.817521 -0.1944009,-0.117179 -0.5261489,-0.321496 -0.756543,-0.500228 l -1.9063432,-1.28571 z m 2.64945061,6.09937 c 1.39118999,1.013746 2.72911199,2.103428 4.08347169,3.163631 3.2968089,2.469842 6.3885218,5.190303 9.4283648,7.965405 4.013287,3.779952 7.771981,7.82039 11.572421,11.811682 3.588838,3.777546 7.047241,7.675315 10.504268,11.572937 1.294157,1.439523 2.567464,2.896987 3.819922,4.371826 -0.403607,0.152784 -0.76938,0.295836 -1.315165,0.485242 -3.129528,1.0860534 -6.344448,1.9102686 -9.575127,2.631364 -5.696051,1.1833436 -11.445608,2.0865721 -17.241324,2.6205119 -4.3463585,0.4045849 -8.6933892,0.7550902 -13.0576013,0.8986531 -0.4262971,0.014023 -1.2115867,0.018464 -1.918746,0.024288 -0.7974743,-0.02501 -1.5557954,-0.049702 -2.7776082,-0.1235067 -4.2823605,-0.2586725 -8.5355105,-0.8265562 -12.7625285,-1.5497762 -4.866526,-0.8400362 -9.705629,-1.8172034 -14.532446,-2.8608073 -2.245232,-0.4930669 -4.518732,-0.939351 -6.669877,-1.7647498 2.431616,-3.23685 4.851563,-6.483788 7.434171,-9.602515 3.430682,-4.056142 6.983809,-8.017613 10.885641,-11.630815 3.613539,-3.302778 7.33964,-6.481086 11.111466,-9.601481 3.0120061,-2.431384 6.0475426,-4.834827 9.1767009,-7.114811 0.60621136,-0.439546 1.21803009,-0.871393 1.83399661,-1.297078 z"
       sodipodi:nodetypes="cccccccccccsccscscccccccscccccccccsccscscccccccc" /></g></svg>
