<?xml version="1.0" encoding="UTF-8" standalone="no"?>
<!-- Created with Inkscape (http://www.inkscape.org/) -->

<svg
   width="94.487854mm"
   height="100.08162mm"
   viewBox="-60 -60 94.487854 100.08162"
   sodipodi:docname="CD-Label_120x120.svg"
   version="1.1"
   id="svg3"
   xml:space="preserve"
   inkscape:export-filename="diɵ.svg"
   inkscape:export-xdpi="96"
   inkscape:export-ydpi="96"
   xmlns:inkscape="http://www.inkscape.org/namespaces/inkscape"
   xmlns:sodipodi="http://sodipodi.sourceforge.net/DTD/sodipodi-0.dtd"
   xmlns="http://www.w3.org/2000/svg"
   xmlns:svg="http://www.w3.org/2000/svg"
   xmlns:rdf="http://www.w3.org/1999/02/22-rdf-syntax-ns#"
   xmlns:cc="http://creativecommons.org/ns#"
   xmlns:dc="http://purl.org/dc/elements/1.1/"><defs
     id="defs3" /><sodipodi:namedview
     pagecolor="#ffffff"
     bordercolor="#666666"
     borderopacity="1.0"
     inkscape:pageopacity="0.0"
     inkscape:pageshadow="2"
     inkscape:zoom="0.5"
     inkscape:cx="280"
     inkscape:cy="481"
     inkscape:document-units="mm"
     inkscape:current-layer="Template"
     showgrid="false"
     units="mm"
     showguides="true"
     inkscape:guide-bbox="true"
     inkscape:snap-global="true"
     inkscape:snap-bbox="true"
     inkscape:snap-bbox-midpoints="true"
     inkscape:window-width="1920"
     inkscape:window-height="991"
     inkscape:window-x="3831"
     inkscape:window-y="-9"
     inkscape:window-maximized="1"
     inkscape:bbox-paths="true"
     inkscape:bbox-nodes="true"
     inkscape:snap-bbox-edge-midpoints="true"
     inkscape:snap-grids="true"
     id="namedview1"
     inkscape:showpageshadow="2"
     inkscape:pagecheckerboard="0"
     inkscape:deskcolor="#d1d1d1"><sodipodi:guide
       orientation="1,0"
       position="213.61416,211.34522"
       id="guide2827"
       inkscape:locked="false" /><sodipodi:guide
       orientation="0,1"
       position="213.61416,211.34522"
       id="guide2829"
       inkscape:locked="false" /><inkscape:grid
       type="xygrid"
       id="grid3072"
       empspacing="10"
       visible="false"
       enabled="true"
       snapvisiblegridlinesonly="true"
       units="mm"
       dotted="false"
       spacingx="0.1mm"
       spacingy="0.1mm"
       originx="-13.157489"
       originy="-4.4919346" /><sodipodi:guide
       position="56.851513,74.247652"
       orientation="0,-1"
       id="guide4"
       inkscape:locked="false" /><sodipodi:guide
       position="56.149717,13.765254"
       orientation="0,-1"
       id="guide5"
       inkscape:locked="false" /><sodipodi:guide
       position="77.303853,43.028989"
       orientation="1,0"
       id="guide6"
       inkscape:locked="false" /><sodipodi:guide
       position="17.149913,34.728074"
       orientation="1,0"
       id="guide7"
       inkscape:locked="false" /><sodipodi:guide
       position="57.052026,44.201946"
       orientation="0,-1"
       id="guide8"
       inkscape:locked="false" /><sodipodi:guide
       position="47.427396,27.991099"
       orientation="1,0"
       id="guide9"
       inkscape:locked="false" /><sodipodi:guide
       position="82.015911,89.014858"
       orientation="0,-1"
       id="guide10"
       inkscape:locked="false" /><sodipodi:guide
       position="71.689485,-1.5733954"
       orientation="0,-1"
       id="guide11"
       inkscape:locked="false" /><sodipodi:guide
       position="1.8106592,45.645583"
       orientation="1,0"
       id="guide12"
       inkscape:locked="false" /><sodipodi:guide
       position="92.542853,39.119138"
       orientation="1,0"
       id="guide13"
       inkscape:locked="false" /><inkscape:page
       x="0"
       y="-3.5526711e-15"
       width="94.487854"
       height="100.08163"
       id="page2"
       margin="0"
       bleed="0" /></sodipodi:namedview><metadata
     id="metadata2822"><rdf:RDF><cc:Work
         rdf:about=""><dc:format>image/svg+xml</dc:format><dc:type
           rdf:resource="http://purl.org/dc/dcmitype/StillImage" /><dc:title /></cc:Work></rdf:RDF></metadata><g
     inkscape:label="Layer 1"
     inkscape:groupmode="layer"
     id="Template"
     style="fill:none;stroke:#000000;stroke-width:0.05"
     transform="translate(-13.157489,-4.4919346)"><path
       style="fill:#000000;fill-opacity:1;fill-rule:nonzero;stroke:none;stroke-width:0.0132292"
       id="path71"
       d="m -5.4478809,-55.259605 c 0.2065919,1.516285 0.3060594,3.045726 0.4301886,4.570429 0.3402621,3.882104 0.5159905,7.775398 0.6614002,11.668798 0.1899549,4.934834 0.179959,9.87375 0.1607079,14.811208 -0.00357,2.257361 -0.074673,4.513633 -0.1435868,6.769656 0,0 9.8406664,0.05289 9.8406664,0.05289 v 0 c 0.052782,-2.271699 0.1078124,-4.543507 0.115435,-6.815944 0.014049,-4.96267 0.022992,-9.926485 -0.1525667,-14.886926 -0.1295558,-3.917826 -0.2813499,-7.835436 -0.5842079,-11.744461 -0.1015524,-1.558748 -0.1950641,-3.118719 -0.3402145,-4.67411 z" /><path
       style="fill:#000000;fill-opacity:1;fill-rule:nonzero;stroke:none;stroke-width:0.0132292"
       id="path72"
       d="m -31.905976,-45.998101 c 0.281252,1.423297 1.124903,2.662004 1.891567,3.865667 1.601293,2.493543 3.678354,4.604734 5.879031,6.566568 2.962095,2.42885 6.498672,3.919722 10.066996,5.208327 3.194696,1.121579 6.3695478,1.449999 9.7239697,1.573138 0,0 9.3835245,-3.020705 9.3835245,-3.020705 v 0 c -1.2847241,0.01254 -2.5101312,0.04674 -3.7949928,-0.03274 -1.94534365,-0.120341 -3.8790483,-0.431133 -5.7592621,-0.94506 -3.4581702,-1.101324 -6.8912553,-2.393303 -9.8904823,-4.482508 -0.404482,-0.329 -0.820568,-0.644229 -1.213448,-0.987001 -1.703551,-1.486277 -3.242992,-3.175452 -4.545134,-5.022494 -0.63501,-0.951983 -1.253654,-1.917741 -1.754423,-2.94426 z" /><path
       style="fill:#000000;fill-opacity:1;fill-rule:nonzero;stroke:none;stroke-width:0.0132292"
       id="path73"
       d="m 20.977517,-44.431003 c -0.301631,0.676092 -0.914728,1.138871 -1.468223,1.601702 -1.658568,1.444181 -3.396187,2.781445 -5.185826,4.057668 -2.614985,1.793389 -5.4696595,3.186661 -8.3760307,4.434549 -3.8179295,1.561436 -7.8536402,2.437265 -11.9146398,3.070876 0,0 9.4485671,2.715226 9.4485671,2.715226 v 0 c 4.1287514,-0.786607 8.2314944,-1.790618 12.0734714,-3.537884 2.95474,-1.379726 5.857259,-2.887817 8.491175,-4.827125 1.829975,-1.351088 3.617003,-2.766643 5.28034,-4.32058 0.671097,-0.725821 1.294535,-1.483576 1.61617,-2.434615 z" /><path
       style="fill:#000000;fill-opacity:1;fill-rule:nonzero;stroke:none;stroke-width:0.0132292"
       id="path76"
       d="m -3.0220884,-20.05759 c -0.3361584,0.03555 -0.6150848,0.255341 -0.8966332,0.419388 -0.325665,0.189754 -0.6104493,0.304334 -0.9568127,0.458708 -1.674188,0.650073 -3.2733323,1.463794 -4.8641396,2.292451 -2.3377131,1.328703 -4.3380791,3.096654 -6.1511051,5.063646 -1.497422,1.695413 -2.618202,3.6488155 -2.961542,5.9090345 -0.0706,0.4647856 -0.08107,0.9367335 -0.121602,1.4051015 0.04975,2.4959574 0.661707,4.9736348 1.800108,7.2006671 0.24319,0.4757446 0.533252,0.9260363 0.799878,1.3890545 1.452856,2.2321282 3.247168,4.2306742 5.329084,5.8937128 0.433734,0.3464696 0.888381,0.6659196 1.3325741,0.9988816 2.8876069,2.066986 6.0311426,3.724217 9.18632788,5.335997 3.30869132,1.685296 6.47143842,3.641654 9.49229742,5.797037 2.7024466,2.031476 5.0694196,4.478623 7.0401046,7.224892 0.433999,0.604803 0.82976,1.23615 1.24464,1.854224 2.454515,3.819694 3.760372,8.164266 4.907473,12.513344 0,0 9.831969,-0.511056 9.831969,-0.511056 v 0 C 30.777411,38.652702 29.461614,34.09999 27.011022,30.050934 26.59239,29.392597 26.193198,28.72149 25.755122,28.07593 23.771567,25.152898 21.394119,22.502326 18.648792,20.276307 18.13236,19.880859 17.626347,19.471418 17.099495,19.089963 14.560776,17.251858 11.821719,15.694759 9.0994185,14.151611 5.9937765,12.596181 2.8737543,11.049538 -0.01392936,9.1059723 -1.0870079,8.3794582 -1.5138417,8.1262229 -2.5090031,7.3149125 -4.0442531,6.0632957 -5.3936678,4.6017374 -6.548455,2.9936396 -6.8061671,2.6030194 -7.0873451,2.2269062 -7.321586,1.8217762 c -1.0779601,-1.86437316 -1.6758338,-4.0007989 -1.7509305,-6.146694 0.038185,-0.374904 0.047641,-0.7538562 0.1145514,-1.124712 0.3461623,-1.9185731 1.5416636,-3.4740929 2.8491285,-4.8562502 1.7958224,-1.756883 3.7659601,-3.319859 6.04528199,-4.411559 1.61226231,-0.789591 3.26461171,-1.485357 4.89248971,-2.240468 0.084503,-0.04297 0.8488759,-0.434967 0.9797124,-0.49004 0.3079882,-0.129643 0.6534944,-0.199781 0.9201891,-0.414504 z" /><path
       style="fill:#000000;fill-opacity:1;fill-rule:nonzero;stroke:none;stroke-width:0.0132292"
       id="path80"
       d="m 4.8603226,-17.10919 c -3.141583,-0.0278 -6.2835551,-0.02678 -9.4247519,-0.0834 -0.110871,-0.0021 0.2059517,-0.124679 0.3152802,-0.106143 0.1053994,0.01786 0.2014643,0.07165 0.3029982,0.105109 0.271854,0.08958 0.5166016,0.160448 0.7921545,0.242821 1.1276833,0.29387 2.23335584,0.665721 3.32692637,1.066676 1.33359793,0.503298 2.62195733,1.108339 3.81490793,1.889085 1.2323974,0.865232 2.3101088,1.924502 3.345053,3.012075 0.869106,0.95446 1.6975984,1.9472829 2.3601203,3.05721 0.5292378,0.9438057 0.8874388,1.9646555 1.1441408,3.0121198 0.26843,1.1199733 0.140938,2.254242 -0.04422,3.374554 -0.172114,0.80661666 -0.341823,1.64681955 -0.716571,2.39054477 C 10.004854,0.99336584 9.3535059,2.0276459 9.2950885,2.1210861 8.2126463,3.6550847 6.9360291,5.0388582 5.6013491,6.3542977 4.0563677,7.8536835 2.2379314,9.0116166 0.37347884,10.067016 c -2.23181594,1.156705 -4.40211894,2.423141 -6.57277904,3.689212 -2.2051619,1.310727 -4.3909878,2.653715 -6.5439818,4.048503 -1.94541,1.291871 -3.804309,2.708675 -5.640509,4.14986 -1.056958,0.85302 -2.089539,1.751298 -3.002841,2.759808 -0.525603,0.580393 -0.746591,0.888138 -1.22596,1.50441 -1.283605,1.666005 -2.08802,3.610986 -2.762845,5.585098 -0.730825,2.288741 -1.17035,4.65814 -1.61951,7.014702 -0.341005,1.824662 -0.588417,3.664664 -0.829037,5.504648 0,0 9.890897,0.250312 9.890897,0.250312 v 0 c 0.222401,-1.80008 0.462381,-3.598789 0.801013,-5.381395 0.43488,-2.258073 0.863203,-4.530378 1.618266,-6.707894 0.665853,-1.76367 1.45484,-3.476405 2.708378,-4.910188 1.237136,-1.426173 2.626505,-2.69967 4.1410915,-3.829356 1.8149861,-1.393153 3.6552955,-2.75702 5.592699,-3.977159 2.1486468,-1.360254 4.3152615,-2.69272 6.5172086,-3.965294 2.1856065,-1.260589 4.4062359,-2.456926 6.5927019,-3.715346 1.919391,-1.216742 3.772871,-2.5416664 5.335559,-4.2069301 1.381114,-1.4618494 2.726684,-2.9777293 3.774069,-4.7030004 0.370451,-0.6599026 0.534601,-0.9068409 0.8264,-1.6141515 0.368638,-0.89357199 0.573566,-1.85005661 0.741846,-2.7976962 0.198517,-1.3675069 0.330028,-2.7524551 0.05011,-4.1205282 -0.258651,-1.2292568 -0.636543,-2.429293 -1.191461,-3.5598337 -0.239236,-0.4754642 -0.381164,-0.7851908 -0.665679,-1.2380309 -0.512312,-0.815408 -1.163325,-1.534556 -1.764731,-2.282613 -1.052764,-1.221626 -2.192724,-2.366195 -3.417707,-3.416326 -0.311627,-0.248542 -0.981586,-0.793629 -1.314493,-1.016326 -0.810302,-0.542052 -1.7136,-0.935151 -2.5917812,-1.349028 -1.0953485,-0.483682 -2.2119695,-0.909585 -3.3518368,-1.27694 -0.2564765,-0.07 -0.5126594,-0.141081 -0.7693872,-0.210151 -0.095004,-0.02556 -0.1957414,-0.03471 -0.2853928,-0.07523 -0.084402,-0.03815 -0.1548262,-0.101899 -0.229071,-0.157279 -0.065966,-0.0492 -0.1089289,-0.154006 -0.1911932,-0.156186 -3.2118617,-0.08512 -6.4256019,-0.06954 -9.6384029,-0.104306 z" /><path
       style="fill:#000000;fill-opacity:1;fill-rule:nonzero;stroke:none;stroke-width:0.0132292"
       id="path81"
       d="m -4.0062775,15.448992 c 0.014843,0.850948 0.054398,1.701105 0.094575,2.551166 0.1522466,3.355898 0.2021205,6.714995 0.2368947,10.073785 0.019129,5.056397 -0.030006,10.11223 -0.010557,15.168674 0,0 9.7227389,-0.0092 9.7227389,-0.0092 v 0 C 6.008736,38.176648 6.0708999,33.12051 6.0792475,28.063796 6.0789829,24.687681 6.0641662,21.311082 5.9986421,17.935568 5.9839842,17.106935 5.9598251,16.277591 5.9880853,15.449003 Z" /><path
       style="fill:#000000;fill-opacity:1;fill-rule:nonzero;stroke:none;stroke-width:0.0132292"
       id="path83"
       d="m -9.0887566,-10.281919 c -3.3109614,0.02082 -6.6174614,0.0053 -9.9325794,0.06577 -0.100024,0.0019 -0.181468,0.08524 -0.27617,0.117475 -0.244385,0.08317 -0.49771,0.1373398 -0.745755,0.2088619 -1.174866,0.3479509 -2.361686,0.6502083 -3.527993,1.0271945 -1.962182,0.8524822 -3.832215,1.8846853 -5.661687,2.9885111 -1.406742,0.9109816 -2.825985,1.8078767 -4.171513,2.8089436 -0.851059,0.633185 -1.259435,0.9795166 -2.08314,1.6486452 -1.300804,1.1402298 -2.56053,2.33589775 -3.671253,3.6651803 -0.590001,0.7060961 -0.968575,1.2410916 -1.514743,1.9799194 -1.418155,1.944571 -2.602042,4.0434338 -3.64593,6.208093 -0.739239,1.671392 -1.344798,3.412644 -1.714385,5.205463 -0.0842,0.408464 -0.144558,0.821484 -0.216837,1.232223 -0.424542,2.709312 -0.55224,5.450747 -0.589199,8.188923 -0.01981,1.540152 0.07852,3.077532 0.170236,4.61383 0,0 9.83784,-0.122306 9.83784,-0.122306 v 0 c -0.09626,-1.484336 -0.193034,-2.969961 -0.163694,-4.458687 0.05242,-2.626273 0.163115,-5.259655 0.608913,-7.853548 0.412587,-2.034251 0.974289,-4.036226 1.906644,-5.901309 1.031331,-2.0404503 2.192457,-4.0170147 3.592299,-5.8298762 0.628658,-0.7972478 0.809162,-1.0544254 1.49012,-1.8057098 1.103921,-1.21793 2.326196,-2.3256795 3.608427,-3.35217555 1.981576,-1.51811305 4.044355,-2.92853265 6.207122,-4.17804595 1.791544,-0.99178 3.62426,-1.9734212 5.608461,-2.5196853 1.165336,-0.312883 2.329039,-0.6474856 3.517095,-0.863002 0.116528,-0.015028 0.5810834,-0.082029 0.7256385,-0.076613 0.079629,0.00299 0.3143674,0.044699 0.2346854,0.045479 -15.6823059,0.1535377 -12.2795189,0.021564 -9.0978059,0.044871 z" /><path
       style="fill:#000000;fill-opacity:1;fill-rule:nonzero;stroke:none;stroke-width:0.0132292"
       id="path84"
       d="m 18.921723,-6.4456591 c 3.24662,-0.021749 7.18263,0.011298 -8.390784,-0.033708 -0.150151,-5.292e-4 0.300339,5.292e-4 0.450426,0.00503 0.177737,0.00527 0.355264,0.016113 0.532895,0.024157 1.413431,0.1919499 2.816664,0.4592293 4.216024,0.734814 1.588651,0.3456226 3.149963,0.8027749 4.677759,1.3566854 1.561405,0.6435831 3.04155,1.4583675 4.47093,2.3531512 1.396367,0.9036632 2.628931,2.03029611 3.873698,3.1265892 1.291264,1.1576817 2.542003,2.3584693 3.702418,3.6475722 1.140727,1.2841367 1.995527,2.7654568 2.712577,4.3168199 0.755369,1.7356792 1.181216,3.5810952 1.530956,5.4334482 0.371213,2.201029 0.597691,4.42317 0.784791,6.64635 0.218509,2.762271 0.31061,5.531275 0.307776,8.301532 -0.0046,0.42378 -0.0092,0.847563 -0.01386,1.271344 0,0 9.861915,0.01537 9.861915,0.01537 v 0 c 0.0021,-0.42972 0.0041,-0.859443 0.0061,-1.289164 -0.0097,-2.820797 -0.104428,-5.640244 -0.297881,-8.45476 C 47.177569,18.71706 46.938864,16.4292 46.580579,14.157786 46.218878,12.156864 45.787022,10.165176 45.038899,8.2669759 44.31361,6.5336984 43.443851,4.856465 42.259891,3.3864665 42.062493,3.1375042 41.872689,2.8823268 41.667692,2.6395795 40.705821,1.5005747 39.585429,0.51194588 38.523741,-0.52970281 37.248262,-1.7074638 35.939405,-2.851022 34.594941,-3.9494794 33.144762,-4.9552215 31.644797,-5.882885 30.047618,-6.640313 29.776389,-6.7762983 29.510665,-6.9238643 29.233932,-7.0482714 27.968687,-7.6170753 26.612922,-7.9463122 25.290201,-8.3464866 23.892553,-8.7188611 22.470068,-8.9591742 21.053584,-9.2462736 17.266177,-10.166143 13.301542,-9.4768262 9.4197311,-9.5330608 Z" /></g></svg>
