<?xml version="1.0" encoding="UTF-8" standalone="no"?>
<!-- Created with Inkscape (http://www.inkscape.org/) -->

<svg
   width="114.92373mm"
   height="108.5789mm"
   viewBox="-60 -60 114.92373 108.5789"
   sodipodi:docname="CD-Label_120x120.svg"
   version="1.1"
   id="svg3"
   xml:space="preserve"
   inkscape:export-filename="diɵ.svg"
   inkscape:export-xdpi="96"
   inkscape:export-ydpi="96"
   xmlns:inkscape="http://www.inkscape.org/namespaces/inkscape"
   xmlns:sodipodi="http://sodipodi.sourceforge.net/DTD/sodipodi-0.dtd"
   xmlns="http://www.w3.org/2000/svg"
   xmlns:svg="http://www.w3.org/2000/svg"
   xmlns:rdf="http://www.w3.org/1999/02/22-rdf-syntax-ns#"
   xmlns:cc="http://creativecommons.org/ns#"
   xmlns:dc="http://purl.org/dc/elements/1.1/"><defs
     id="defs3" /><sodipodi:namedview
     pagecolor="#ffffff"
     bordercolor="#666666"
     borderopacity="1.0"
     inkscape:pageopacity="0.0"
     inkscape:pageshadow="2"
     inkscape:zoom="1"
     inkscape:cx="226.771653543"
     inkscape:cy="226.771653543"
     inkscape:document-units="mm"
     inkscape:current-layer="layer1"
     showgrid="false"
     units="mm"
     showguides="true"
     inkscape:guide-bbox="true"
     inkscape:snap-global="true"
     inkscape:snap-bbox="true"
     inkscape:snap-bbox-midpoints="true"
     inkscape:window-width="850"
     inkscape:window-height="832"
     inkscape:window-x="717"
     inkscape:window-y="28"
     inkscape:window-maximized="0"
     inkscape:bbox-paths="true"
     inkscape:bbox-nodes="true"
     inkscape:snap-bbox-edge-midpoints="true"
     inkscape:snap-grids="true"
     id="namedview1"
     inkscape:showpageshadow="2"
     inkscape:pagecheckerboard="0"
     inkscape:deskcolor="#d1d1d1"><sodipodi:guide
       orientation="1,0"
       position="221.45105,219.65727"
       id="guide2827"
       inkscape:locked="false" /><sodipodi:guide
       orientation="0,1"
       position="221.45105,219.65727"
       id="guide2829"
       inkscape:locked="false" /><inkscape:grid
       type="xygrid"
       id="grid3072"
       empspacing="10"
       visible="false"
       enabled="true"
       snapvisiblegridlinesonly="true"
       units="mm"
       dotted="false"
       spacingx="0.1mm"
       spacingy="0.1mm"
       originx="-5.3206046"
       originy="-4.3067142" /><sodipodi:guide
       position="64.688397,82.559707"
       orientation="0,-1"
       id="guide4"
       inkscape:locked="false" /><sodipodi:guide
       position="63.986601,22.077309"
       orientation="0,-1"
       id="guide5"
       inkscape:locked="false" /><sodipodi:guide
       position="85.140736,51.341045"
       orientation="1,0"
       id="guide6"
       inkscape:locked="false" /><sodipodi:guide
       position="24.986797,43.04013"
       orientation="1,0"
       id="guide7"
       inkscape:locked="false" /><sodipodi:guide
       position="64.88891,52.514001"
       orientation="0,-1"
       id="guide8"
       inkscape:locked="false" /><sodipodi:guide
       position="55.26428,36.303155"
       orientation="1,0"
       id="guide9"
       inkscape:locked="false" /><sodipodi:guide
       position="89.852794,97.326914"
       orientation="0,-1"
       id="guide10"
       inkscape:locked="false" /><sodipodi:guide
       position="79.526368,6.7386603"
       orientation="0,-1"
       id="guide11"
       inkscape:locked="false" /><sodipodi:guide
       position="9.6475435,53.957638"
       orientation="1,0"
       id="guide12"
       inkscape:locked="false" /><sodipodi:guide
       position="100.37974,47.431194"
       orientation="1,0"
       id="guide13"
       inkscape:locked="false" /><inkscape:page
       x="-3.7175488e-15"
       y="0"
       width="114.92374"
       height="108.5789"
       id="page2"
       margin="0"
       bleed="0" /></sodipodi:namedview><metadata
     id="metadata2822"><rdf:RDF><cc:Work
         rdf:about=""><dc:format>image/svg+xml</dc:format><dc:type
           rdf:resource="http://purl.org/dc/dcmitype/StillImage" /><dc:title /></cc:Work></rdf:RDF></metadata><g
     inkscape:label="Layer 1"
     inkscape:groupmode="layer"
     id="Template"
     style="fill:none;stroke:#000000;stroke-width:0.05"
     transform="translate(-5.3206046,-4.3067141)"><path
       id="path26"
       style="fill:#000000;fill-opacity:1;fill-rule:nonzero;stroke:none;stroke-width:0.0132292"
       d="m 43.68256,-55.693286 c -0.571318,0.555476 -1.148229,1.10632 -1.760099,1.617989 -1.456828,1.196587 -2.986094,2.300288 -4.525305,3.38739 -2.494659,1.689061 -5.000256,3.36162 -7.485331,5.065324 -3.603102,2.503368 -7.205142,5.007723 -10.820012,7.494116 -4.027934,2.726093 -8.003367,5.528309 -11.9289875,8.399488 -0.8392635,0.622237 -1.6742561,1.250187 -2.5125081,1.873787 0.036811,-1.616533 0.077205,-3.233069 0.1307414,-4.849316 0.3268874,-6.350409 0.1595897,-3.403249 0.5033284,-9.053195 0.1540695,-2.532432 0.3556547,-5.071304 0.3963582,-7.609354 0.0072,-0.448503 -0.00974,-0.897121 -0.014469,-1.345655 -0.027599,-1.038542 -0.060973,-2.081436 -0.2330607,-3.108337 l -9.9864705,0.198954 c 0.1828377,0.991819 0.2671124,1.993955 0.3338297,2.9993 0.134366,2.922256 -0.047775,5.847802 -0.1596801,8.767424 -0.1830652,4.776052 -0.1420994,3.827698 -0.2924886,9.074898 -0.0221,2.360025 -0.019853,4.72016 -0.024288,7.080188 -1.7609632,-0.951254 -3.528115,-1.891283 -5.3056192,-2.812748 -4.347141,-2.352003 -8.636932,-4.80782 -12.857097,-7.381462 -3.776673,-2.282554 -7.589251,-4.536387 -11.013798,-7.33857 -2.330908,-1.932959 -4.629058,-3.908501 -6.855912,-5.960876 -1.12946,-1.131728 -2.277134,-2.257045 -3.188953,-3.578593 -0.297442,-0.500683 -0.536774,-1.026657 -0.781864,-1.551843 l -9.98027,0.436665 c 0.176417,0.738898 0.525322,1.42728 0.864547,2.102714 0.855733,1.562439 2.096931,2.851343 3.326929,4.120162 2.215568,2.158259 4.585173,4.152486 6.952547,6.140711 3.451335,2.913065 7.307448,5.267222 11.153324,7.610388 4.23214,2.586152 8.519612,5.079588 12.864332,7.471379 3.948099,2.106509 7.903467,4.196921 11.7915282,6.413045 0.3607466,0.210677 0.7175708,0.427955 1.0779704,0.639237 -2.795138,2.122994 -5.5475396,4.300197 -8.2454916,6.546371 -1.908329,1.606487 -3.807716,3.2303443 -5.589323,4.9785072 -1.038174,1.0186882 -1.331615,1.3713638 -2.302702,2.4386109 -0.935556,1.0289861 -1.769594,2.1333133 -2.553849,3.2726684 -1.34876,0.039192 -2.697921,0.069035 -4.047299,0.089917 -1.074223,-0.037843 -3.048172,-0.1824851 -4.180623,-0.2723348 -1.452633,-0.1152551 -0.639448,-0.085581 -1.722375,-0.1064534 -0.114555,0.029094 -0.229947,0.055064 -0.343649,0.087333 -0.0581,0.016484 -0.111473,0.052878 -0.171565,0.058911 -0.214453,0.021537 -0.434745,-0.4712946 -0.541053,-0.6102987 -0.481927,-0.7789519 -0.964233,-1.5578212 -1.44694,-2.3362915 -0.344068,-0.5549265 -0.682834,-1.1134572 -1.031461,-1.6655314 -0.105266,-0.1666955 -0.376324,-0.5975464 -0.523999,-0.7777303 -0.03195,-0.038989 -0.07623,-0.066585 -0.114205,-0.099735 l -9.913607,1.236617 c 0.04718,0.072128 0.0891,0.1476498 0.141593,0.2160075 0.07445,0.096957 0.159235,0.1856831 0.238745,0.278536 0.101337,0.1262353 0.20641,0.249526 0.303858,0.3787882 0.372546,0.4941702 0.699339,1.0196156 1.029911,1.5420248 0.478376,0.7672334 0.944899,1.5417904 1.410767,2.3166544 0.311488,0.4153535 0.46598,0.96477255 0.825272,1.34513755 0.141457,0.14975416 0.313522,0.26732574 0.470256,0.40100911 0.244261,0.0971259 0.479121,0.22247291 0.732772,0.29145508 0.85548,0.23264547 2.241952,0.36450736 3.041675,0.43253174 2.158302,0.1835785 4.021295,0.25837489 6.220809,0.26871745 2.561914,0.0120472 5.123885,-3.6198e-4 7.685835,-0.007235 -0.311393,0.53855337 -0.621123,1.07830467 -0.91829,1.62470707 -1.536729,2.9453681 -2.867319,5.9913807 -4.189408,9.0371747 -1.34866,3.039895 -2.46399,6.17317 -3.572909,9.305892 -1.322249,3.771966 -2.782782,7.490961 -4.384745,11.152291 -1.265213,2.670165 -2.557543,5.353525 -4.242635,7.791772 -0.895117,1.295191 -1.510606,1.963612 -2.52026,3.154846 -1.738633,1.865963 -3.745021,3.442463 -5.753654,5.001245 l 9.642306,1.750798 c 2.050214,-1.675577 4.092987,-3.377569 5.801713,-5.414657 1.117478,-1.413732 1.537623,-1.8805 2.534212,-3.412194 1.66254,-2.555222 2.983475,-5.313799 4.26899,-8.070826 1.60891,-3.71004 3.089188,-7.473017 4.449858,-11.281482 1.108189,-3.088444 2.223141,-6.175993 3.56619,-9.172566 1.3023,-2.9889219 2.622092,-5.976469 4.17649,-8.8449386 0.544581,-0.9533264 1.121258,-1.8869597 1.718758,-2.80603027 4.066025,-0.15934698 8.130184,-0.36283253 12.193571,-0.58342692 0.062222,4.18402729 0.1303459,8.36803449 0.2015381,12.55168879 0.1391761,10.578338 0.5260533,21.149551 1.0092407,31.716927 L 6.144283,44.317664 C 5.534474,33.774643 5.0436829,23.224672 4.8430705,12.664815 4.7597071,8.3409625 4.6843443,4.0161849 4.6218953,-0.30906982 c 1.2327769,-0.0558961 2.465226,-0.12051164 3.6984823,-0.16588135 2.3499494,-0.0864526 4.7007064,-0.13723508 7.0512494,-0.2056722 1.655321,-0.0295049 1.369515,-0.0239888 2.277897,-0.0408244 0.181351,0.23811312 0.369231,0.47130898 0.548287,0.7110677 2.275462,3.06744427 3.912695,6.51810957 5.43326,10.00197347 1.652889,3.9222816 3.14217,7.9096766 4.779036,11.8385536 1.236771,2.894103 2.528542,5.768739 3.980636,8.562268 0.937308,1.803183 1.379336,2.552756 2.376599,4.322734 1.971436,3.412101 4.066059,6.768088 6.54172,9.841776 0.46132,0.572757 0.948819,1.124188 1.423169,1.686202 1.888911,2.114222 4.01009,4.012218 6.342765,5.62498 0.513424,0.354973 1.048003,0.678334 1.571997,1.017509 l 9.597347,-1.992643 c -0.520989,-0.297641 -1.053061,-0.577117 -1.563212,-0.892969 -2.311842,-1.431335 -4.409009,-3.178812 -6.282304,-5.146973 -1.323721,-1.487162 -1.57648,-1.71724 -2.801379,-3.312976 -1.904008,-2.480437 -3.56381,-5.135417 -5.145939,-7.828979 -0.984623,-1.721122 -1.437573,-2.478404 -2.36213,-4.231266 -1.446863,-2.743097 -2.732352,-5.568844 -3.950663,-8.419642 -1.640377,-3.934146 -3.13619,-7.925195 -4.75785,-11.8669755 -1.482939,-3.4560491 -3.046194,-6.8967394 -5.180562,-10.00817462 1.182921,0.008727 2.365815,0.0182618 3.548621,0.0356567 4.531167,0.0666327 5.58739,0.11337264 10.011792,0.24391276 L 50.795821,-3.4117229 C 42.5581,-3.6563383 34.317149,-3.7536109 26.075883,-3.7378011 24.414165,-5.8636943 22.612265,-7.8820064 20.630737,-9.7136637 19.565712,-10.664282 19.001645,-11.200317 17.879484,-12.07476 c -1.858278,-1.448059 -3.862524,-2.702325 -5.866825,-3.934127 -2.0720986,-1.264741 -4.1674359,-2.49096 -6.258533,-3.72432 3.6494493,-2.73635 7.295814,-5.477236 10.976074,-8.172111 3.926941,-2.84254 7.900297,-5.619245 11.90625,-8.349361 3.633938,-2.49084 7.266383,-4.983966 10.903727,-7.469829 2.516505,-1.701173 5.065347,-3.354913 7.553545,-5.097363 1.580454,-1.14065 3.163201,-2.286642 4.617806,-3.587378 0.664688,-0.626951 1.355461,-1.245777 1.877404,-2.001945 z M 4.5206095,-12.69436 c 1.7469467,1.0959 3.4742443,2.22344 5.0854777,3.5124468 0.4628648,0.3702976 0.9092798,0.7609689 1.3637408,1.1415323 1.569772,1.3410329 2.986277,2.8316698 4.323251,4.3935303 -2.908505,0.04404 -5.8171393,0.090927 -8.7250492,0.1653646 -0.6601068,0.021335 -1.3200859,0.044104 -1.9802409,0.064079 -0.037334,-3.0923004 -0.060242,-6.1846237 -0.067179,-9.276953 z m -9.1684326,1.057816 c 0.026538,2.855305 0.062195,5.7106856 0.1012858,8.5658856 -3.2365511,0.1481637 -6.4727327,0.30582 -9.7089677,0.4645712 0.383796,-0.4601629 0.768938,-0.9193139 1.18494,-1.3549561 2.436717,-2.5657783 5.0676966,-4.9302845 7.8015912,-7.1763057 0.2045428,-0.169604 0.4159799,-0.33039 0.6211507,-0.499195 z"
       inkscape:export-filename="kjo.svg"
       inkscape:export-xdpi="96"
       inkscape:export-ydpi="96" /></g></svg>
