<?xml version="1.0" encoding="UTF-8" standalone="no"?>
<!-- Created with Inkscape (http://www.inkscape.org/) -->

<svg
   width="109.58398mm"
   height="103.98271mm"
   viewBox="-60 -60 109.58398 103.98271"
   sodipodi:docname="CD-Label_120x120.svg"
   version="1.1"
   id="svg3"
   xml:space="preserve"
   inkscape:export-filename="diɵ.svg"
   inkscape:export-xdpi="96"
   inkscape:export-ydpi="96"
   xmlns:inkscape="http://www.inkscape.org/namespaces/inkscape"
   xmlns:sodipodi="http://sodipodi.sourceforge.net/DTD/sodipodi-0.dtd"
   xmlns="http://www.w3.org/2000/svg"
   xmlns:svg="http://www.w3.org/2000/svg"
   xmlns:rdf="http://www.w3.org/1999/02/22-rdf-syntax-ns#"
   xmlns:cc="http://creativecommons.org/ns#"
   xmlns:dc="http://purl.org/dc/elements/1.1/"><defs
     id="defs3" /><sodipodi:namedview
     pagecolor="#ffffff"
     bordercolor="#666666"
     borderopacity="1.0"
     inkscape:pageopacity="0.0"
     inkscape:pageshadow="2"
     inkscape:zoom="0.5"
     inkscape:cx="280"
     inkscape:cy="481"
     inkscape:document-units="mm"
     inkscape:current-layer="Template"
     showgrid="false"
     units="mm"
     showguides="true"
     inkscape:guide-bbox="true"
     inkscape:snap-global="true"
     inkscape:snap-bbox="true"
     inkscape:snap-bbox-midpoints="true"
     inkscape:window-width="1920"
     inkscape:window-height="991"
     inkscape:window-x="3831"
     inkscape:window-y="-9"
     inkscape:window-maximized="1"
     inkscape:bbox-paths="true"
     inkscape:bbox-nodes="true"
     inkscape:snap-bbox-edge-midpoints="true"
     inkscape:snap-grids="true"
     id="namedview1"
     inkscape:showpageshadow="2"
     inkscape:pagecheckerboard="0"
     inkscape:deskcolor="#d1d1d1"><sodipodi:guide
       orientation="1,0"
       position="220.97726,216.90179"
       id="guide2827"
       inkscape:locked="false" /><sodipodi:guide
       orientation="0,1"
       position="220.97726,216.90179"
       id="guide2829"
       inkscape:locked="false" /><inkscape:grid
       type="xygrid"
       id="grid3072"
       empspacing="10"
       visible="false"
       enabled="true"
       snapvisiblegridlinesonly="true"
       units="mm"
       dotted="false"
       spacingx="0.1mm"
       spacingy="0.1mm"
       originx="-5.7943905"
       originy="-6.1474296" /><sodipodi:guide
       position="64.21461,79.80423"
       orientation="0,-1"
       id="guide4"
       inkscape:locked="false" /><sodipodi:guide
       position="63.512814,19.321833"
       orientation="0,-1"
       id="guide5"
       inkscape:locked="false" /><sodipodi:guide
       position="84.666949,48.585568"
       orientation="1,0"
       id="guide6"
       inkscape:locked="false" /><sodipodi:guide
       position="24.513011,40.284653"
       orientation="1,0"
       id="guide7"
       inkscape:locked="false" /><sodipodi:guide
       position="64.415123,49.758524"
       orientation="0,-1"
       id="guide8"
       inkscape:locked="false" /><sodipodi:guide
       position="54.790493,33.547678"
       orientation="1,0"
       id="guide9"
       inkscape:locked="false" /><sodipodi:guide
       position="89.379007,94.571442"
       orientation="0,-1"
       id="guide10"
       inkscape:locked="false" /><sodipodi:guide
       position="79.052581,3.9831838"
       orientation="0,-1"
       id="guide11"
       inkscape:locked="false" /><sodipodi:guide
       position="9.1737575,51.202161"
       orientation="1,0"
       id="guide12"
       inkscape:locked="false" /><sodipodi:guide
       position="99.905949,44.675717"
       orientation="1,0"
       id="guide13"
       inkscape:locked="false" /><inkscape:page
       x="0"
       y="0"
       width="109.58398"
       height="103.98271"
       id="page2"
       margin="0"
       bleed="0" /></sodipodi:namedview><metadata
     id="metadata2822"><rdf:RDF><cc:Work
         rdf:about=""><dc:format>image/svg+xml</dc:format><dc:type
           rdf:resource="http://purl.org/dc/dcmitype/StillImage" /><dc:title /></cc:Work></rdf:RDF></metadata><g
     inkscape:label="Layer 1"
     inkscape:groupmode="layer"
     id="Template"
     style="fill:none;stroke:#000000;stroke-width:0.05"
     transform="translate(-5.7943904,-6.1474295)"><path
       style="fill:#000000;fill-opacity:1;fill-rule:nonzero;stroke:none;stroke-width:0.0132292"
       id="path111"
       d="m -54.163764,-50.266828 c -0.211093,1.939284 0.416366,3.828013 0.98842,5.653214 1.499937,4.10462 4.092509,7.702037 6.580026,11.257579 2.002723,2.748751 4.221361,5.353978 6.792726,7.590681 1.71318,1.490213 2.673327,2.123654 4.516111,3.460411 4.934702,3.463536 10.324238,6.174642 15.707038,8.854655 5.371793,2.622788 10.5755912,5.5657639 15.5621139,8.8601412 3.15360306,2.2369436 6.1395106,4.726895 8.8470738,7.4906266 1.7486313,1.7849083 2.1373756,2.3291033 3.7411263,4.2509969 3.748355,4.7420163 6.860082,9.9380413 10.136529,15.0063463 3.154701,4.816157 6.231842,9.715333 10.003297,14.085178 0.834218,0.966579 1.720319,1.887136 2.580476,2.830701 3.769482,3.990006 7.903366,7.59189 12.150855,11.056434 0,0 9.6334,-1.742379 9.6334,-1.742379 v 0 C 52.0616,47.587975 51.029275,46.811097 50.033939,45.988412 46.863395,43.367836 43.875659,40.534776 40.978477,37.617668 38.699268,35.185065 38.223818,34.780115 36.184719,32.213307 33.364581,28.663334 30.951287,24.818034 28.468411,21.032177 25.155679,15.911934 22.031932,10.654478 18.322447,5.8049539 16.812083,3.9257746 16.206553,3.0959434 14.553185,1.3426529 11.834012,-1.5408609 8.7953911,-4.1175798 5.6344697,-6.4999013 4.8067763,-7.0712002 3.9924417,-7.6623535 3.1513895,-8.213798 c -4.2053245,-2.757281 -8.6685913,-5.109258 -13.137372,-7.402055 -5.3256705,-2.635363 -10.6921325,-5.228076 -15.6326225,-8.55632 -1.605397,-1.112192 -2.947435,-1.994048 -4.459322,-3.227105 -2.55021,-2.079884 -4.754697,-4.537855 -6.721245,-7.168241 -1.352662,-1.894436 -2.671735,-3.803021 -3.912471,-5.773477 -0.652398,-1.036095 -1.432875,-2.29003 -1.962498,-3.408324 -0.227484,-0.480331 -0.399045,-0.985207 -0.598567,-1.47781 -0.49607,-1.519893 -1.129315,-3.130548 -0.90305,-4.756168 z" /><path
       style="fill:#000000;fill-opacity:1;fill-rule:nonzero;stroke:none;stroke-width:0.0132292"
       id="path112"
       d="m 45.386258,-50.49924 c -0.324734,1.477436 -1.028542,2.88625 -1.607008,4.281886 -1.554319,3.730443 -3.864237,7.072909 -6.16272,10.373411 -1.877809,2.600991 -3.882713,5.121567 -6.143278,7.403017 -1.540008,1.554231 -1.928543,1.830281 -3.594786,3.263886 -4.075332,3.403246 -8.641479,6.135063 -13.248081,8.744524 -4.981882,2.686445 -10.0451047,5.211226 -14.950514,8.0373726 -3.2128751,1.9848459 -6.4020382,4.0422221 -9.3153864,6.4553649 -1.7914016,1.48382829 -2.5053976,2.23061209 -4.1806286,3.8421151 -4.157157,4.2072533 -7.028984,9.3586224 -9.760952,14.5433574 -2.280084,4.111265 -4.028694,8.530359 -6.56014,12.503676 -0.515234,0.808704 -1.097704,1.572556 -1.646555,2.358835 -4.874269,6.24152 -10.827533,11.527858 -16.722894,16.774625 l 9.604018,1.632283 c 5.985996,-5.365922 12.07431,-10.750975 16.889716,-17.233148 0.556887,-0.837708 1.143958,-1.656114 1.670664,-2.513121 2.47583,-4.028429 4.274854,-8.434453 6.565437,-12.563774 2.675133,-5.00435 5.5306564,-9.9481398 9.6789579,-13.9048036 C -2.3333806,1.8707771 -1.8348739,1.34768 0.04856258,-0.14172311 2.9648265,-2.4478737 6.1154557,-4.4448455 9.311699,-6.3346796 c 4.936175,-2.7701001 10.007468,-5.2847534 14.948157,-8.0467254 4.661,-2.715035 9.276198,-5.560422 13.342707,-9.131861 0.626954,-0.568002 1.268825,-1.119965 1.880864,-1.704006 2.98145,-2.845067 5.557832,-6.081326 7.938037,-9.436416 2.346137,-3.430878 4.670722,-6.914251 6.247278,-10.781146 0.682678,-1.629846 1.547509,-3.2808 1.709627,-5.064406 z"
       sodipodi:nodetypes="cccscccsccsccccsccscccscccc" /><path
       id="path113"
       style="fill:#000000;fill-opacity:1;fill-rule:nonzero;stroke:none;stroke-width:0.0132292"
       d="m -0.03931885,-53.848438 c -1.99693875,-0.09248 -4.91959635,1.397848 -4.91959635,1.397848 -0.4893809,0.23298 -0.9758253,0.473177 -1.4562419,0.725537 -1.7469935,1.131305 -3.3524425,2.490488 -4.6116049,4.157886 -0.319747,0.423408 -0.60146,0.874485 -0.90227,1.311548 -1.651047,2.921165 -2.573168,6.211262 -2.830319,9.553938 -0.06112,0.794548 -0.04998,1.593014 -0.07493,2.389519 0.03475,3.377479 0.561745,6.726419 1.529622,9.961149 0.638168,2.132817 0.982567,2.851592 1.812809,4.914945 1.72743,4.047805 4.3815465,7.574287 7.6455284,10.5099531 0.571418,0.5139399 1.1809578,0.9839947 1.7714681,1.4758789 l 2.04431965,-0.3715536 c -0.7324821,1.7038484 -1.35881935,3.4519835 -1.93063155,5.2177694 -0.8840311,2.99990407 -1.484312,6.0720082 -1.9807576,9.1565471 -0.6123966,4.0118481 -0.7606071,8.0741161 -0.9203573,12.1232911 -0.3216407,6.729447 -0.087733,13.467505 0.1906861,20.193599 0.2915894,4.722067 0.1296886,2.385733 0.4831746,7.008875 L 5.6254517,45.725846 C 5.2628561,41.147195 5.427085,43.459367 5.1355591,38.787769 4.8588658,32.1177 4.6284054,25.435027 4.9980998,18.763151 5.1934258,14.792721 5.3431679,10.807256 5.9628988,6.874471 6.4604107,3.8919316 7.0480486,0.9172901 7.9462402,-1.9740845 8.7754603,-4.4586463 9.7094773,-6.9106397 10.96156,-9.2180868 c 1.219308,-2.2268392 2.571041,-4.3715612 3.912423,-6.5262162 1.192289,-2.015376 2.357643,-4.062537 3.151745,-6.274036 0.62453,-1.829387 1.185282,-3.690467 1.24902,-5.638416 0.06638,-1.70969 0.01295,-3.423982 -0.203605,-5.122684 -0.208132,-1.63722 -0.496333,-3.262 -0.898137,-4.863786 -0.38255,-1.731008 -0.836594,-3.449252 -1.593184,-5.060673 -0.782103,-1.780996 -1.671714,-3.501851 -2.972945,-4.969206 -1.190625,-1.298915 -2.36358,-2.631964 -3.9599654,-3.447851 -1.1837722,-0.707418 -2.4308651,-1.387906 -3.7837484,-1.699638 -1.8568961,-0.466072 -3.9055433,-0.935361 -5.90248205,-1.027845 z m 1.23454995,5.569686 c 0.9398778,0.592244 1.7835182,1.311785 2.5760702,2.11305 1.2465976,1.243627 2.1447637,2.732871 2.8928466,4.311881 0.722884,1.481986 1.1909935,3.055183 1.5647624,4.655013 0.3804364,1.544056 0.6758351,3.104738 0.8909017,4.679818 0.2081477,1.584897 0.2676655,3.185653 0.1999878,4.78162 -0.070848,1.750536 -0.6204558,3.413977 -1.21698,5.044654 -0.8192426,2.063081 -1.9432205,3.986297 -3.1031697,5.872509 -0.7294905,1.129167 -1.4360873,2.270536 -2.1197673,3.425631 -1.8537803,-2.014565 -3.41114616,-4.283198 -4.5397746,-6.80837 -0.8103658,-1.936779 -1.1677377,-2.662719 -1.7936889,-4.665348 -0.9497695,-3.038633 -1.4761289,-6.191198 -1.5048177,-9.376689 0.027003,-0.73276 0.019326,-1.467668 0.081132,-2.198315 0.255823,-3.024068 1.1185303,-6.01103 2.7874267,-8.559685 0.2936081,-0.372966 0.5683369,-0.761789 0.8805664,-1.119311 0.70934245,-0.812234 1.52241414,-1.533913 2.4045044,-2.156458 z"
       sodipodi:nodetypes="sccscscscsccccccccccccccccccccccsccccccccccscccsc" /></g></svg>
