<?xml version="1.0" encoding="UTF-8" standalone="no"?>
<!-- Created with Inkscape (http://www.inkscape.org/) -->

<svg
   width="114.36848mm"
   height="104.43755mm"
   viewBox="-60 -60 114.36848 104.43755"
   sodipodi:docname="CD-Label_120x120.svg"
   version="1.1"
   id="svg3"
   xml:space="preserve"
   inkscape:export-filename="diɵ.svg"
   inkscape:export-xdpi="96"
   inkscape:export-ydpi="96"
   xmlns:inkscape="http://www.inkscape.org/namespaces/inkscape"
   xmlns:sodipodi="http://sodipodi.sourceforge.net/DTD/sodipodi-0.dtd"
   xmlns="http://www.w3.org/2000/svg"
   xmlns:svg="http://www.w3.org/2000/svg"
   xmlns:rdf="http://www.w3.org/1999/02/22-rdf-syntax-ns#"
   xmlns:cc="http://creativecommons.org/ns#"
   xmlns:dc="http://purl.org/dc/elements/1.1/"><defs
     id="defs3" /><sodipodi:namedview
     pagecolor="#ffffff"
     bordercolor="#666666"
     borderopacity="1.0"
     inkscape:pageopacity="0.0"
     inkscape:pageshadow="2"
     inkscape:zoom="0.5"
     inkscape:cx="280"
     inkscape:cy="481"
     inkscape:document-units="mm"
     inkscape:current-layer="Template"
     showgrid="false"
     units="mm"
     showguides="true"
     inkscape:guide-bbox="true"
     inkscape:snap-global="true"
     inkscape:snap-bbox="true"
     inkscape:snap-bbox-midpoints="true"
     inkscape:window-width="1920"
     inkscape:window-height="991"
     inkscape:window-x="3831"
     inkscape:window-y="-9"
     inkscape:window-maximized="1"
     inkscape:bbox-paths="true"
     inkscape:bbox-nodes="true"
     inkscape:snap-bbox-edge-midpoints="true"
     inkscape:snap-grids="true"
     id="namedview1"
     inkscape:showpageshadow="2"
     inkscape:pagecheckerboard="0"
     inkscape:deskcolor="#d1d1d1"><sodipodi:guide
       orientation="1,0"
       position="223.82863,218.31361"
       id="guide2827"
       inkscape:locked="false" /><sodipodi:guide
       orientation="0,1"
       position="223.82863,218.31361"
       id="guide2829"
       inkscape:locked="false" /><inkscape:grid
       type="xygrid"
       id="grid3072"
       empspacing="10"
       visible="false"
       enabled="true"
       snapvisiblegridlinesonly="true"
       units="mm"
       dotted="false"
       spacingx="0.1mm"
       spacingy="0.1mm"
       originx="-2.943023"
       originy="-7.1044114" /><sodipodi:guide
       position="67.065977,81.216052"
       orientation="0,-1"
       id="guide4"
       inkscape:locked="false" /><sodipodi:guide
       position="66.364181,20.733656"
       orientation="0,-1"
       id="guide5"
       inkscape:locked="false" /><sodipodi:guide
       position="87.518316,49.997391"
       orientation="1,0"
       id="guide6"
       inkscape:locked="false" /><sodipodi:guide
       position="27.364379,41.696476"
       orientation="1,0"
       id="guide7"
       inkscape:locked="false" /><sodipodi:guide
       position="67.26649,51.170347"
       orientation="0,-1"
       id="guide8"
       inkscape:locked="false" /><sodipodi:guide
       position="57.64186,34.959501"
       orientation="1,0"
       id="guide9"
       inkscape:locked="false" /><sodipodi:guide
       position="92.230373,95.983262"
       orientation="0,-1"
       id="guide10"
       inkscape:locked="false" /><sodipodi:guide
       position="81.903948,5.3950075"
       orientation="0,-1"
       id="guide11"
       inkscape:locked="false" /><sodipodi:guide
       position="12.025125,52.613984"
       orientation="1,0"
       id="guide12"
       inkscape:locked="false" /><sodipodi:guide
       position="102.75732,46.08754"
       orientation="1,0"
       id="guide13"
       inkscape:locked="false" /><inkscape:page
       x="0"
       y="0"
       width="114.36848"
       height="104.43755"
       id="page2"
       margin="0"
       bleed="0" /></sodipodi:namedview><metadata
     id="metadata2822"><rdf:RDF><cc:Work
         rdf:about=""><dc:format>image/svg+xml</dc:format><dc:type
           rdf:resource="http://purl.org/dc/dcmitype/StillImage" /><dc:title /></cc:Work></rdf:RDF></metadata><g
     inkscape:label="Layer 1"
     inkscape:groupmode="layer"
     id="Template"
     style="fill:none;stroke:#000000;stroke-width:0.05"
     transform="translate(-2.9430229,-7.1044113)"><path
       style="fill:#000000;fill-opacity:1;fill-rule:nonzero;stroke:none;stroke-width:0.0132292"
       id="path105"
       d="m -4.771307,-52.377054 c -0.073887,2.603008 0.2222209,5.189593 0.5477378,7.766736 0.8470979,6.217211 2.6926725,12.223457 4.61189911,18.176463 3.08475849,9.305641 7.15021899,18.2423164 11.40135109,27.06198472 0.84555,1.66007518 1.674069,3.32893458 2.536645,4.98022558 1.901174,3.6395474 3.353535,6.2891217 5.464106,9.8248867 2.932816,4.913243 6.112605,9.657535 9.32258,14.391285 2.9683,4.255402 5.970085,8.491455 9.18441,12.566385 2.217134,2.810751 3.397851,4.144119 5.685729,6.824176 0,0 9.673553,-1.386155 9.673553,-1.386155 v 0 C 51.459749,45.307081 50.065562,43.754887 47.946668,41.116356 44.713943,37.090843 41.716767,32.884896 38.743033,28.66707 35.535577,23.981993 32.358264,19.286673 29.43101,14.418544 27.371684,10.993817 25.839233,8.2236504 23.982898,4.6937092 23.122465,3.0575418 22.297687,1.4028694 21.455082,-0.24255052 17.243987,-8.9769675 13.207241,-17.824735 10.155233,-27.042093 8.2859915,-32.876187 6.4836102,-38.763659 5.6613989,-44.853876 5.3662271,-47.289144 5.0862609,-49.738084 5.2145997,-52.19597 Z" /><path
       style="fill:#000000;fill-opacity:1;fill-rule:nonzero;stroke:none;stroke-width:0.0132213"
       id="path106"
       d="m -4.2110814,-52.895589 c -0.3369165,1.533278 -0.6243479,3.078055 -0.9178083,4.621373 -0.6964018,3.814929 -1.5527607,7.592934 -2.4729152,11.355481 -1.3026134,5.464343 -2.6616621,10.907245 -4.2642061,16.285785 -2.159922,7.275442 -5.025826,14.2914796 -7.981138,21.2489668 -2.468879,5.636171 -5.121271,11.1878502 -8.096033,16.5562382 -2.16308,3.903593 -2.770533,4.823619 -5.074706,8.627239 -3.23148,5.287285 -6.823639,10.320854 -10.779575,15.047057 -2.257526,2.697092 -3.227848,3.709826 -5.573959,6.286478 -0.916649,0.954011 -1.833299,1.908022 -2.749948,2.862034 0,0 9.481723,1.54689 9.481723,1.54689 v 0 c 0.916667,-0.971903 1.833334,-1.943806 2.750001,-2.915706 2.332034,-2.606766 3.335302,-3.672976 5.574443,-6.403522 3.9551,-4.82309 7.53306,-9.958472 10.784124,-15.317688 2.278758,-3.801624 2.943676,-4.831749 5.088553,-8.728752 2.989015,-5.430711 5.667071,-11.0373089 8.147739,-16.735735 2.9796065,-7.0329272 5.8810735,-14.120618 8.0562667,-21.474365 1.60674329,-5.414262 2.98201536,-10.89047 4.311576,-16.384411 0.9313351,-3.796783 1.8004111,-7.608557 2.5327424,-11.452709 0.050964,-0.255749 0.3833519,-1.930152 0.4573262,-2.279377 0.1086349,-0.512865 0.1987209,-1.36368 0.4878056,-1.802895 z" /><path
       style="fill:#000000;fill-opacity:1;fill-rule:nonzero;stroke:none;stroke-width:0.0132292"
       id="path107"
       d="m -55.530505,-51.10403 c 0.860934,1.754143 1.908335,3.38169 3.078565,4.944403 2.505565,3.275506 6.013846,5.401834 9.556273,7.380684 3.456915,1.788597 7.084519,3.276301 10.846919,4.292219 2.975232,0.803368 4.673738,1.057119 7.731694,1.63055 8.845918,1.622489 17.8089215,1.523138 26.7741133,1.298379 2.685669,-0.06733 6.3756936,-0.675468 9.0230697,-1.054634 7.453714,-1.337283 14.876438,-3.046844 22.027848,-5.567576 1.379992,-0.48642 2.736813,-1.036238 4.105217,-1.554357 3.969226,-1.668174 7.844573,-3.564476 11.583841,-5.699967 1.135523,-0.648494 2.241408,-1.347561 3.362108,-2.021341 0,0 -9.580771,-2.014516 -9.580771,-2.014516 v 0 c -4.779925,2.785826 -9.654908,5.418902 -14.842183,7.382901 -1.360016,0.490262 -2.709603,1.010479 -4.080049,1.470786 -7.131754,2.395425 -14.5076997,4.051578 -21.9302199,5.234877 -1.49353588,0.181707 -2.98261087,0.404868 -4.4806076,0.545121 -1.4900963,0.139514 -5.4950439,-0.806133 -4.4802133,0.293854 1.0949384,1.186818 3.2379734,0.274469 4.8432349,0.09963 1.46167205,-0.159201 -2.9407803,-0.05968 -4.4085034,-0.146979 -1.45202,-0.08636 -2.9022198,-0.211475 -4.3477177,-0.373825 -1.39336,-0.156494 -2.777234,-0.388245 -4.165852,-0.582368 -2.474827,-0.424404 -5.178512,-0.842726 -7.628379,-1.433114 -3.702973,-0.892372 -7.287368,-2.25196 -10.71268,-3.90603 -3.395317,-1.770607 -6.840676,-3.622489 -9.359843,-6.58455 -1.167952,-1.435732 -2.294036,-2.933305 -2.978757,-4.669631 z" /><path
       style="fill:#000000;fill-opacity:1;fill-rule:nonzero;stroke:none;stroke-width:0.0121999"
       id="path108"
       d="m -6.6079343,-35.254 c -1.0728513,1.204048 -2.3319514,2.257535 -3.5436897,3.339405 -3.229234,2.858997 -6.739475,5.420304 -10.328256,7.876052 -6.404269,4.237606 -12.723344,8.584472 -19.157503,12.783057 -5.496052,3.6686599 -11.405045,6.7267596 -17.419594,9.5893502 0,0 9.158686,1.87959384 9.158686,1.87959384 v 0 c 6.018919,-2.95262324 11.918053,-6.11360904 17.439231,-9.82369634 6.442059,-4.2309417 12.811698,-8.5555927 19.233003,-12.8135247 3.6343258,-2.525783 7.1910332,-5.153088 10.46276638,-8.080434 1.22943556,-1.098022 2.42885422,-2.223682 3.61245452,-3.362133 z" /><path
       style="fill:#000000;fill-opacity:1;fill-rule:nonzero;stroke:none;stroke-width:0.0133795"
       id="path109"
       d="m -3.015196,-35.416467 c 0.1059919,0.08217 0.2218803,0.152996 0.3179732,0.246494 0.9677219,0.941582 1.80061176,2.025249 2.75931596,2.97977 1.62919704,1.62209 2.23180764,2.103034 4.02074404,3.684082 6.5575718,5.678291 13.8211308,10.445546 21.0931888,15.146392 7.363909,4.7024114 14.919382,9.0946427 22.492732,13.44975273 0,0 9.642743,-2.05079003 9.642743,-2.05079003 v 0 C 49.736567,-6.2705126 42.190599,-10.636901 34.83107,-15.306623 27.628476,-19.935226 20.42469,-24.615476 13.906829,-30.189307 11.437624,-32.331055 8.8780783,-34.461399 6.9518181,-37.127335 Z" /><path
       style="fill:#000000;fill-opacity:1;fill-rule:nonzero;stroke:none;stroke-width:0.0132292"
       id="path110"
       d="m -4.3978502,-40.839357 c -0.040516,3.160067 0.094932,6.323604 0.1617953,9.483556 0.147283,11.361203 -0.172384,22.7213657 -0.3407833,34.0805922 -0.05542,10.4338088 -0.1712013,20.8646338 -0.4418171,31.2950858 0,0 9.5571599,0.04988 9.5571599,0.04988 v 0 C 4.8125098,23.63306 4.9745777,13.196277 5.0393609,2.7560941 5.241103,-8.6223226 5.6057015,-19.999202 5.5972772,-31.380257 c -0.011509,-3.077666 -0.1191313,-6.163284 -0.00778,-9.23803 z" /></g></svg>
