<?xml version="1.0" encoding="UTF-8" standalone="no"?>
<!-- Created with Inkscape (http://www.inkscape.org/) -->

<svg
   width="112.88408mm"
   height="105.32898mm"
   viewBox="-60 -60 112.88408 105.32898"
   sodipodi:docname="CD-Label_120x120.svg"
   version="1.1"
   id="svg3"
   xml:space="preserve"
   inkscape:export-filename="diɵ.svg"
   inkscape:export-xdpi="96"
   inkscape:export-ydpi="96"
   xmlns:inkscape="http://www.inkscape.org/namespaces/inkscape"
   xmlns:sodipodi="http://sodipodi.sourceforge.net/DTD/sodipodi-0.dtd"
   xmlns="http://www.w3.org/2000/svg"
   xmlns:svg="http://www.w3.org/2000/svg"
   xmlns:rdf="http://www.w3.org/1999/02/22-rdf-syntax-ns#"
   xmlns:cc="http://creativecommons.org/ns#"
   xmlns:dc="http://purl.org/dc/elements/1.1/"><defs
     id="defs3" /><sodipodi:namedview
     pagecolor="#ffffff"
     bordercolor="#666666"
     borderopacity="1.0"
     inkscape:pageopacity="0.0"
     inkscape:pageshadow="2"
     inkscape:zoom="1"
     inkscape:cx="226.771653543"
     inkscape:cy="226.771653543"
     inkscape:document-units="mm"
     inkscape:current-layer="layer1"
     showgrid="false"
     units="mm"
     showguides="true"
     inkscape:guide-bbox="true"
     inkscape:snap-global="true"
     inkscape:snap-bbox="true"
     inkscape:snap-bbox-midpoints="true"
     inkscape:window-width="850"
     inkscape:window-height="832"
     inkscape:window-x="717"
     inkscape:window-y="28"
     inkscape:window-maximized="0"
     inkscape:bbox-paths="true"
     inkscape:bbox-nodes="true"
     inkscape:snap-bbox-edge-midpoints="true"
     inkscape:snap-grids="true"
     id="namedview1"
     inkscape:showpageshadow="2"
     inkscape:pagecheckerboard="0"
     inkscape:deskcolor="#d1d1d1"><sodipodi:guide
       orientation="1,0"
       position="224.12014,217.75713"
       id="guide2827"
       inkscape:locked="false" /><sodipodi:guide
       orientation="0,1"
       position="224.12014,217.75713"
       id="guide2829"
       inkscape:locked="false" /><inkscape:grid
       type="xygrid"
       id="grid3072"
       empspacing="10"
       visible="false"
       enabled="true"
       snapvisiblegridlinesonly="true"
       units="mm"
       dotted="false"
       spacingx="0.1mm"
       spacingy="0.1mm"
       originx="-2.6515182"
       originy="-5.6564975" /><sodipodi:guide
       position="67.357482,80.659564"
       orientation="0,-1"
       id="guide4"
       inkscape:locked="false" /><sodipodi:guide
       position="66.655686,20.177168"
       orientation="0,-1"
       id="guide5"
       inkscape:locked="false" /><sodipodi:guide
       position="87.80982,49.440902"
       orientation="1,0"
       id="guide6"
       inkscape:locked="false" /><sodipodi:guide
       position="27.655883,41.139988"
       orientation="1,0"
       id="guide7"
       inkscape:locked="false" /><sodipodi:guide
       position="67.557995,50.613858"
       orientation="0,-1"
       id="guide8"
       inkscape:locked="false" /><sodipodi:guide
       position="57.933365,34.403013"
       orientation="1,0"
       id="guide9"
       inkscape:locked="false" /><sodipodi:guide
       position="92.521878,95.426777"
       orientation="0,-1"
       id="guide10"
       inkscape:locked="false" /><sodipodi:guide
       position="82.195452,4.8385193"
       orientation="0,-1"
       id="guide11"
       inkscape:locked="false" /><sodipodi:guide
       position="12.31663,52.057495"
       orientation="1,0"
       id="guide12"
       inkscape:locked="false" /><sodipodi:guide
       position="103.04882,45.531051"
       orientation="1,0"
       id="guide13"
       inkscape:locked="false" /><inkscape:page
       x="-1.7980184e-15"
       y="0"
       width="112.88407"
       height="105.32898"
       id="page2"
       margin="0"
       bleed="0" /></sodipodi:namedview><metadata
     id="metadata2822"><rdf:RDF><cc:Work
         rdf:about=""><dc:format>image/svg+xml</dc:format><dc:type
           rdf:resource="http://purl.org/dc/dcmitype/StillImage" /><dc:title /></cc:Work></rdf:RDF></metadata><g
     inkscape:label="Layer 1"
     inkscape:groupmode="layer"
     id="Template"
     style="fill:none;stroke:#000000;stroke-width:0.05"
     transform="translate(-2.6515182,-5.6564974)"><path
       id="path30"
       style="fill:#000000;fill-opacity:1;fill-rule:nonzero;stroke:none;stroke-width:0.0132292"
       d="m -47.538228,-54.343498 -9.810254,1.88774 c 0.557642,0.305066 1.001642,0.781101 1.520837,1.14515 0.198894,0.13946 0.407967,0.264297 0.611849,0.396358 0.05521,0.03027 0.112063,0.05736 0.167432,0.08733 0.290387,0.396113 0.572889,0.799496 0.855245,1.197343 2.477069,3.482481 4.677722,7.143826 6.798034,10.850501 3.389708,6.072326 6.55828,12.264898 9.716203,18.459855 3.614869,7.243587 7.060174,14.5698729 10.555428,21.8715333 -2.645771,5.4332417 -5.343271,10.8414187 -8.112683,16.2124467 -1.753631,3.457515 -3.678609,6.819885 -5.636865,10.163721 l 9.552905,1.005107 c 1.929696,-3.384269 3.83012,-6.78471 5.581572,-10.26604 1.174837,-2.304027 2.324623,-4.620992 3.482991,-6.933427 1.338734,2.794069 2.672994,5.590193 4.009058,8.385534 -0.05117,0.683745 -0.197095,1.353695 -0.348816,2.022616 -0.754853,3.040763 -1.945871,5.951736 -3.168799,8.828402 -2.153126,4.85679 -4.752694,9.496473 -7.334953,14.133504 -1.888461,3.273394 -0.934395,1.662337 -2.86029,4.833813 l 9.644372,1.047482 c 1.915406,-3.222048 0.964039,-1.589422 2.852023,-4.898926 2.452087,-4.402523 4.913907,-8.808891 7.005773,-13.397115 0.925371,2.091392 1.848926,4.183636 2.7600387,6.28127 1.3431414,3.074259 2.6995806,6.142627 4.0281779,9.22321 l 5.09529624,-0.418579 4.76043296,0.338997 c 0.407969,-1.105361 0.8057039,-2.214471 1.2236979,-3.316077 1.6795991,-4.426519 3.5358118,-8.782938 5.4621993,-13.10721 1.149366,2.11694 2.37582,4.193904 3.620967,6.255432 2.751159,4.38967 5.884827,8.515034 9.106938,12.564608 L 33.201546,49.20057 C 29.9764,45.248012 26.842349,41.215009 24.117863,36.894344 c -2.452179,-4.042399 -4.802178,-8.132573 -6.61355,-12.510347 -0.52139,-1.291344 -1.607137,-3.941879 -1.607137,-3.941879 1.365287,-3.046335 2.737388,-6.0894 4.129464,-9.123474 0.955873,2.142977 1.907383,4.288001 2.854606,6.43475 1.60855,3.706464 3.298445,7.374453 5.097363,10.992093 l 9.715169,-0.907954 C 35.874202,24.25739 34.164449,20.625595 32.559725,16.943624 30.182541,11.605721 27.816514,6.2621959 25.297636,0.98904215 25.240643,0.87009421 25.182078,0.75191586 25.125037,0.63299154 27.824756,-4.8650263 30.567893,-10.341083 33.355542,-15.795463 c 2.910501,-5.629659 5.879353,-11.228801 8.87336,-16.814478 1.808588,-3.408838 3.630404,-6.811701 5.602759,-10.129614 1.091065,-1.839183 2.200126,-3.668562 3.37137,-5.458065 0.07842,-0.118309 0.159503,-0.234874 0.238229,-0.35295 1.372301,-0.445879 2.737106,-0.916126 4.094323,-1.407149 l -9.502779,-2.388485 c -1.160286,0.399675 -2.325996,0.783973 -3.495394,1.155485 l -0.115755,-0.01809 c -0.0056,0.02069 -0.01217,0.04107 -0.01705,0.06201 -1.383456,0.437735 -2.773643,0.853671 -4.176489,1.227832 -4.766744,1.263822 -9.576805,2.365504 -14.456999,3.099036 -5.913816,0.884895 -11.852221,1.586773 -17.8040811,2.163176 -0.7493092,0.06655 -1.3172042,0.116833 -1.9306315,0.171565 0.00128,-1.718214 0.00642,-3.436588 0.024805,-5.154724 0.012647,-1.187504 0.022658,-2.374909 0.055294,-3.562056 H -5.876685 c 0.032628,1.187147 0.042633,2.374552 0.055294,3.562056 0.019507,1.823377 0.024601,3.647005 0.025321,5.470467 -4.238054,-0.249502 -8.469132,-0.614533 -12.678813,-1.177189 -4.055266,-0.612331 -8.09301,-1.349684 -12.06593,-2.378149 -3.095547,-0.80234 -6.208007,-1.589658 -9.209774,-2.701127 -1.950634,-0.791225 -7.647333,-3.754091 -7.787638,-3.917591 z m 6.539652,8.888347 c 0.330806,0.08875 0.659577,0.186851 0.990121,0.275435 4.003704,1.082636 8.074613,1.877077 12.163598,2.5554 5.319009,0.798357 10.683876,1.224746 16.0507,1.531172 1.560051,0.06222 3.1217863,0.09868 4.6839519,0.120406 -0.1891835,0.431029 -0.3849909,0.859211 -0.5782593,1.286227 -2.0849854,4.358218 -4.1497996,8.725811 -6.1846356,13.107727 -2.750411,5.923292 -5.524639,11.835437 -8.293034,17.7503375 -1.985095,-4.1318855 -3.975399,-8.2614385 -5.987748,-12.3801225 -3.087982,-6.243029 -6.290983,-12.428705 -9.587528,-18.564242 -1.059139,-1.909851 -2.136956,-3.808956 -3.257166,-5.68234 z m 79.880396,0.23306 c -0.280309,0.482001 -0.56397,0.96191 -0.840776,1.445907 -1.938629,3.354243 -3.737451,6.786057 -5.513358,10.228316 -2.921627,5.610223 -5.870202,11.2059 -8.742103,16.841866 -1.207616,2.387592 -2.401306,4.782198 -3.597713,7.1752728 -1.327985,-2.7068708 -2.66037,-5.4116318 -3.997172,-8.1142338 -2.741887,-5.560033 -5.477576,-11.126809 -7.9374998,-16.819128 -0.9243734,-2.19303 -1.8047466,-4.403421 -2.7140462,-6.602181 0.1596729,-0.0032 0.3199176,-0.0035 0.4795573,-0.0067 0.9915921,-0.01995 1.9799255,-0.121006 2.968811,-0.196887 2.1071657,-0.161689 4.1176557,-0.367798 6.2213257,-0.572058 5.97554,-0.610757 11.938196,-1.325643 17.871261,-2.264461 1.945842,-0.313812 3.877225,-0.698636 5.801713,-1.115695 z m -39.84769728,12.678813 c 2.41703708,5.310033 4.98231568,10.55047 7.56801348,15.779915 2.8929114,5.808157 5.7490948,11.6348036 8.5457318,17.48988888 C 14.464263,2.1390435 13.763775,3.5432264 13.090629,4.9608927 9.3451343,13.123165 5.6703908,21.31751 1.9657267,29.498413 c -1.01168339,2.191794 -1.96969615,4.40637 -2.90421547,6.630603 -2.19618763,-4.991372 -4.40506903,-9.97759 -6.77426353,-14.890047 -0.1814738,-0.378901 -0.3644261,-0.7571 -0.5462199,-1.135848 0.00863,-0.106641 0.021931,-0.212686 0.026872,-0.319877 H -8.4129679 C -11.336047,13.696691 -14.292646,7.6261452 -17.192794,1.5285441 c 1.005906,-2.06482363 2.005354,-4.1324763 2.996717,-6.2042725 3.295446,-7.0260026 6.6065815,-14.0447876 9.9332433,-21.0560786 1.0844879,-2.277812 2.186434,-4.546726 3.29695642,-6.811471 z"
       sodipodi:nodetypes="ccscccccccccccccccccccccccsccccccccccccccccccccccccccccccccccccccccccccccccccccccccssccccccccccccccccc" /></g></svg>
