<?xml version="1.0" encoding="UTF-8" standalone="no"?>
<!-- Created with Inkscape (http://www.inkscape.org/) -->

<svg
   width="112.09188mm"
   height="106.69735mm"
   viewBox="-60 -60 112.09188 106.69735"
   sodipodi:docname="CD-Label_120x120.svg"
   version="1.1"
   id="svg3"
   xml:space="preserve"
   inkscape:export-filename="diɵ.svg"
   inkscape:export-xdpi="96"
   inkscape:export-ydpi="96"
   xmlns:inkscape="http://www.inkscape.org/namespaces/inkscape"
   xmlns:sodipodi="http://sodipodi.sourceforge.net/DTD/sodipodi-0.dtd"
   xmlns="http://www.w3.org/2000/svg"
   xmlns:svg="http://www.w3.org/2000/svg"
   xmlns:rdf="http://www.w3.org/1999/02/22-rdf-syntax-ns#"
   xmlns:cc="http://creativecommons.org/ns#"
   xmlns:dc="http://purl.org/dc/elements/1.1/"><defs
     id="defs3" /><sodipodi:namedview
     pagecolor="#ffffff"
     bordercolor="#666666"
     borderopacity="1.0"
     inkscape:pageopacity="0.0"
     inkscape:pageshadow="2"
     inkscape:zoom="1"
     inkscape:cx="226.771653543"
     inkscape:cy="226.771653543"
     inkscape:document-units="mm"
     inkscape:current-layer="layer1"
     showgrid="false"
     units="mm"
     showguides="true"
     inkscape:guide-bbox="true"
     inkscape:snap-global="true"
     inkscape:snap-bbox="true"
     inkscape:snap-bbox-midpoints="true"
     inkscape:window-width="850"
     inkscape:window-height="832"
     inkscape:window-x="717"
     inkscape:window-y="28"
     inkscape:window-maximized="0"
     inkscape:bbox-paths="true"
     inkscape:bbox-nodes="true"
     inkscape:snap-bbox-edge-midpoints="true"
     inkscape:snap-grids="true"
     id="namedview1"
     inkscape:showpageshadow="2"
     inkscape:pagecheckerboard="0"
     inkscape:deskcolor="#d1d1d1"><sodipodi:guide
       orientation="1,0"
       position="221.98487,220.57452"
       id="guide2827"
       inkscape:locked="false" /><sodipodi:guide
       orientation="0,1"
       position="221.98487,220.57452"
       id="guide2829"
       inkscape:locked="false" /><inkscape:grid
       type="xygrid"
       id="grid3072"
       empspacing="10"
       visible="false"
       enabled="true"
       snapvisiblegridlinesonly="true"
       units="mm"
       dotted="false"
       spacingx="0.1mm"
       spacingy="0.1mm"
       originx="-4.7867882"
       originy="-7.105509" /><sodipodi:guide
       position="65.222213,83.476955"
       orientation="0,-1"
       id="guide4"
       inkscape:locked="false" /><sodipodi:guide
       position="64.520417,22.994558"
       orientation="0,-1"
       id="guide5"
       inkscape:locked="false" /><sodipodi:guide
       position="85.674552,52.258293"
       orientation="1,0"
       id="guide6"
       inkscape:locked="false" /><sodipodi:guide
       position="25.520614,43.957378"
       orientation="1,0"
       id="guide7"
       inkscape:locked="false" /><sodipodi:guide
       position="65.422726,53.431249"
       orientation="0,-1"
       id="guide8"
       inkscape:locked="false" /><sodipodi:guide
       position="55.798096,37.220403"
       orientation="1,0"
       id="guide9"
       inkscape:locked="false" /><sodipodi:guide
       position="90.38661,98.244167"
       orientation="0,-1"
       id="guide10"
       inkscape:locked="false" /><sodipodi:guide
       position="80.060184,7.6559088"
       orientation="0,-1"
       id="guide11"
       inkscape:locked="false" /><sodipodi:guide
       position="10.18136,54.874886"
       orientation="1,0"
       id="guide12"
       inkscape:locked="false" /><sodipodi:guide
       position="100.91355,48.348442"
       orientation="1,0"
       id="guide13"
       inkscape:locked="false" /><inkscape:page
       x="-3.5035392e-15"
       y="-5.0132788e-15"
       width="112.09187"
       height="106.69736"
       id="page2"
       margin="0"
       bleed="0" /></sodipodi:namedview><metadata
     id="metadata2822"><rdf:RDF><cc:Work
         rdf:about=""><dc:format>image/svg+xml</dc:format><dc:type
           rdf:resource="http://purl.org/dc/dcmitype/StillImage" /><dc:title /></cc:Work></rdf:RDF></metadata><g
     inkscape:label="Layer 1"
     inkscape:groupmode="layer"
     id="Template"
     style="fill:none;stroke:#000000;stroke-width:0.05"
     transform="translate(-4.7867882,-7.1055085)"><path
       id="path54"
       style="fill:#000000;fill-opacity:1;fill-rule:nonzero;stroke:none;stroke-width:0.0132292"
       d="m -4.4194132,-52.894491 c -0.05832,1.335103 -0.1960889,2.664272 -0.3560507,3.990455 -0.4807373,3.414239 -1.3486394,6.755663 -2.2241536,10.085172 -1.297051,5.010195 -2.7656547,9.971115 -4.3769935,14.888497 -0.343855,1.000628 -0.680029,2.003891 -1.031462,3.001884 -0.632421,1.795928 -1.785077,4.987395 -2.497005,6.741191 -1.639398,4.038574 -3.526118,7.9639635 -5.420341,11.8866125 -0.120569,0.2459783 -0.251103,0.4867565 -0.372587,0.732255 -0.836283,-1.5593404 -1.668742,-3.1207351 -2.48357,-4.6917033 -2.798355,-5.3721632 -5.525746,-10.7806612 -8.132836,-16.2486202 -0.90374,-1.891945 -1.884565,-3.779911 -2.499073,-5.790345 l -9.980786,0.393775 c 0.582992,2.199354 1.68008,4.23922 2.666504,6.27817 2.675172,5.476381 5.447491,10.904166 8.278565,16.3013301 2.326325,4.45140933 4.745928,8.8519867 7.184057,13.2426026 -2.453952,4.4675973 -5.011394,8.8783673 -7.644494,13.2431193 -4.261435,6.967255 -8.888015,13.70236 -13.630176,20.348629 -1.744517,2.456564 -7.473449,9.987839 -8.273397,11.011214 l 9.682096,1.283126 c 0.495916,-0.647354 0.98168,-1.302384 1.474846,-1.951819 1.554407,-0.04708 3.109342,-0.07517 4.664831,-0.09043 0.826828,0.0052 1.183362,0.01024 1.775086,0.0186 3.694258,0.05223 7.387748,0.155707 11.080977,0.251664 8.44177,0.28163 16.8865072,0.413979 25.3328207,0.45682 10.4430188,0.105196 20.8851423,-0.01206 31.3226363,-0.329696 5.080907,-0.198061 10.162013,-0.317648 15.246614,-0.340031 0.597719,0.6314 1.193016,1.265112 1.791622,1.895491 l 9.720337,-1.494999 C 54.705102,49.960513 52.520607,47.711059 50.436153,45.369796 46.822127,41.25095 43.345569,37.00986 40.134456,32.56696 36.506664,27.504124 33.077289,22.301863 30.053935,16.851123 28.853669,14.643067 28.061629,13.228183 26.929578,10.973446 26.234839,9.5897158 25.573485,8.1901504 24.923499,6.7850708 25.059663,6.577215 25.195567,6.3691848 25.331742,6.1613363 29.82269,-0.71081358 34.300521,-7.5920098 38.691134,-14.528874 c 2.145498,-3.360571 4.341678,-6.690238 6.40736,-10.100675 0.480165,-0.817674 0.94287,-1.646627 1.410767,-2.470134 L 36.5724,-28.135278 c -0.410736,0.842502 -0.893743,1.654346 -1.351856,2.47375 -2.034164,3.37431 -4.159037,6.693932 -6.256465,10.029362 -2.678282,4.349528 -5.428149,8.653721 -8.198983,12.94443 -2.514958,-6.0773393 -4.872639,-12.216971 -7.044531,-18.426265 -1.94913,-5.602422 -3.816477,-11.237506 -5.3195722,-16.978809 -0.8576045,-3.309582 -1.6714163,-6.632079 -2.2381062,-10.006108 -0.1846712,-1.069928 -0.3401438,-2.145403 -0.5643067,-3.208073 l -0.1720825,0.0047 c 0.04433,-0.436453 0.1020649,-0.871355 0.1421102,-1.308447 z m 5.06635737,22.341789 c 1.05491843,3.383829 2.18488513,6.744642 3.35225013,10.091374 2.327484,6.635552 4.8384202,13.2028063 7.5426917,19.69337146 C 12.58816,1.6863517 13.646908,4.1368604 14.745308,6.5690633 10.692653,12.737762 6.6318807,18.901067 2.5424357,25.045455 l 9.6810633,1.135331 c 2.313368,-3.530877 4.62527,-7.062783 6.937044,-10.594702 0.373949,0.700509 0.738901,1.380747 1.192175,2.227771 3.022986,5.529191 6.45495,10.812375 10.085173,15.957682 3.203062,4.51037 6.688229,8.808282 10.298079,12.996623 0.577737,0.665083 1.179661,1.30817 1.772502,1.95957 -2.103736,0.0271 -4.207196,0.05954 -6.311243,0.05891 -5.237763,0.04986 -10.471585,0.229477 -15.706018,0.410828 -4.59413,0.129802 -9.188068,0.239536 -13.7841716,0.276469 -0.2724924,0.0022 -0.387985,0.0033 -0.8175212,0.0041 -7.6217043,-0.02785 -15.2431818,-0.127306 -22.8606202,-0.39119 -4.755407,-0.142521 -9.515339,-0.32816 -14.273547,-0.351917 -3.480455,-0.01738 -6.961236,-0.01746 -10.44174,-0.02067 1.480101,-1.986536 2.943463,-3.985447 4.373376,-6.008935 4.746063,-6.692183 9.357228,-13.485813 13.615707,-20.501074 1.037398,-1.732294 2.059796,-3.473094 3.073714,-5.21932 1.696285,3.02546 3.326356,6.086488 4.943884,9.15448 l 9.7032838,-0.948779 c -1.6945371,-3.177984 -3.3964146,-6.351997 -5.1748778,-9.484176 -1.458069,-2.612595 -2.916003,-5.22585 -4.371826,-7.8398315 1.658187,-3.0710784 3.278698,-6.1626008 4.811076,-9.3002075 1.9169057,-3.9760154 3.83546,-7.9577014 5.5030229,-12.047327 1.3163444,-3.228279 2.429666,-6.540242 3.5816935,-9.828857 0.792846,-2.403494 1.55066199,-4.818298 2.27427977,-7.242969 z M -34.250667,51.733748 c -1.005837,0.0023 -2.011521,0.007 -3.017387,0.0052 0.101611,-9.87e-4 0.203285,-0.0021 0.304891,-0.0031 0.9042,-7.94e-4 3.616694,-0.0041 2.712496,-0.0021 z"
       sodipodi:nodetypes="ccccsscccccccccccccccscccccccccscccccccccccccccccccccccccccccsccscccccccccscccccc" /></g></svg>
