<?xml version="1.0" encoding="UTF-8" standalone="no"?>
<!-- Created with Inkscape (http://www.inkscape.org/) -->

<svg
   width="112.23005mm"
   height="104.27407mm"
   viewBox="-60 -60 112.23005 104.27407"
   sodipodi:docname="CD-Label_120x120.svg"
   version="1.1"
   id="svg3"
   xml:space="preserve"
   inkscape:export-filename="diɵ.svg"
   inkscape:export-xdpi="96"
   inkscape:export-ydpi="96"
   xmlns:inkscape="http://www.inkscape.org/namespaces/inkscape"
   xmlns:sodipodi="http://sodipodi.sourceforge.net/DTD/sodipodi-0.dtd"
   xmlns="http://www.w3.org/2000/svg"
   xmlns:svg="http://www.w3.org/2000/svg"
   xmlns:rdf="http://www.w3.org/1999/02/22-rdf-syntax-ns#"
   xmlns:cc="http://creativecommons.org/ns#"
   xmlns:dc="http://purl.org/dc/elements/1.1/"><defs
     id="defs3" /><sodipodi:namedview
     pagecolor="#ffffff"
     bordercolor="#666666"
     borderopacity="1.0"
     inkscape:pageopacity="0.0"
     inkscape:pageshadow="2"
     inkscape:zoom="0.5"
     inkscape:cx="280"
     inkscape:cy="481"
     inkscape:document-units="mm"
     inkscape:current-layer="Template"
     showgrid="false"
     units="mm"
     showguides="true"
     inkscape:guide-bbox="true"
     inkscape:snap-global="true"
     inkscape:snap-bbox="true"
     inkscape:snap-bbox-midpoints="true"
     inkscape:window-width="1920"
     inkscape:window-height="991"
     inkscape:window-x="3831"
     inkscape:window-y="-9"
     inkscape:window-maximized="1"
     inkscape:bbox-paths="true"
     inkscape:bbox-nodes="true"
     inkscape:snap-bbox-edge-midpoints="true"
     inkscape:snap-grids="true"
     id="namedview1"
     inkscape:showpageshadow="2"
     inkscape:pagecheckerboard="0"
     inkscape:deskcolor="#d1d1d1"><sodipodi:guide
       orientation="1,0"
       position="221.92085,218.62806"
       id="guide2827"
       inkscape:locked="false" /><sodipodi:guide
       orientation="0,1"
       position="221.92085,218.62806"
       id="guide2829"
       inkscape:locked="false" /><inkscape:grid
       type="xygrid"
       id="grid3072"
       empspacing="10"
       visible="false"
       enabled="true"
       snapvisiblegridlinesonly="true"
       units="mm"
       dotted="false"
       spacingx="0.1mm"
       spacingy="0.1mm"
       originx="-4.8507974"
       originy="-7.5823341" /><sodipodi:guide
       position="65.158202,81.530492"
       orientation="0,-1"
       id="guide4"
       inkscape:locked="false" /><sodipodi:guide
       position="64.456406,21.048096"
       orientation="0,-1"
       id="guide5"
       inkscape:locked="false" /><sodipodi:guide
       position="85.610541,50.311831"
       orientation="1,0"
       id="guide6"
       inkscape:locked="false" /><sodipodi:guide
       position="25.456604,42.010916"
       orientation="1,0"
       id="guide7"
       inkscape:locked="false" /><sodipodi:guide
       position="65.358715,51.484787"
       orientation="0,-1"
       id="guide8"
       inkscape:locked="false" /><sodipodi:guide
       position="55.734086,35.273941"
       orientation="1,0"
       id="guide9"
       inkscape:locked="false" /><sodipodi:guide
       position="90.322599,96.297699"
       orientation="0,-1"
       id="guide10"
       inkscape:locked="false" /><sodipodi:guide
       position="79.996173,5.7094475"
       orientation="0,-1"
       id="guide11"
       inkscape:locked="false" /><sodipodi:guide
       position="10.117351,52.928424"
       orientation="1,0"
       id="guide12"
       inkscape:locked="false" /><sodipodi:guide
       position="100.84954,46.40198"
       orientation="1,0"
       id="guide13"
       inkscape:locked="false" /><inkscape:page
       x="-3.4390522e-15"
       y="0"
       width="112.23004"
       height="104.27407"
       id="page2"
       margin="0"
       bleed="0" /></sodipodi:namedview><metadata
     id="metadata2822"><rdf:RDF><cc:Work
         rdf:about=""><dc:format>image/svg+xml</dc:format><dc:type
           rdf:resource="http://purl.org/dc/dcmitype/StillImage" /><dc:title /></cc:Work></rdf:RDF></metadata><g
     inkscape:label="Layer 1"
     inkscape:groupmode="layer"
     id="Template"
     style="fill:none;stroke:#000000;stroke-width:0.05"
     transform="translate(-4.8507973,-7.582334)"><path
       style="fill:#000000;fill-opacity:1;fill-rule:nonzero;stroke:none;stroke-width:0.0116858"
       id="path89"
       d="m -55.149203,-29.611812 c 0.974372,1.042773 1.849841,2.136743 2.72477,3.231217 2.339645,2.874171 4.649939,5.762785 6.973961,8.644661 3.414443,4.074102 6.52686,8.2914763 9.526334,12.5575167 3.315262,4.86523853 6.72444,9.6908602 9.984627,14.5787998 3.93346,5.9009915 7.188333,12.0514275 10.435342,18.1947545 3.676623,7.086462 7.170438,14.228865 10.8961682,21.29991 0.5286322,0.987117 1.0572644,1.974233 1.5858939,2.96135 0,0 9.7472314,-0.607985 9.7472314,-0.607985 v 0 C 6.1893988,50.264922 5.6536705,49.281434 5.1179421,48.297944 1.3463676,41.241933 -2.1438199,34.099225 -5.7911566,27.004028 -9.0253995,20.815815 -12.265789,14.619283 -16.188363,8.6716013 c -3.235352,-4.9078164 -6.654975,-9.7384625 -9.968601,-14.6141521 -2.991072,-4.2970632 -6.078153,-8.5551702 -9.498522,-12.6554532 -2.315918,-2.872286 -4.588035,-5.765692 -6.90265,-8.638584 -0.868159,-1.105746 -1.690018,-2.240572 -2.668209,-3.289974 z"
       inkscape:export-filename="ʗsɵ.svg"
       inkscape:export-xdpi="96"
       inkscape:export-ydpi="96" /><path
       style="fill:#000000;fill-opacity:1;fill-rule:nonzero;stroke:none;stroke-width:0.0117129"
       id="path90"
       d="m 47.174719,-30.035018 c -0.798705,0.672516 -1.450409,1.45025 -2.114494,2.205731 -1.454891,1.787314 -2.773122,3.640407 -4.152313,5.463868 -2.306338,2.985026 -4.51952,6.009549 -6.647132,9.074581 -2.581103,3.7577104 -5.078783,7.5496248 -7.521511,11.363576 -2.874693,4.6139789 -5.708502,9.243611 -8.560216,13.86637 -3.008836,4.886597 -5.889207,9.819805 -8.6521921,14.794572 -2.6959481,4.901509 -5.1690667,9.874814 -7.6262653,14.851949 -1.49875872,2.945927 -2.88938489,5.923204 -4.2391753,8.912598 0,0 9.8248628,0.524424 9.8248628,0.524424 v 0 c 1.3409295,-2.97454 2.7260149,-5.936226 4.2097509,-8.869193 2.445419,-4.958537 4.911373,-9.912238 7.618262,-14.787657 2.757823,-4.954697 5.628362,-9.86972 8.637558,-14.734022 2.854351,-4.616653 5.687586,-9.2414877 8.588833,-13.8402043 2.44589,-3.7972237 4.950089,-7.5711077 7.538042,-11.3101877 2.132761,-3.047935 4.377418,-6.044081 6.678888,-9.015647 1.362419,-1.793249 2.663851,-3.620311 4.182118,-5.336739 0.684453,-0.73861 1.413684,-1.44768 2.141101,-2.159062 z" /><path
       style="fill:#000000;fill-opacity:1;fill-rule:nonzero;stroke:none;stroke-width:0.011948"
       id="path91"
       d="m -3.2014335,-51.797891 c 0.6263269,1.66555 1.4782244,3.266584 2.33326776,4.862378 2.09421674,3.904467 4.46215814,7.705323 6.83272424,11.501413 3.1825909,5.056335 6.1863815,10.184916 9.2013435,15.30848 3.304434,5.680431 6.677366,11.3339521 10.052576,16.9865427 3.264799,5.5928806 6.591297,11.160339 10.02511,16.6854393 2.974816,4.723422 5.952074,9.445588 8.8607,14.196418 0.444045,0.726579 0.888092,1.453161 1.332137,2.17974 0,0 9.796709,-0.742949 9.796709,-0.742949 v 0 C 54.786977,28.453462 54.340821,27.727355 53.894662,27.001247 50.985021,22.243653 48.005715,17.515296 45.005157,12.795467 41.562005,7.2812481 38.213229,1.7298865 34.965852,-3.8630258 31.582578,-9.5068693 28.231309,-15.163412 24.930434,-20.839676 21.916706,-25.973099 18.915296,-31.111902 15.75701,-36.187665 13.413823,-39.954918 11.062685,-43.722449 8.9957733,-47.597738 8.1590735,-49.171709 7.2416864,-50.738585 6.7635684,-52.417666 Z" /><path
       style="fill:#000000;fill-opacity:1;fill-rule:nonzero;stroke:none;stroke-width:0.011948"
       id="path92"
       d="m -5.5199402,-52.268657 c -0.3819366,0.859006 -0.8823484,1.688551 -1.3406967,2.523472 -1.7215617,3.071725 -3.6676411,6.055174 -5.5520751,9.061586 -3.180865,4.952136 -5.896017,10.082685 -8.591751,15.218027 -3.287588,6.297047 -6.801553,12.512286 -10.272008,18.7428865 -3.751605,6.78067164 -7.490499,13.5660132 -11.240249,20.3473665 -2.642389,4.831077 -5.485546,9.584235 -8.394522,14.311227 -1.04349,1.665408 -2.080963,3.333232 -3.129766,4.996419 0,0 9.840517,0.760742 9.840517,0.760742 v 0 c 1.039252,-1.669432 2.07559,-3.340057 3.104141,-5.013898 2.888314,-4.749037 5.688885,-9.53226 8.315095,-14.382267 3.723654,-6.7872317 7.461351,-13.56933827 11.228525,-20.3405807 3.485515,-6.2396373 7.012149,-12.4648053 10.307709,-18.7735693 2.7033672,-5.100673 5.4466915,-10.188999 8.6341269,-15.104696 1.92043839,-3.030068 3.9104649,-6.03356 5.6557121,-9.134719 0.5277987,-0.941021 1.1398355,-1.874571 1.4217068,-2.890238 z" /><circle
       id="path94"
       style="fill:#000000;stroke:#000000;stroke-width:0.0132292"
       cx="-18.466316"
       cy="-43.162022"
       r="0.12460105" /><path
       style="fill:#000000;fill-opacity:1;fill-rule:nonzero;stroke:none;stroke-width:0.0132292"
       id="path97"
       d="m -52.818173,-28.178081 c 0.607344,0.534723 1.37926,0.630541 2.155602,0.686699 4.475051,0.215874 8.954956,0.06584 13.428534,-0.08455 3.855218,0.08443 -0.04103,-0.0078 -7.559763,0.02804 -0.346314,0.0016 0.692479,0.01543 1.038601,0.02709 1.070983,0.03609 2.131851,0.114676 3.198177,0.217998 2.466614,0.258321 4.82237,1.04915 7.173801,1.793319 2.68242,0.816518 5.2627,1.911771 7.786883,3.123632 2.34751,1.189349 4.61764,2.522902 6.813367,3.971755 2.168099,1.440386 4.132858,3.145867 6.004679,4.94688 1.865958,1.876986 3.5443321,3.9302004 5.1837909,6.0046475 2.2392534,2.9163856 4.3164125,5.9514131 6.4905175,8.9160904 2.1482817,2.9454396 4.4105009,5.8020426 6.7845675,8.5679811 2.1535284,2.464641 4.4577661,4.789831 6.8014191,7.072124 1.938922,1.897285 3.903226,3.766918 5.960827,5.535332 1.733319,1.516028 3.684918,2.733159 5.685356,3.858321 1.969053,1.063358 4.09122,1.789441 6.204833,2.502932 1.829173,0.616032 3.701055,1.084903 5.580682,1.516081 1.897266,0.414824 3.770254,0.928727 5.654765,1.395759 0.270698,0.06418 0.541393,0.128355 0.812088,0.192532 0,0 9.596522,-2.647677 9.596522,-2.647677 v 0 c -0.27083,-0.05964 -0.54166,-0.119283 -0.81249,-0.178922 -1.897619,-0.423553 -3.768826,-0.944555 -5.658057,-1.402205 -1.852856,-0.433885 -3.722465,-0.801047 -5.545873,-1.35333 -2.07011,-0.633243 -4.127235,-1.31772 -6.122855,-2.160095 C 31.872714,23.369048 29.947614,22.27955 28.228238,20.901637 26.150539,19.20733 24.18133,17.392376 22.272321,15.510106 19.946012,13.272824 17.640459,11.011962 15.483928,8.6081958 13.102424,5.9071916 10.846595,3.1030925 8.714426,0.20043076 6.5217684,-2.7651912 4.4204158,-5.7938236 2.2420695,-8.76955 c -1.64937278,-2.159087 -3.3716171,-4.265438 -5.2143262,-6.263315 -1.8909057,-1.915117 -3.8747091,-3.738289 -6.0700576,-5.304115 -2.2088477,-1.540428 -4.4956857,-2.951715 -6.8708087,-4.223895 -2.53211,-1.330963 -5.144706,-2.50979 -7.857781,-3.425727 -2.395233,-0.775018 -4.775327,-1.654686 -7.252022,-2.130918 -5.169867,-0.90338 -10.494101,-0.496461 -15.703901,-0.464341 -0.295081,0.0122 -1.180816,0.05006 -1.499015,0.0586 -0.220104,0.0059 -0.880641,0.0104 -0.660459,0.01085 15.478061,0.03153 11.014177,0.0063 7.729421,0.0039 -0.644586,0.0034 -1.277247,0.05959 -1.910367,0.135274 z" /><path
       style="fill:#000000;fill-opacity:1;fill-rule:nonzero;stroke:none;stroke-width:0.0130413"
       id="path98"
       d="m 54.260602,-29.741754 c -4.109336,-0.05553 -8.218884,-0.297884 -12.279429,0.295117 -2.530747,0.361259 -4.972282,1.108339 -7.379147,1.926602 -3.567557,1.253515 -7.037948,2.738815 -10.491835,4.258103 -3.837559,1.684048 -7.514862,3.673241 -11.086298,5.834073 -3.3262489,1.997866 -6.4269618,4.310706 -9.3964334,6.776298 -2.67644297,2.1444503 -4.996852,4.6460851 -7.2259666,7.2164282 -1.9485451,2.2842714 -3.7663834,4.6707643 -5.534435,7.0886725 -1.611524,2.2362075 -3.312742,4.4095564 -5.040381,6.5617343 -1.633093,2.000017 -3.369149,3.917578 -5.099643,5.837849 -1.626288,1.868446 -3.445986,3.554947 -5.324895,5.178651 -1.881347,1.673227 -3.963078,3.089874 -6.115347,4.408345 -2.032333,1.334395 -4.317631,2.198485 -6.583865,3.07197 -2.598225,0.935287 -5.279046,1.650811 -7.955394,2.343068 -1.691193,0.421161 -3.415454,0.665831 -5.14173,0.897953 0,0 9.50724,2.683125 9.50724,2.683125 v 0 c 1.751952,-0.30512 3.503937,-0.615554 5.215436,-1.10053 2.709376,-0.750462 5.433632,-1.482013 8.028001,-2.564179 2.322917,-0.955411 4.593646,-2.014538 6.66672,-3.427046 2.173713,-1.422187 4.249716,-2.973589 6.169268,-4.711326 1.891559,-1.702121 3.704198,-3.482364 5.3659377,-5.400443 1.7419716,-1.950456 3.4808662,-3.905533 5.1063048,-5.949971 C -2.6099787,9.3025849 -0.91021597,7.1031997 0.71353192,4.8500966 2.4728444,2.4867652 4.2620521,0.14086161 6.2139151,-2.0772882 c 2.2071647,-2.4737886 4.5368179,-4.8401077 7.1633499,-6.9022486 2.960526,-2.3628482 6.038988,-4.5805042 9.328896,-6.4967952 3.562803,-2.073151 7.228901,-3.971595 11.033803,-5.59491 3.434664,-1.478592 6.895642,-2.910694 10.465299,-4.057714 2.390826,-0.70975 4.817809,-1.330756 7.317574,-1.539578 0.908283,-0.0715 0.487161,-0.04733 1.315714,-0.08132 0.166505,-0.0068 0.666176,-0.02045 0.499523,-0.02029 -15.484242,0.01383 -11.780319,0.02003 -8.581604,0.02938 z" /></g></svg>
