<?xml version="1.0" encoding="UTF-8" standalone="no"?>
<!-- Created with Inkscape (http://www.inkscape.org/) -->

<svg
   width="112.23005mm"
   height="108.00452mm"
   viewBox="-60 -60 112.23005 108.00452"
   sodipodi:docname="CD-Label_120x120.svg"
   version="1.1"
   id="svg3"
   xml:space="preserve"
   inkscape:export-filename="diɵ.svg"
   inkscape:export-xdpi="96"
   inkscape:export-ydpi="96"
   xmlns:inkscape="http://www.inkscape.org/namespaces/inkscape"
   xmlns:sodipodi="http://sodipodi.sourceforge.net/DTD/sodipodi-0.dtd"
   xmlns="http://www.w3.org/2000/svg"
   xmlns:svg="http://www.w3.org/2000/svg"
   xmlns:rdf="http://www.w3.org/1999/02/22-rdf-syntax-ns#"
   xmlns:cc="http://creativecommons.org/ns#"
   xmlns:dc="http://purl.org/dc/elements/1.1/"><defs
     id="defs3" /><sodipodi:namedview
     pagecolor="#ffffff"
     bordercolor="#666666"
     borderopacity="1.0"
     inkscape:pageopacity="0.0"
     inkscape:pageshadow="2"
     inkscape:zoom="0.5"
     inkscape:cx="280"
     inkscape:cy="481"
     inkscape:document-units="mm"
     inkscape:current-layer="Template"
     showgrid="false"
     units="mm"
     showguides="true"
     inkscape:guide-bbox="true"
     inkscape:snap-global="true"
     inkscape:snap-bbox="true"
     inkscape:snap-bbox-midpoints="true"
     inkscape:window-width="1920"
     inkscape:window-height="991"
     inkscape:window-x="3831"
     inkscape:window-y="-9"
     inkscape:window-maximized="1"
     inkscape:bbox-paths="true"
     inkscape:bbox-nodes="true"
     inkscape:snap-bbox-edge-midpoints="true"
     inkscape:snap-grids="true"
     id="namedview1"
     inkscape:showpageshadow="2"
     inkscape:pagecheckerboard="0"
     inkscape:deskcolor="#d1d1d1"><sodipodi:guide
       orientation="1,0"
       position="221.92086,219.92193"
       id="guide2827"
       inkscape:locked="false" /><sodipodi:guide
       orientation="0,1"
       position="221.92086,219.92193"
       id="guide2829"
       inkscape:locked="false" /><inkscape:grid
       type="xygrid"
       id="grid3072"
       empspacing="10"
       visible="false"
       enabled="true"
       snapvisiblegridlinesonly="true"
       units="mm"
       dotted="false"
       spacingx="0.1mm"
       spacingy="0.1mm"
       originx="-4.8507974"
       originy="-5.145771" /><sodipodi:guide
       position="65.158203,82.824375"
       orientation="0,-1"
       id="guide4"
       inkscape:locked="false" /><sodipodi:guide
       position="64.456407,22.341979"
       orientation="0,-1"
       id="guide5"
       inkscape:locked="false" /><sodipodi:guide
       position="85.610541,51.605714"
       orientation="1,0"
       id="guide6"
       inkscape:locked="false" /><sodipodi:guide
       position="25.456604,43.304799"
       orientation="1,0"
       id="guide7"
       inkscape:locked="false" /><sodipodi:guide
       position="65.358716,52.77867"
       orientation="0,-1"
       id="guide8"
       inkscape:locked="false" /><sodipodi:guide
       position="55.734086,36.567824"
       orientation="1,0"
       id="guide9"
       inkscape:locked="false" /><sodipodi:guide
       position="90.322599,97.591585"
       orientation="0,-1"
       id="guide10"
       inkscape:locked="false" /><sodipodi:guide
       position="79.996173,7.0033304"
       orientation="0,-1"
       id="guide11"
       inkscape:locked="false" /><sodipodi:guide
       position="10.117351,54.222307"
       orientation="1,0"
       id="guide12"
       inkscape:locked="false" /><sodipodi:guide
       position="100.84954,47.695863"
       orientation="1,0"
       id="guide13"
       inkscape:locked="false" /><inkscape:page
       x="-3.4390522e-15"
       y="0"
       width="112.23004"
       height="108.00452"
       id="page2"
       margin="0"
       bleed="0" /></sodipodi:namedview><metadata
     id="metadata2822"><rdf:RDF><cc:Work
         rdf:about=""><dc:format>image/svg+xml</dc:format><dc:type
           rdf:resource="http://purl.org/dc/dcmitype/StillImage" /><dc:title /></cc:Work></rdf:RDF></metadata><g
     inkscape:label="Layer 1"
     inkscape:groupmode="layer"
     id="Template"
     style="fill:none;stroke:#000000;stroke-width:0.05"
     transform="translate(-4.8507973,-5.145771)"><path
       style="fill:#000000;fill-opacity:1;fill-rule:nonzero;stroke:none;stroke-width:0.0118439"
       id="path89"
       d="m -55.149203,-52.785879 c 0.974372,1.071191 1.849841,2.194973 2.72477,3.319273 2.339645,2.952497 4.649939,5.91983 6.973961,8.880242 3.414443,4.185127 6.52686,8.517431 9.526334,12.899728 3.315262,4.997824 6.72444,9.954951 9.984627,14.976095 3.93346,6.0618025 7.188333,12.37984737 10.435342,18.6905901 3.676623,7.2795789 7.170438,14.6166229 10.8961682,21.8803649 0.5286322,1.014018 1.0572644,2.028034 1.5858939,3.042052 0,0 9.7472314,-0.624553 9.7472314,-0.624553 v 0 C 6.1893988,29.267621 5.6536705,28.257331 5.1179421,27.247039 1.3463676,19.998741 -2.1438199,12.661383 -5.7911566,5.3728314 -9.0253995,-0.98402062 -12.265789,-7.3494176 -16.188363,-13.459183 c -3.235352,-5.041562 -6.654975,-10.00385 -9.968601,-15.01241 -2.991072,-4.414165 -6.078153,-8.788312 -9.498522,-13.000334 -2.315918,-2.950561 -4.588035,-5.922817 -6.90265,-8.873999 -0.868159,-1.135879 -1.690018,-2.301631 -2.668209,-3.379631 z"
       inkscape:export-filename="ʗsɵ.svg"
       inkscape:export-xdpi="96"
       inkscape:export-ydpi="96" /><path
       style="fill:#000000;fill-opacity:1;fill-rule:nonzero;stroke:none;stroke-width:0.0118439"
       id="path90"
       d="m 47.174719,-52.836243 c -0.798705,0.687653 -1.450409,1.482894 -2.114494,2.25538 -1.454891,1.827547 -2.773122,3.722351 -4.152313,5.586858 -2.306338,3.052218 -4.51952,6.144822 -6.647132,9.278846 -2.581103,3.842295 -5.078783,7.719564 -7.521511,11.619365 -2.874693,4.717838 -5.708502,9.451681 -8.560216,14.1784959 C 15.170217,-4.9207063 12.289846,0.12354717 9.5268609,5.2102938 6.8309128,10.222133 4.3577942,15.307385 1.9005956,20.396554 c -1.49875872,3.012239 -2.88938489,6.056532 -4.2391753,9.113217 0,0 9.8248628,0.536229 9.8248628,0.536229 v 0 c 1.3409295,-3.041497 2.7260149,-6.069849 4.2097509,-9.068835 2.445419,-5.070152 4.911373,-10.135358 7.618262,-15.1205216 2.757823,-5.06622564 5.628362,-10.0918826 8.637558,-15.0656787 2.854351,-4.7205717 5.687586,-9.4495097 8.588833,-14.1517407 2.44589,-3.882698 4.950089,-7.74153 7.538042,-11.564776 2.132761,-3.116542 4.377418,-6.180131 6.678888,-9.218585 1.362419,-1.833615 2.663851,-3.701803 4.182118,-5.456866 0.684453,-0.755237 1.413684,-1.480268 2.141101,-2.207663 z" /><path
       style="fill:#000000;fill-opacity:1;fill-rule:nonzero;stroke:none;stroke-width:0.0117385"
       id="path91"
       d="m -3.2014335,-29.368795 c 0.6263269,1.60765 1.4782244,3.153029 2.33326776,4.693349 2.09421674,3.768738 4.46215814,7.437468 6.83272424,11.101597 3.1825909,4.8805638 6.1863815,9.8308623 9.2013435,14.7763195 3.304434,5.4829654 6.677366,10.9399565 10.052576,16.3960485 3.264799,5.398459 6.591297,10.772379 10.02511,16.105413 2.974816,4.559224 5.952074,9.117237 8.8607,13.702916 0.444045,0.701322 0.888092,1.402646 1.332137,2.103967 0,0 9.796709,-0.717123 9.796709,-0.717123 v 0 C 54.786977,48.092825 54.340821,47.39196 53.894662,46.691092 50.985021,42.098884 48.005715,37.534897 45.005157,32.97914 41.562005,27.656609 38.213229,22.298226 34.965852,16.899737 31.582578,11.452087 28.231309,5.9921802 24.930434,0.51323689 21.916706,-4.441736 18.915296,-9.4019022 15.75701,-14.301219 13.413823,-17.937513 11.062685,-21.574075 8.9957733,-25.31465 8.1590735,-26.833906 7.2416864,-28.346314 6.7635684,-29.967026 Z" /><path
       style="fill:#000000;fill-opacity:1;fill-rule:nonzero;stroke:none;stroke-width:0.0117385"
       id="path92"
       d="m -5.5199402,-29.823197 c -0.3819366,0.829145 -0.8823484,1.629853 -1.3406967,2.435751 -1.7215617,2.964944 -3.6676411,5.844681 -5.5520751,8.746583 -3.180865,4.779988 -5.896017,9.7321859 -8.591751,14.6890106 -3.287588,6.0781468 -6.801553,12.0773285 -10.272008,18.0913384 -3.751605,6.544959 -7.490499,13.094426 -11.240249,19.640042 -2.642389,4.663137 -5.485546,9.251064 -8.394522,13.813735 -1.04349,1.607514 -2.080963,3.217361 -3.129766,4.822731 0,0 9.840517,0.734297 9.840517,0.734297 v 0 c 1.039252,-1.611399 2.07559,-3.223949 3.104141,-4.839603 2.888314,-4.583949 5.688885,-9.200896 8.315095,-13.882305 3.723654,-6.551291 7.461351,-13.097635 11.228525,-19.633492 3.485515,-6.0227323 7.012149,-12.0314988 10.307709,-18.1209548 2.7033672,-4.9233606 5.4466915,-9.8348042 8.6341269,-14.5796202 1.92043839,-2.924735 3.9104649,-5.823818 5.6557121,-8.817173 0.5277987,-0.90831 1.1398355,-1.809407 1.4217068,-2.789766 z" /><circle
       id="path94"
       style="fill:#000000;stroke:#000000;stroke-width:0.0132292"
       cx="-18.466316"
       cy="-43.162022"
       r="0.12460105" /><path
       style="fill:#000000;fill-opacity:1;fill-rule:nonzero;stroke:none;stroke-width:0.0132292"
       id="path98"
       d="m -24.249395,48.901041 c 0.665226,-1.005671 1.457865,-1.904249 2.29202,-2.771381 1.716264,-1.66883 3.410979,-3.358406 5.205394,-4.943747 2.149821,-1.884138 4.36903,-3.669335 6.7866546,-5.197023 2.6021109,-1.679877 5.3542802,-3.090828 8.1985219,-4.307604 1.52645266,-0.652127 3.1285312,-1.224145 4.8016927,-1.334741 0.3960204,-0.02617 1.5873385,0.01405 1.1904927,0.01961 -2.7522726,0.03867 -5.5048335,0.05312 -8.2572489,0.07968 1.5502361,0.03508 3.12112021,0.158684 4.6249219,0.562824 0.9503119,0.255395 1.3997755,0.467609 2.3156862,0.834591 2.3719816,1.009354 4.5398901,2.407343 6.63752,3.889881 2.0842949,1.446794 4.0867489,2.993099 5.9881139,4.672147 1.918139,1.755283 3.902289,3.436906 5.771504,5.244804 1.201462,1.234601 2.302251,2.561568 3.43504,3.858262 0,0 9.831874,-1.429835 9.831874,-1.429835 v 0 C 33.40626,46.764835 32.265687,45.430501 31.113246,44.104717 29.295556,42.19941 27.272272,40.519726 25.324171,38.751225 23.417763,36.995794 21.45356,35.314901 19.298873,33.865791 17.152991,32.286906 14.973404,30.7447 12.574721,29.564616 11.414549,29.012828 10.248782,28.41824 9.0131829,28.047956 7.8481484,27.698817 6.6256676,27.581951 5.4274993,27.411196 c -8.4657616,0.02711 -10.4717769,-0.924483 -16.8547833,2.01063 -2.86027,1.344401 -5.634509,2.864932 -8.261869,4.626377 -2.406195,1.671452 -4.674616,3.523591 -6.85007,5.486186 -1.797775,1.661382 -3.573132,3.352323 -5.261515,5.125201 -0.862608,0.986787 -1.68856,2.008614 -2.375747,3.127751 z" /><path
       style="fill:#000000;fill-opacity:1;fill-rule:nonzero;stroke:none;stroke-width:0.0132292"
       id="path99"
       d="m -5.8941166,-54.854229 c -0.3806534,1.017996 -1.2081219,1.86987 -1.8970466,2.690673 -2.5959778,3.11622 -5.7314038,5.688728 -8.8177818,8.293085 -4.839941,4.164517 -10.101673,7.787272 -15.252356,11.546541 -3.923421,2.860233 -7.748303,5.868217 -11.847468,8.479634 -2.019278,1.286401 -3.779345,2.256689 -5.854893,3.439903 -3.731366,2.001083 -1.870754,1.037542 -5.580159,2.893867 0,0 9.596507,2.144551 9.596507,2.144551 v 0 c 3.715158,-1.929095 1.851844,-0.93028 5.588327,-2.999459 2.402429,-1.412727 3.529607,-2.035572 5.873781,-3.578297 4.07076,-2.679007 7.904311,-5.695357 11.855283,-8.542716 5.206736,-3.764104 10.461247,-7.475713 15.3298341,-11.679566 3.1726505,-2.68764 6.33918378,-5.409916 8.960813,-8.659132 0.8449654,-1.102349 1.7626118,-2.233946 2.0316243,-3.634623 z" /><path
       style="fill:#000000;fill-opacity:1;fill-rule:nonzero;stroke:none;stroke-width:0.0132292"
       id="path100"
       d="m -2.8573376,-54.058958 c 0.2168631,0.82443 0.5788448,1.606327 0.9568153,2.367239 1.70514169,2.840456 3.9373016,5.314618 6.1630851,7.750251 3.971827,4.189398 8.3328142,7.985494 12.7251192,11.722842 3.234732,2.717213 6.566633,5.327758 10.111512,7.631864 2.430558,1.579816 3.533,2.170385 6.056011,3.625778 3.96875,2.275457 8.131694,4.168598 12.330801,5.96954 0,0 9.559565,-2.287288 9.559565,-2.287288 v 0 c -4.189537,-1.711598 -8.343514,-3.521671 -12.29903,-5.733556 -2.414431,-1.354756 -3.677827,-2.023422 -6.010491,-3.489253 -3.533177,-2.22023 -6.859596,-4.747358 -10.06339,-7.416628 -4.357521,-3.666024 -8.673034,-7.400275 -12.640879,-11.491475 -2.152118,-2.303536 -4.2639932,-4.657369 -6.0234671,-7.282296 -0.3633893,-0.583158 -0.663059,-1.215661 -0.8822928,-1.856552 z" /></g></svg>
