<?xml version="1.0" encoding="UTF-8" standalone="no"?>
<!-- Created with Inkscape (http://www.inkscape.org/) -->

<svg
   width="113.3323mm"
   height="106.87585mm"
   viewBox="-60 -60 113.3323 106.87585"
   sodipodi:docname="CD-Label_120x120.svg"
   version="1.1"
   id="svg3"
   xml:space="preserve"
   inkscape:export-filename="diɵ.svg"
   inkscape:export-xdpi="96"
   inkscape:export-ydpi="96"
   xmlns:inkscape="http://www.inkscape.org/namespaces/inkscape"
   xmlns:sodipodi="http://sodipodi.sourceforge.net/DTD/sodipodi-0.dtd"
   xmlns="http://www.w3.org/2000/svg"
   xmlns:svg="http://www.w3.org/2000/svg"
   xmlns:rdf="http://www.w3.org/1999/02/22-rdf-syntax-ns#"
   xmlns:cc="http://creativecommons.org/ns#"
   xmlns:dc="http://purl.org/dc/elements/1.1/"><defs
     id="defs3" /><sodipodi:namedview
     pagecolor="#ffffff"
     bordercolor="#666666"
     borderopacity="1.0"
     inkscape:pageopacity="0.0"
     inkscape:pageshadow="2"
     inkscape:zoom="0.5"
     inkscape:cx="280"
     inkscape:cy="481"
     inkscape:document-units="mm"
     inkscape:current-layer="Template"
     showgrid="false"
     units="mm"
     showguides="true"
     inkscape:guide-bbox="true"
     inkscape:snap-global="true"
     inkscape:snap-bbox="true"
     inkscape:snap-bbox-midpoints="true"
     inkscape:window-width="1920"
     inkscape:window-height="991"
     inkscape:window-x="3831"
     inkscape:window-y="-9"
     inkscape:window-maximized="1"
     inkscape:bbox-paths="true"
     inkscape:bbox-nodes="true"
     inkscape:snap-bbox-edge-midpoints="true"
     inkscape:snap-grids="true"
     id="namedview1"
     inkscape:showpageshadow="2"
     inkscape:pagecheckerboard="0"
     inkscape:deskcolor="#d1d1d1"><sodipodi:guide
       orientation="1,0"
       position="221.92086,219.92194"
       id="guide2827"
       inkscape:locked="false" /><sodipodi:guide
       orientation="0,1"
       position="221.92086,219.92194"
       id="guide2829"
       inkscape:locked="false" /><inkscape:grid
       type="xygrid"
       id="grid3072"
       empspacing="10"
       visible="false"
       enabled="true"
       snapvisiblegridlinesonly="true"
       units="mm"
       dotted="false"
       spacingx="0.1mm"
       spacingy="0.1mm"
       originx="-4.8507974"
       originy="-6.2744426" /><sodipodi:guide
       position="65.158203,82.824377"
       orientation="0,-1"
       id="guide4"
       inkscape:locked="false" /><sodipodi:guide
       position="64.456407,22.341981"
       orientation="0,-1"
       id="guide5"
       inkscape:locked="false" /><sodipodi:guide
       position="85.610541,51.605716"
       orientation="1,0"
       id="guide6"
       inkscape:locked="false" /><sodipodi:guide
       position="25.456604,43.304801"
       orientation="1,0"
       id="guide7"
       inkscape:locked="false" /><sodipodi:guide
       position="65.358716,52.778672"
       orientation="0,-1"
       id="guide8"
       inkscape:locked="false" /><sodipodi:guide
       position="55.734086,36.567826"
       orientation="1,0"
       id="guide9"
       inkscape:locked="false" /><sodipodi:guide
       position="90.322599,97.591585"
       orientation="0,-1"
       id="guide10"
       inkscape:locked="false" /><sodipodi:guide
       position="79.996173,7.0033326"
       orientation="0,-1"
       id="guide11"
       inkscape:locked="false" /><sodipodi:guide
       position="10.117351,54.222309"
       orientation="1,0"
       id="guide12"
       inkscape:locked="false" /><sodipodi:guide
       position="100.84954,47.695865"
       orientation="1,0"
       id="guide13"
       inkscape:locked="false" /><inkscape:page
       x="-3.5417507e-15"
       y="0"
       width="113.33229"
       height="106.87585"
       id="page2"
       margin="0"
       bleed="0" /></sodipodi:namedview><metadata
     id="metadata2822"><rdf:RDF><cc:Work
         rdf:about=""><dc:format>image/svg+xml</dc:format><dc:type
           rdf:resource="http://purl.org/dc/dcmitype/StillImage" /><dc:title /></cc:Work></rdf:RDF></metadata><g
     inkscape:label="Layer 1"
     inkscape:groupmode="layer"
     id="Template"
     style="fill:none;stroke:#000000;stroke-width:0.05"
     transform="translate(-4.8507973,-6.2744426)"><path
       style="fill:#000000;fill-opacity:1;fill-rule:nonzero;stroke:none;stroke-width:0.0132292"
       id="path89"
       d="m -55.149203,-52.553214 c 0.974372,1.336418 1.849841,2.738449 2.72477,4.141126 2.339645,3.683536 4.649939,7.385582 6.973961,11.078993 3.414443,5.221366 6.52686,10.626351 9.526334,16.093706 3.315262,6.235287 6.72444,12.419801 9.984627,18.6841817 3.93346,7.5627071 7.188333,15.4451023 10.435342,23.3183873 3.676623,9.082006 7.170438,18.235705 10.8961682,27.297952 0.5286322,1.265089 1.0572644,2.530176 1.5858939,3.795265 0,0 9.7472314,-0.779193 9.7472314,-0.779193 v 0 C 6.1893988,49.816764 5.6536705,48.556326 5.1179421,47.295885 1.3463676,38.252906 -2.1438199,29.098815 -5.7911566,20.005615 -9.0253995,12.074804 -12.265789,4.1333323 -16.188363,-3.4892129 c -3.235352,-6.2898548 -6.654975,-12.4808081 -9.968601,-18.7294891 -2.991072,-5.507114 -6.078153,-10.964301 -9.498522,-16.219222 -2.315918,-3.68112 -4.588035,-7.389308 -6.90265,-11.071204 -0.868159,-1.417123 -1.690018,-2.871516 -2.668209,-4.216429 z" /><path
       style="fill:#000000;fill-opacity:1;fill-rule:nonzero;stroke:none;stroke-width:0.0132292"
       id="path90"
       d="m 47.174719,-52.616049 c -0.798705,0.857917 -1.450409,1.85006 -2.114494,2.813814 -1.454891,2.280048 -2.773122,4.644006 -4.152313,6.970166 -2.306338,3.807948 -4.51952,7.666282 -6.647132,11.576291 -2.581103,4.793649 -5.078783,9.630931 -7.521511,14.496325 -2.874693,5.885976 -5.708502,11.7919205 -8.560216,17.68909659 C 15.170217,7.1633935 12.289846,13.456606 9.5268609,19.802833 6.8309128,26.055606 4.3577942,32.399968 1.9005956,38.749217 c -1.49875872,3.75807 -2.88938489,7.556132 -4.2391753,11.369653 0,0 9.8248628,0.668999 9.8248628,0.668999 v 0 c 1.3409295,-3.794572 2.7260149,-7.572745 4.2097509,-11.314282 2.445419,-6.325523 4.911373,-12.644876 7.618262,-18.864368 2.757823,-6.320625 5.628362,-12.5906366 8.637558,-18.7959465 2.854351,-5.8893868 5.687586,-11.7892114 8.588833,-17.6557175 2.44589,-4.844055 4.950089,-9.658336 7.538042,-14.428218 2.132761,-3.8882 4.377418,-7.710334 6.678888,-11.501111 1.362419,-2.287618 2.663851,-4.618371 4.182118,-6.807988 0.684453,-0.942234 1.413684,-1.846783 2.141101,-2.754281 z" /><path
       style="fill:#000000;fill-opacity:1;fill-rule:nonzero;stroke:none;stroke-width:0.0132292"
       id="path91"
       d="m -3.2014335,-51.657849 c 0.6263269,2.04189 1.4782244,4.004688 2.33326776,5.96106 2.09421674,4.786704 4.46215814,9.446386 6.83272424,14.100225 3.1825909,6.198843 6.1863815,12.486256 9.2013435,18.76752 3.304434,6.9639575 6.677366,13.8949242 10.052576,20.8247505 3.264799,6.8566245 6.591297,13.6820825 10.02511,20.4556115 2.974816,5.790706 5.952074,11.579874 8.8607,17.404181 0.444045,0.890754 0.888092,1.781511 1.332137,2.672265 0,0 9.796709,-0.910823 9.796709,-0.910823 v 0 C 54.786977,46.726764 54.340821,45.836589 53.894662,44.946412 50.985021,39.113812 48.005715,33.317056 45.005157,27.530754 41.562005,20.770565 38.213229,13.964841 34.965852,7.1081776 31.582578,0.18907485 28.231309,-6.745596 24.930434,-13.704445 c -3.013728,-6.29335 -6.015138,-12.593296 -9.173424,-18.815957 -2.343187,-4.618485 -4.694325,-9.237312 -6.7612367,-13.988245 -0.8366998,-1.929619 -1.7540869,-3.85054 -2.2322049,-5.909019 z" /><path
       style="fill:#000000;fill-opacity:1;fill-rule:nonzero;stroke:none;stroke-width:0.0132292"
       id="path92"
       d="m -5.5199402,-52.234988 c -0.3819366,1.053104 -0.8823484,2.070089 -1.3406967,3.093666 -1.7215617,3.765799 -3.6676411,7.423376 -5.5520751,11.109104 -3.180865,6.0711 -5.896017,12.360926 -8.591751,18.656628 -3.287588,7.719902 -6.801553,15.3395098 -10.272008,22.9779512 -3.751605,8.3128038 -7.490499,16.6313328 -11.240249,24.9449718 -2.642389,5.922687 -5.485546,11.749849 -8.394522,17.544933 -1.04349,2.041716 -2.080963,4.086395 -3.129766,6.125388 0,0 9.840517,0.932637 9.840517,0.932637 v 0 c 1.039252,-2.04665 2.07559,-4.094763 3.104141,-6.146818 2.888314,-5.822109 5.688885,-11.68613 8.315095,-17.632024 3.723654,-8.320846 7.461351,-16.635409 11.228525,-24.9366531 3.485515,-7.6495194 7.012149,-15.2813009 10.307709,-23.0155669 2.7033672,-6.253199 5.4466915,-12.491262 8.6341269,-18.51769 1.92043839,-3.714729 3.9104649,-7.396877 5.6557121,-11.198761 0.5277987,-1.153651 1.1398355,-2.298142 1.4217068,-3.543304 z" /><path
       style="fill:#000000;fill-opacity:1;fill-rule:nonzero;stroke:none;stroke-width:0.0132292"
       id="path93"
       d="m -53.024071,-14.640927 c 0.0052,0.672629 0.004,1.344647 0.03279,2.016747 0.07023,1.259195 0.127346,2.519045 0.180987,3.7790385 0.01946,0.7801451 0.05589,1.5563691 0.177278,2.3277063 0.192754,1.3090524 0.529613,1.6640227 1.682676,2.2631452 3.107065,0.9412341 6.400286,1.0788147 9.620475,1.2948417 6.186454,0.352388 12.381987,0.4600522 18.577219,0.4732682 4.284205,-0.00579 8.568407,-0.011589 12.8526091,-0.017383 1.2236979,-0.00749 2.4473747,-0.019262 3.6710911,-0.022437 1.2573582,-0.00325 5.0293111,-0.015346 3.7720852,0.00315 -1.8307817,0.02694 -3.6632039,-0.04654 -5.4928928,0.022172 -1.2806363,0.048096 2.5629552,0.025506 3.8444143,0.039732 1.2972705,0.01442 2.5945173,0.030808 3.89177733,0.046209 7.70607947,0.1335934 15.41145477,0.3319674 23.11490977,0.5735425 7.59329,0.2427896 15.176066,0.7119382 22.753259,1.25041028 1.045456,0.0767265 2.090909,0.15345304 3.136365,0.23017956 0,0 9.392113,-2.90119064 9.392113,-2.90119064 v 0 C 57.132207,-3.3379585 56.08133,-3.4141241 55.03045,-3.4902871 47.438205,-4.0333841 39.84238,-4.5375793 32.234431,-4.8048667 24.526873,-5.0785888 16.8151,-5.2418129 9.1048108,-5.4173216 2.1431365,-5.504679 -4.8089175,-5.536437 -11.773899,-5.5497005 c -1.260136,-0.00238 -2.520281,0.00106 -3.780414,0.00479 -1.226034,0.0036 -4.904021,0.00159 -3.678079,0.017039 1.937009,0.024368 3.874318,0.00651 5.811478,0.00979 -6.161508,0.012224 -12.321805,-0.063513 -18.476635,-0.378976 -3.142844,-0.1741302 -6.29285,-0.3508348 -9.404672,-0.8495426 -0.193252,-0.016351 -0.386755,-0.029998 -0.579756,-0.049091 -0.116882,-0.011562 -0.234651,-0.066299 -0.34974,-0.042857 -0.294758,0.060037 -0.334597,0.5023008 -0.421219,-0.023045 -0.133383,-0.6855143 -0.170309,-1.3758043 -0.187664,-2.0738465 -0.06036,-1.2563634 -0.120961,-2.5127144 -0.178961,-3.7691884 -0.02421,-0.645308 -0.01698,-1.290651 -0.009,-1.936308 z" /></g></svg>
