<?xml version="1.0" encoding="UTF-8" standalone="no"?>
<!-- Created with Inkscape (http://www.inkscape.org/) -->

<svg
   width="108.8254mm"
   height="103.9647mm"
   viewBox="-60 -60 108.8254 103.9647"
   sodipodi:docname="CD-Label_120x120.svg"
   version="1.1"
   id="svg3"
   xml:space="preserve"
   inkscape:export-filename="diɵ.svg"
   inkscape:export-xdpi="96"
   inkscape:export-ydpi="96"
   xmlns:inkscape="http://www.inkscape.org/namespaces/inkscape"
   xmlns:sodipodi="http://sodipodi.sourceforge.net/DTD/sodipodi-0.dtd"
   xmlns="http://www.w3.org/2000/svg"
   xmlns:svg="http://www.w3.org/2000/svg"
   xmlns:rdf="http://www.w3.org/1999/02/22-rdf-syntax-ns#"
   xmlns:cc="http://creativecommons.org/ns#"
   xmlns:dc="http://purl.org/dc/elements/1.1/"><defs
     id="defs3" /><sodipodi:namedview
     pagecolor="#ffffff"
     bordercolor="#666666"
     borderopacity="1.0"
     inkscape:pageopacity="0.0"
     inkscape:pageshadow="2"
     inkscape:zoom="1"
     inkscape:cx="226.771653543"
     inkscape:cy="226.771653543"
     inkscape:document-units="mm"
     inkscape:current-layer="layer1"
     showgrid="false"
     units="mm"
     showguides="true"
     inkscape:guide-bbox="true"
     inkscape:snap-global="true"
     inkscape:snap-bbox="true"
     inkscape:snap-bbox-midpoints="true"
     inkscape:window-width="850"
     inkscape:window-height="832"
     inkscape:window-x="717"
     inkscape:window-y="28"
     inkscape:window-maximized="0"
     inkscape:bbox-paths="true"
     inkscape:bbox-nodes="true"
     inkscape:snap-bbox-edge-midpoints="true"
     inkscape:snap-grids="true"
     id="namedview1"
     inkscape:showpageshadow="2"
     inkscape:pagecheckerboard="0"
     inkscape:deskcolor="#d1d1d1"><sodipodi:guide
       orientation="1,0"
       position="221.00456,218.37052"
       id="guide2827"
       inkscape:locked="false" /><sodipodi:guide
       orientation="0,1"
       position="221.00456,218.37052"
       id="guide2829"
       inkscape:locked="false" /><inkscape:grid
       type="xygrid"
       id="grid3072"
       empspacing="10"
       visible="false"
       enabled="true"
       snapvisiblegridlinesonly="true"
       units="mm"
       dotted="false"
       spacingx="0.1mm"
       spacingy="0.1mm"
       originx="-5.7670898"
       originy="-7.6341593" /><sodipodi:guide
       position="64.241912,81.272956"
       orientation="0,-1"
       id="guide4"
       inkscape:locked="false" /><sodipodi:guide
       position="63.540116,20.790557"
       orientation="0,-1"
       id="guide5"
       inkscape:locked="false" /><sodipodi:guide
       position="84.694252,50.054293"
       orientation="1,0"
       id="guide6"
       inkscape:locked="false" /><sodipodi:guide
       position="24.540313,41.753378"
       orientation="1,0"
       id="guide7"
       inkscape:locked="false" /><sodipodi:guide
       position="64.442425,51.227249"
       orientation="0,-1"
       id="guide8"
       inkscape:locked="false" /><sodipodi:guide
       position="54.817795,35.016403"
       orientation="1,0"
       id="guide9"
       inkscape:locked="false" /><sodipodi:guide
       position="89.40631,96.040168"
       orientation="0,-1"
       id="guide10"
       inkscape:locked="false" /><sodipodi:guide
       position="79.079884,5.4519082"
       orientation="0,-1"
       id="guide11"
       inkscape:locked="false" /><sodipodi:guide
       position="9.2010584,52.670886"
       orientation="1,0"
       id="guide12"
       inkscape:locked="false" /><sodipodi:guide
       position="99.933252,46.144442"
       orientation="1,0"
       id="guide13"
       inkscape:locked="false" /><inkscape:page
       x="0"
       y="-5.3406257e-15"
       width="108.8254"
       height="103.96471"
       id="page2"
       margin="0"
       bleed="0" /></sodipodi:namedview><metadata
     id="metadata2822"><rdf:RDF><cc:Work
         rdf:about=""><dc:format>image/svg+xml</dc:format><dc:type
           rdf:resource="http://purl.org/dc/dcmitype/StillImage" /><dc:title /></cc:Work></rdf:RDF></metadata><g
     inkscape:label="Layer 1"
     inkscape:groupmode="layer"
     id="Template"
     style="fill:none;stroke:#000000;stroke-width:0.05"
     transform="translate(-5.7670898,-7.6341587)"><path
       id="path48"
       style="fill:#000000;fill-opacity:1;fill-rule:nonzero;stroke:none;stroke-width:0.0132292"
       d="m 44.775,-52.365841 c -0.929436,1.164006 -1.825713,2.347838 -2.68304,3.566708 -1.899459,2.843462 -3.534744,5.851821 -5.123202,8.87646 -2.216473,4.411244 -4.198506,8.936901 -6.226493,13.436906 -1.545518,3.382867 -3.047892,6.788773 -4.297929,10.293946 -0.812575,2.278505 -0.955789,2.852918 -1.652612,5.158341 -0.547778,1.9491182 -0.997861,3.9258448 -1.363741,5.9179852 -0.491393,-1.0321687 -1.122181,-1.9992266 -1.866036,-2.8881958 -0.325387,-0.3447336 -0.635412,-0.7044963 -0.976168,-1.0340454 -1.80271,-1.743416 -3.96212,-3.072483 -6.129859,-4.305164 -2.688574,-1.363202 -5.4890113,-2.466959 -8.1989823,-3.783748 -0.461303,-0.256687 -0.9151164,-0.525695 -1.370459,-0.7922 2.925029,-1.543849 5.8926743,-3.0596 8.4806193,-5.141805 2.108266,-1.793269 3.90064,-3.479337 4.649329,-6.243029 0.08342,-0.36296 0.183987,-0.722833 0.250114,-1.08934 0.305615,-1.693851 0.267809,-3.42633 -0.05168,-5.113899 -0.221798,-1.151076 -0.428747,-2.314684 -0.711068,-3.449919 l -9.9864702,0.394808 c 0.3059853,1.135349 0.5404191,2.288412 0.7720459,3.441134 0.2989739,1.470246 0.3645238,2.983761 0.057361,4.460192 -0.061214,0.29423 -0.1608718,0.579124 -0.241329,0.868681 -0.7510489,2.223712 -2.6857854,3.605849 -4.4731119,4.979541 -1.4968317,1.047244 -3.07808842,1.9602 -4.6839519,2.830835 -0.1961253,-0.159745 -0.4002634,-0.30817 -0.5932454,-0.472322 -0.9227344,-0.79334 -1.5159266,-1.272537 -2.3740153,-2.131136 -1.3167439,-1.31753 -2.4634367,-2.798412 -3.455603,-4.37286 -0.1948154,-0.349027 -0.4040914,-0.690256 -0.5844605,-1.046965 -0.8446241,-1.670381 -1.3200866,-3.496208 -1.462443,-5.359362 -0.051536,-0.987099 -0.1666037,-2.084189 0.2475301,-3.01532 l -9.9652838,-0.759644 c -0.345959,1.264752 -0.278902,2.590178 -0.204638,3.884001 0.162546,2.086064 0.651209,4.140623 1.513086,6.050793 0.184415,0.408715 0.40006,0.802696 0.599963,1.204061 1.5313,2.81356 3.617258,5.048636 5.952608,7.202661 1.014341,0.908665 2.0825028,1.747645 3.176034,2.551783 -2.346738,1.243331 -4.649327,2.551823 -6.888469,4.004406 -0.518073,0.359055 -1.065077,0.680142 -1.554427,1.077454 -0.5183,0.42082 -0.989592,0.89708 -1.460376,1.370459 -1.415754,1.423554 -2.603721,2.9985718 -3.518131,4.7914387 -0.03187,0.062492 -0.05728,0.1280907 -0.08785,0.1912028 -0.188861,-3.4219715 -0.599177,-6.8287725 -1.443323,-10.1616535 -0.527513,-2.002261 -0.631726,-2.523178 -1.277441,-4.48138 -0.938972,-2.847536 -2.09191,-5.625365 -3.306258,-8.364348 -1.963515,-4.052801 -4.191521,-7.995868 -6.909139,-11.596708 -2.233967,-2.834438 -4.516796,-5.670495 -7.227983,-8.068241 -1.069858,-0.870422 -0.565558,-0.486277 -1.53634,-1.190625 -0.159995,-0.116085 -0.315599,-0.239433 -0.480591,-0.348299 -0.08381,-0.0553 -0.185104,-0.08177 -0.264583,-0.143144 -0.08573,-0.06619 -0.250121,-0.282937 -0.325045,-0.377755 l -9.750826,2.195215 c 0.236027,-0.07375 0.382554,0.142422 0.556555,0.2651 0.161202,0.113653 0.331084,0.213883 0.49506,0.323495 0.756499,0.50569 0.754246,0.514334 1.555461,1.087272 2.787565,2.133375 5.025905,4.872348 7.226432,7.581449 2.7273,3.438185 4.911342,7.258885 6.874516,11.171411 1.523309,3.335269 2.921358,6.746724 3.962032,10.267074 0.214841,0.726755 0.398543,1.462509 0.597896,2.193664 1.139026,4.333644 1.474521,8.8050694 1.548226,13.2674075 0.02154,4.7143431 -0.762389,9.3730929 -1.649511,13.9867435 -0.924814,4.42404 -1.92917,8.845262 -3.340365,13.1439 -0.297226,0.905377 -0.632104,1.79805 -0.948263,2.696993 -1.674448,4.413186 -3.797622,8.655664 -6.310209,12.651941 -0.582233,0.926042 -1.203673,1.827019 -1.805574,2.740401 -2.080286,2.904609 -4.517356,5.51689 -6.932394,8.138522 l 9.622152,1.431437 c 2.443786,-2.717998 4.907393,-5.429604 6.991305,-8.443412 0.611412,-0.941144 1.242432,-1.869338 1.833996,-2.823084 2.554193,-4.117986 4.690332,-8.493036 6.357752,-13.042615 0.317254,-0.9247 0.652003,-1.843513 0.951879,-2.773991 1.40898,-4.371898 2.45882,-8.853182 3.380673,-13.349572 0.321377,-1.6917975 0.613233,-3.3917096 0.876432,-5.0952965 0.219952,0.603445 0.471835,1.1951302 0.705383,1.793689 2.016593,4.4679315 5.44581,6.9792855 9.332764,9.7006995 1.900239,1.365781 3.9329399,2.514136 5.9717285,3.651974 -2.1655935,1.719588 -4.2659545,3.5528 -6.0032515,5.711279 -1.222589,1.518986 -1.563046,2.207053 -2.562634,3.862813 -1.041628,1.951365 -1.854984,4.013937 -2.373499,6.166032 -0.39897,1.655934 -0.476108,2.575337 -0.696598,4.250904 l 9.8402265,0.261482 c 0.2166091,-1.593607 0.2763704,-2.377839 0.6795451,-3.943945 0.5095769,-1.979433 1.3046449,-3.866715 2.3202718,-5.638415 1.0447443,-1.612405 1.2415373,-2.038012 2.5109579,-3.502629 0.9411238,-1.08584 1.97558543,-2.083048 3.05821122,-3.026689 1.72432338,1.253532 3.34212568,2.656544 4.57749838,4.412651 1.0132377,1.440339 1.1480127,1.944996 1.8794718,3.558439 1.1291702,2.919145 1.6399695,6.013035 2.1662761,9.082133 L 18.829297,42.078524 C 18.277829,38.860157 17.75245,35.618325 16.653202,32.529753 15.916827,30.735947 15.760704,30.132976 14.734973,28.497957 13.224493,26.090243 11.128692,24.187776 8.8231893,22.559302 7.6467377,21.767688 7.0564164,21.37606 6.3287679,20.929944 c 2.883892,-1.904825 5.8178151,-3.73068 8.7338341,-5.587773 1.257215,-0.88831 1.7326,-1.174219 2.878894,-2.177128 1.683615,-1.473017 3.136421,-3.1920941 4.294828,-5.1061481 0.07409,-0.1386523 0.145826,-0.278493 0.222209,-0.4159953 0.07014,1.6046458 0.200803,3.2068554 0.393774,4.8012574 0.112284,0.927745 0.217845,1.858033 0.395325,2.775541 0.484558,2.504988 0.9273,3.656129 1.699638,6.100403 1.90623,5.26175 4.248481,10.384024 7.145817,15.177885 0.584462,0.967039 1.212206,1.906785 1.818493,2.86029 2.435974,3.761603 5.228566,7.26658 8.063074,10.730095 L 51.636597,48.74375 C 48.805827,45.361804 46.022113,41.934942 43.592643,38.246716 42.02214,35.833841 41.534835,35.175001 40.136523,32.668762 38.001115,28.841395 36.198019,24.827903 34.686727,20.716003 33.949994,18.442092 33.492828,17.268983 33.032564,14.940129 32.856794,14.050766 32.751706,13.148583 32.640857,12.24882 32.318676,9.6336441 32.151079,6.9963355 32.216593,4.3609294 c 0.0438,-0.8256825 0.06819,-1.6529318 0.131259,-2.4773682 0.319329,-4.1743312 1.069778,-8.3144966 2.224153,-12.3377482 0.692361,-2.254771 0.830395,-2.803261 1.637626,-5.031217 1.253847,-3.460628 2.759404,-6.821184 4.28501,-10.168372 2.033445,-4.460978 4.012898,-8.952828 6.268868,-13.307198 1.588304,-2.940528 3.211368,-5.876063 5.164543,-8.594308 0.556281,-0.738909 1.112727,-1.469368 1.731677,-2.157491 0.174969,-0.194523 0.483896,-0.539068 0.716235,-0.7059 0.06521,-0.04683 0.144278,-0.06989 0.216525,-0.104903 z m -46.7160116,38.072095 c 2.2103523,1.131248 4.5123091,2.077203 6.7577271,3.137276 2.12276,1.076174 4.2091344,2.2859033 6.0259885,3.8369754 0.326101,0.2783946 0.630457,0.5811261 0.945679,0.8717814 1.334368,1.3727192 2.365615,3.0183644 2.736267,4.9164958 0.07013,0.3591216 0.09635,0.72560685 0.144694,1.08830562 C 14.689084,1.7318918 14.169217,3.9001734 13.145406,5.8244059 12.922741,6.2429027 12.652026,6.6339632 12.4054,7.0388021 11.254143,8.7455789 9.8334058,10.245815 8.2082397,11.50778 7.1317612,12.34368 6.5467376,12.681984 5.3882568,13.427559 3.4231904,14.623307 1.475469,15.845602 -0.45118001,17.100203 -1.2179319,16.646826 -1.9765135,16.179264 -2.7104736,15.670317 -5.5397373,13.778425 -8.8701797,11.699491 -10.85623,8.8696981 -11.247189,8.312647 -11.539783,7.6924642 -11.88149,7.1039144 -12.157394,6.458593 -12.470652,5.8282955 -12.70883,5.1681152 c -0.419259,-1.1620844 -0.838136,-2.7433221 -0.922424,-3.9904541 -0.126696,-1.87463377 0.30531,-3.7228786 0.992187,-5.45083 0.269886,-0.549783 0.508195,-1.1164557 0.80977,-1.6495118 1.511287,-2.6712915 3.7920991,-4.7603563 6.3934083,-6.3458663 1.1489474,-0.704341 2.3185226,-1.370934 3.4948771,-2.025199 z" /></g></svg>
