<?xml version="1.0" encoding="UTF-8" standalone="no"?>
<!-- Created with Inkscape (http://www.inkscape.org/) -->

<svg
   width="114.27349mm"
   height="101.32369mm"
   viewBox="-60 -60 114.27349 101.32369"
   sodipodi:docname="CD-Label_120x120.svg"
   version="1.1"
   id="svg3"
   xml:space="preserve"
   inkscape:export-filename="diɵ.svg"
   inkscape:export-xdpi="96"
   inkscape:export-ydpi="96"
   xmlns:inkscape="http://www.inkscape.org/namespaces/inkscape"
   xmlns:sodipodi="http://sodipodi.sourceforge.net/DTD/sodipodi-0.dtd"
   xmlns="http://www.w3.org/2000/svg"
   xmlns:svg="http://www.w3.org/2000/svg"
   xmlns:rdf="http://www.w3.org/1999/02/22-rdf-syntax-ns#"
   xmlns:cc="http://creativecommons.org/ns#"
   xmlns:dc="http://purl.org/dc/elements/1.1/"><defs
     id="defs3" /><sodipodi:namedview
     pagecolor="#ffffff"
     bordercolor="#666666"
     borderopacity="1.0"
     inkscape:pageopacity="0.0"
     inkscape:pageshadow="2"
     inkscape:zoom="0.5"
     inkscape:cx="280"
     inkscape:cy="481"
     inkscape:document-units="mm"
     inkscape:current-layer="Template"
     showgrid="false"
     units="mm"
     showguides="true"
     inkscape:guide-bbox="true"
     inkscape:snap-global="true"
     inkscape:snap-bbox="true"
     inkscape:snap-bbox-midpoints="true"
     inkscape:window-width="1920"
     inkscape:window-height="991"
     inkscape:window-x="3831"
     inkscape:window-y="-9"
     inkscape:window-maximized="1"
     inkscape:bbox-paths="true"
     inkscape:bbox-nodes="true"
     inkscape:snap-bbox-edge-midpoints="true"
     inkscape:snap-grids="true"
     id="namedview1"
     inkscape:showpageshadow="2"
     inkscape:pagecheckerboard="0"
     inkscape:deskcolor="#d1d1d1"><sodipodi:guide
       orientation="1,0"
       position="225.11825,219.40428"
       id="guide2827"
       inkscape:locked="false" /><sodipodi:guide
       orientation="0,1"
       position="225.11825,219.40428"
       id="guide2829"
       inkscape:locked="false" /><inkscape:grid
       type="xygrid"
       id="grid3072"
       empspacing="10"
       visible="false"
       enabled="true"
       snapvisiblegridlinesonly="true"
       units="mm"
       dotted="false"
       spacingx="0.1mm"
       spacingy="0.1mm"
       originx="-1.653394"
       originy="-11.308936" /><sodipodi:guide
       position="68.355605,82.30671"
       orientation="0,-1"
       id="guide4"
       inkscape:locked="false" /><sodipodi:guide
       position="67.653809,21.824319"
       orientation="0,-1"
       id="guide5"
       inkscape:locked="false" /><sodipodi:guide
       position="88.807944,51.088053"
       orientation="1,0"
       id="guide6"
       inkscape:locked="false" /><sodipodi:guide
       position="28.654007,42.787138"
       orientation="1,0"
       id="guide7"
       inkscape:locked="false" /><sodipodi:guide
       position="68.556118,52.261009"
       orientation="0,-1"
       id="guide8"
       inkscape:locked="false" /><sodipodi:guide
       position="58.931488,36.050164"
       orientation="1,0"
       id="guide9"
       inkscape:locked="false" /><sodipodi:guide
       position="93.520002,97.07393"
       orientation="0,-1"
       id="guide10"
       inkscape:locked="false" /><sodipodi:guide
       position="83.193576,6.4856704"
       orientation="0,-1"
       id="guide11"
       inkscape:locked="false" /><sodipodi:guide
       position="13.314754,53.704646"
       orientation="1,0"
       id="guide12"
       inkscape:locked="false" /><sodipodi:guide
       position="104.04695,47.178202"
       orientation="1,0"
       id="guide13"
       inkscape:locked="false" /><inkscape:page
       x="7.0034622e-24"
       y="0"
       width="114.27349"
       height="101.32369"
       id="page2"
       margin="0"
       bleed="0" /></sodipodi:namedview><metadata
     id="metadata2822"><rdf:RDF><cc:Work
         rdf:about=""><dc:format>image/svg+xml</dc:format><dc:type
           rdf:resource="http://purl.org/dc/dcmitype/StillImage" /><dc:title /></cc:Work></rdf:RDF></metadata><g
     inkscape:label="Layer 1"
     inkscape:groupmode="layer"
     id="Template"
     style="fill:none;stroke:#000000;stroke-width:0.05"
     transform="translate(-1.653394,-11.308935)"><path
       style="fill:#000000;fill-opacity:1;fill-rule:nonzero;stroke:none;stroke-width:0.0132292"
       id="path84"
       d="m -55.992843,-48.112411 c 0.166955,0.989693 0.268778,1.985871 0.344327,2.986173 0.120248,2.519828 0.570632,4.997012 1.138901,7.449106 0.973309,3.866957 2.495333,7.556525 4.118277,11.187785 1.317177,2.908933 2.79979,5.745375 4.576647,8.402127 1.230517,1.839865 1.729893,2.428529 3.079199,4.181954 3.180832,4.0837088 7.081102,7.4688118 11.195498,10.5695802 3.766627,2.80424732 8.018336,4.7589784 12.420508,6.3205624 4.590198,1.452409 9.316828,2.4093911 13.9943094,3.5310895 4.48129814,0.9860623 8.8034732,2.495116 12.9553069,4.4335439 2.2044127,1.102719 4.3245217,2.396034 6.1896047,4.017121 1.115197,0.969303 1.379484,1.319381 2.372143,2.403284 2.196385,2.510282 3.586506,5.525939 4.91033,8.549759 1.249529,2.871952 2.345669,5.806099 3.383018,8.760158 0.875885,2.440326 1.625333,4.951209 2.837685,7.254637 0.270529,0.513996 0.579324,1.00692 0.868987,1.510379 1.625598,2.638264 3.90561,4.771509 6.688156,6.152364 0.637093,0.316159 1.306587,0.562327 1.959883,0.843489 3.015734,1.135886 6.190824,1.686386 9.358344,2.19192 0,0 9.474046,-2.778996 9.474046,-2.778996 v 0 C 52.763262,49.447305 49.651142,49.007083 46.64346,48.084423 45.205949,47.597216 44.408559,47.393061 43.077588,46.696286 41.131054,45.677254 39.4628,44.200525 38.243944,42.375117 37.512295,41.211114 37.257305,40.88927 36.682516,39.647445 35.84043,37.828123 35.261656,35.893174 34.579005,34.012863 33.532792,31.011567 32.441598,28.025318 31.178276,25.107221 29.794394,21.907202 28.401331,18.689524 26.195693,15.947798 25.270479,14.850227 24.814756,14.251811 23.773467,13.251612 21.904696,11.456583 19.744627,9.9926069 17.470875,8.7633713 13.319517,6.6323668 8.9503311,4.9648251 4.3944893,3.9181255 -0.24779986,2.7714399 -4.9346951,1.8063166 -9.5480759,0.54585224 -11.212522,0.02155126 -12.172835,-0.24491061 -13.791474,-0.89815891 -16.614927,-2.0376426 -19.320427,-3.471589 -21.844988,-5.1721719 c -4.069326,-2.9263683 -7.949375,-6.1196591 -11.115551,-10.0388471 -1.335739,-1.678043 -1.831221,-2.243423 -3.052361,-4.004572 -1.768919,-2.551165 -3.251087,-5.285168 -4.535342,-8.109024 -1.592738,-3.506824 -3.085657,-7.071814 -4.052101,-10.810088 -0.558246,-2.343346 -1.000215,-4.71351 -1.09336,-7.127101 -0.06431,-1.049238 -0.156159,-2.094395 -0.311134,-3.134137 z" /><path
       style="fill:#000000;fill-opacity:1;fill-rule:nonzero;stroke:none;stroke-width:0.0132292"
       id="path85"
       d="m 45.758746,-48.691065 c 0.04901,1.101544 -0.03061,2.19729 -0.152538,3.291248 -0.3,2.309059 -0.954251,4.553249 -1.536824,6.802491 -0.678833,2.720371 -1.554207,5.384163 -2.526755,8.011968 -0.711618,1.755431 -1.43315,3.520355 -2.365261,5.173794 -0.397296,0.70475 -1.107205,1.783318 -1.543024,2.459297 -1.517314,2.33693 -3.282584,4.495305 -5.000011,6.68464 -1.462616,1.906741 -3.120249,3.63002 -4.90171,5.236482 -1.961817,1.7060864 -4.12179,3.1520396 -6.29725,4.5657401 -2.633753,1.6425333 -5.452099,2.9321177 -8.323842,4.0925432 C 9.2930803,-0.92287629 5.3786017,0.2365358 1.4370827,1.2957396 -2.473914,2.2943115 -6.3967905,3.2313783 -10.212397,4.5565069 c -2.860696,1.0965894 -5.832396,2.0255097 -8.4802,3.6023126 -0.471339,0.2806885 -0.917826,0.6011519 -1.376741,0.9017291 -2.401684,1.6766144 -4.447471,3.7769054 -6.323451,6.0105604 -1.569403,1.860563 -2.896706,3.89898 -4.185674,5.957814 -1.151856,1.812864 -2.154823,3.710561 -3.048775,5.661866 -0.80774,2.014836 -1.504551,4.071554 -2.248545,6.110375 -0.719319,1.905902 -1.428325,3.823401 -2.300364,5.665885 -0.930479,1.745737 -1.95712,3.440054 -3.322912,4.878628 -1.773936,1.62523 -4.138658,2.392606 -6.400072,3.078573 -3.407762,0.92651 -6.876317,1.546598 -10.38845,1.887992 0,0 9.480296,2.836982 9.480296,2.836982 v 0 c 3.560437,-0.489725 7.110626,-1.151054 10.52817,-2.286913 2.464366,-0.937077 4.89674,-2.032807 6.623133,-4.108466 1.327494,-1.682522 2.473069,-3.496667 3.390424,-5.436875 0.840761,-1.910863 1.590355,-3.862049 2.308164,-5.822061 0.721331,-1.985822 1.385205,-3.996417 2.23714,-5.931485 0.898689,-1.862888 1.891977,-3.677369 3.016371,-5.414988 1.262407,-1.97104 2.590517,-3.902771 4.14038,-5.66265 1.840204,-2.048891 3.829153,-3.976338 6.201114,-5.408835 C -7.284846,9.3502753 -3.977303,8.1213651 -0.63393277,7.0086308 3.2047242,5.8178815 7.1144324,4.8926494 10.992573,3.8414678 14.967805,2.7183777 18.920101,1.4934707 22.74745,-0.07044436 25.660454,-1.3427806 28.51938,-2.747181 31.167012,-4.5190559 c 2.223212,-1.492541 4.408287,-3.0553501 6.367016,-4.8894099 1.787202,-1.7206622 3.436702,-3.5686972 4.941162,-5.5433382 1.750311,-2.236594 3.507552,-4.474181 5.015505,-6.885567 1.579034,-2.552147 2.94186,-5.218652 3.947668,-8.053377 0.972622,-2.694358 1.856341,-5.420717 2.547115,-8.202508 0.608772,-2.340567 1.274463,-4.679266 1.567029,-7.086052 0.129738,-1.167391 0.219533,-2.336135 0.201729,-3.511757 z" /><path
       style="fill:#000000;fill-opacity:1;fill-rule:nonzero;stroke:none;stroke-width:0.0132292"
       id="path86"
       d="m -57.514199,29.357008 c 0.05452,1.194628 0.08676,2.385896 0.07625,3.582694 -0.01521,3.364656 -0.197643,6.722274 -0.465554,10.075158 -0.149934,1.78095 -0.29661,3.56217 -0.443103,5.343406 0,0 9.906643,0.159594 9.906643,0.159594 v 0 c 0.141116,-1.781961 0.284077,-3.56377 0.435695,-5.344877 0.272192,-3.395964 0.453913,-6.796717 0.499333,-10.20396 0.02469,-1.205577 0.02051,-2.407825 -0.01377,-3.612015 z" /><path
       style="fill:#000000;fill-opacity:1;fill-rule:nonzero;stroke:none;stroke-width:0.0127573"
       id="path87"
       d="m 45.758746,30.260351 c 0.0058,0.599835 0.0094,1.199691 0.01288,1.799541 0.02156,1.7587 0.106704,3.516424 0.161822,5.274523 0.103926,2.297792 0.05898,4.59618 -0.03563,6.893174 -0.07979,1.930895 -0.155003,3.861279 -0.278934,5.790217 0,0 9.935964,0.106006 9.935964,0.106006 v 0 c 0.115101,-1.941445 0.195114,-3.884009 0.273603,-5.827002 0.09225,-2.337541 0.142753,-4.676593 0.0466,-7.015056 -0.05207,-1.74032 -0.135078,-3.480768 -0.133691,-5.221862 0.0035,-0.59985 0.007,-1.199706 0.01289,-1.799541 z" /><path
       style="fill:#000000;fill-opacity:1;fill-rule:nonzero;stroke:none;stroke-width:0.0132292"
       id="path88"
       d="m -5.8771621,6.3339063 c -0.00185,1.1602825 0.057221,2.318967 0.104902,3.4779558 0.1029467,2.5562529 0.1429941,5.1144009 0.1785699,7.6722949 0.049744,3.812034 0.067024,7.624371 0.086614,11.436649 0.028075,3.891544 -0.033972,7.783234 -0.1760352,11.67212 -0.080663,1.991997 -0.039968,1.023088 -0.1216263,2.906747 0,0 9.9254997,0.07952 9.9254997,0.07952 v 0 C 4.190379,41.688113 4.155441,42.661213 4.2252591,40.659881 4.346949,36.745448 4.4061415,32.828948 4.3822206,28.912543 4.3699439,25.095058 4.3514654,21.277565 4.3190513,17.460194 4.2925903,14.88506 4.2710083,12.309523 4.1807668,9.7356303 4.1405369,8.6021368 4.0827704,7.4683761 4.1172007,6.3339063 Z" /><path
       style="fill:#000000;fill-opacity:1;fill-rule:nonzero;stroke:none;stroke-width:0.0132292"
       id="path89"
       d="m -49.738182,-27.941139 c 1.645188,0.303165 3.288397,0.587833 4.92127,0.957979 3.744562,0.96751 7.586659,1.400739 11.426256,1.777522 5.434385,0.513212 10.880563,0.878239 16.327974,1.218731 9.0807119,0.644626 18.1871806,0.492533 27.282182,0.452845 5.117748,-0.148751 10.234867,-0.280236 15.344013,-0.619114 4.406598,-0.289679 8.788371,-0.837825 13.160748,-1.443117 3.517157,-0.412234 6.933062,-1.300311 10.277954,-2.435487 0,0 -9.605674,-2.473767 -9.605674,-2.473767 v 0 c -3.318949,1.002819 -6.709019,1.706198 -10.155719,2.10638 -4.352629,0.570312 -8.716547,1.061802 -13.101098,1.310563 -5.093501,0.283898 -10.1937657,0.420008 -15.29342945,0.541398 2.16843505,0.01206 4.33692295,0.01709 6.50531035,0.03622 0.9807098,0.0087 -1.9615282,0.0037 -2.9422381,-0.0048 -4.02872039,-0.03467 -8.0576366,-0.150464 -12.0792238,-0.396862 -5.429761,-0.323834 -10.858339,-0.675328 -16.275447,-1.172115 -3.786214,-0.322696 -7.596081,-0.632169 -11.298267,-1.532591 -1.616937,-0.384678 -3.220207,-0.849537 -4.875023,-1.03464 z" /></g></svg>
