<?xml version="1.0" encoding="UTF-8" standalone="no"?>
<!-- Created with Inkscape (http://www.inkscape.org/) -->

<svg
   width="117.67681mm"
   height="108.95799mm"
   viewBox="-60 -60 117.67681 108.95799"
   sodipodi:docname="CD-Label_120x120.svg"
   version="1.1"
   id="svg3"
   xml:space="preserve"
   inkscape:export-filename="diɵ.svg"
   inkscape:export-xdpi="96"
   inkscape:export-ydpi="96"
   xmlns:inkscape="http://www.inkscape.org/namespaces/inkscape"
   xmlns:sodipodi="http://sodipodi.sourceforge.net/DTD/sodipodi-0.dtd"
   xmlns="http://www.w3.org/2000/svg"
   xmlns:svg="http://www.w3.org/2000/svg"
   xmlns:rdf="http://www.w3.org/1999/02/22-rdf-syntax-ns#"
   xmlns:cc="http://creativecommons.org/ns#"
   xmlns:dc="http://purl.org/dc/elements/1.1/"><defs
     id="defs3" /><sodipodi:namedview
     pagecolor="#ffffff"
     bordercolor="#666666"
     borderopacity="1.0"
     inkscape:pageopacity="0.0"
     inkscape:pageshadow="2"
     inkscape:zoom="0.5"
     inkscape:cx="280"
     inkscape:cy="481"
     inkscape:document-units="mm"
     inkscape:current-layer="Template"
     showgrid="false"
     units="mm"
     showguides="true"
     inkscape:guide-bbox="true"
     inkscape:snap-global="true"
     inkscape:snap-bbox="true"
     inkscape:snap-bbox-midpoints="true"
     inkscape:window-width="1920"
     inkscape:window-height="991"
     inkscape:window-x="3831"
     inkscape:window-y="-9"
     inkscape:window-maximized="1"
     inkscape:bbox-paths="true"
     inkscape:bbox-nodes="true"
     inkscape:snap-bbox-edge-midpoints="true"
     inkscape:snap-grids="true"
     id="namedview1"
     inkscape:showpageshadow="2"
     inkscape:pagecheckerboard="0"
     inkscape:deskcolor="#d1d1d1"><sodipodi:guide
       orientation="1,0"
       position="223.16163,220.21824"
       id="guide2827"
       inkscape:locked="false" /><sodipodi:guide
       orientation="0,1"
       position="223.16163,220.21824"
       id="guide2829"
       inkscape:locked="false" /><inkscape:grid
       type="xygrid"
       id="grid3072"
       empspacing="10"
       visible="false"
       enabled="true"
       snapvisiblegridlinesonly="true"
       units="mm"
       dotted="false"
       spacingx="0.1mm"
       spacingy="0.1mm"
       originx="-3.6100239"
       originy="-4.4886007" /><sodipodi:guide
       position="66.398975,83.120681"
       orientation="0,-1"
       id="guide4"
       inkscape:locked="false" /><sodipodi:guide
       position="65.697179,22.638285"
       orientation="0,-1"
       id="guide5"
       inkscape:locked="false" /><sodipodi:guide
       position="86.851314,51.902019"
       orientation="1,0"
       id="guide6"
       inkscape:locked="false" /><sodipodi:guide
       position="26.697377,43.601105"
       orientation="1,0"
       id="guide7"
       inkscape:locked="false" /><sodipodi:guide
       position="66.599488,53.074975"
       orientation="0,-1"
       id="guide8"
       inkscape:locked="false" /><sodipodi:guide
       position="56.974859,36.86413"
       orientation="1,0"
       id="guide9"
       inkscape:locked="false" /><sodipodi:guide
       position="91.563372,97.88789"
       orientation="0,-1"
       id="guide10"
       inkscape:locked="false" /><sodipodi:guide
       position="81.236946,7.2996363"
       orientation="0,-1"
       id="guide11"
       inkscape:locked="false" /><sodipodi:guide
       position="11.358124,54.518612"
       orientation="1,0"
       id="guide12"
       inkscape:locked="false" /><sodipodi:guide
       position="102.09032,47.992168"
       orientation="1,0"
       id="guide13"
       inkscape:locked="false" /><inkscape:page
       x="-2.6245244e-15"
       y="0"
       width="117.6768"
       height="108.95799"
       id="page2"
       margin="0"
       bleed="0" /></sodipodi:namedview><metadata
     id="metadata2822"><rdf:RDF><cc:Work
         rdf:about=""><dc:format>image/svg+xml</dc:format><dc:type
           rdf:resource="http://purl.org/dc/dcmitype/StillImage" /><dc:title /></cc:Work></rdf:RDF></metadata><g
     inkscape:label="Layer 1"
     inkscape:groupmode="layer"
     id="Template"
     style="fill:none;stroke:#000000;stroke-width:0.05"
     transform="translate(-3.6100242,-4.4886007)"><path
       style="fill:#000000;fill-opacity:1;fill-rule:nonzero;stroke:none;stroke-width:0.0132292"
       id="path100"
       d="m -56.389976,-53.118482 c 0.115978,2.02222 0.846591,3.937654 1.553337,5.812607 1.96899,4.723181 4.334274,9.274971 6.90107,13.697609 2.447524,3.995886 5.085424,7.877319 8.106816,11.464153 2.058178,2.443361 2.99844,3.375046 5.188066,5.696511 3.569286,3.467147 7.326798,6.8574574 11.70625,9.2850226 2.696615,1.4947556 3.71393,1.7527905 6.577629,2.818855 3.186155,0.9529418 6.4705417,1.8148643 9.8215954,1.8769435 4.418203,0.081846 10.6797289,0.4115012 15.661325,-0.3557084 1.0321926,-0.1589696 2.0482586,-0.4091596 3.0723896,-0.6137408 4.303231,-1.2324741 8.382809,-3.1081635 12.131188,-5.5508048 2.535848,-1.6524921 3.245326,-2.2949801 5.62257,-4.1628011 5.086707,-4.208904 9.697429,-8.93827 14.039352,-13.900176 3.85952,-4.549201 7.437163,-9.327799 10.697896,-14.321841 2.663168,-4.203857 4.636979,-8.781356 6.597313,-13.33982 0,0 -9.859949,-0.799726 -9.859949,-0.799726 v 0 c -1.902404,4.460229 -3.856286,8.921862 -6.518756,12.993991 -3.258929,4.89362 -6.796598,9.599083 -10.642656,14.049182 -4.322363,4.838036 -8.880488,9.479894 -13.962565,13.530606 -2.300097,1.724583 -3.115884,2.424607 -5.577017,3.917193 -3.708103,2.2488318 -7.7383636,3.9405908 -11.9789438,4.871604 -1.0081366,0.1513046 -2.0109709,0.3435879 -3.02440972,0.4539165 -2.55715818,0.2783866 -9.28312308,0.3377962 3.12531382,0.3129994 1.0677816,-0.00212 -2.13813225,-0.012091 -3.20148736,-0.1092385 -2.63512564,-0.2407179 -3.91042254,-0.6421385 -6.49000944,-1.2543234 -2.6763689,-0.8620998 -3.9571035,-1.1648625 -6.4920785,-2.4249486 -4.377119,-2.1757794 -8.081447,-5.4529804 -11.624246,-8.7625764 -2.203315,-2.288646 -3.08569,-3.142668 -5.161391,-5.548564 -3.002601,-3.480239 -5.618808,-7.259595 -8.037069,-11.164275 -2.5362,-4.313985 -4.840443,-8.772448 -6.79661,-13.381394 -0.633288,-1.640025 -1.316149,-3.317771 -1.442814,-5.091255 z" /><path
       style="fill:#000000;fill-opacity:1;fill-rule:nonzero;stroke:none;stroke-width:0.0132292"
       id="path101"
       d="m -3.1865825,-34.424582 c -0.070615,5.29e-4 -0.1449308,-0.02095 -0.2118439,0.0016 -0.284951,0.09612 -0.5277988,0.288586 -0.7958878,0.424839 -0.7103084,0.361007 -1.4108615,0.738312 -2.1170715,1.107636 -3.2074299,1.951609 -5.8267573,4.688313 -8.4696803,7.318629 -3.667368,3.691345 -6.995752,7.692427 -10.193409,11.791032 -3.276057,4.2271126 -6.338376,8.6140841 -9.243762,13.10249686 -2.685958,4.36269074 -5.152797,8.85490024 -7.592192,13.35846814 -2.283819,4.14242 -4.325321,8.409676 -6.213163,12.744884 -1.750977,4.050408 -3.04197,8.276069 -4.281508,12.504475 -1.327385,4.3946 -2.321696,8.877816 -3.172879,13.385761 -0.106973,0.594259 -0.213946,1.188518 -0.320919,1.782778 0,0 9.896735,0.34857 9.896735,0.34857 v 0 c 0.103322,-0.588023 0.206643,-1.176047 0.309965,-1.764067 0.83039,-4.444267 1.817112,-8.860195 3.144937,-13.185534 1.237291,-4.147265 2.530766,-8.288697 4.271519,-12.257908 1.88086,-4.279376 3.920874,-8.486309 6.17953,-12.58058 2.420329,-4.4600096 4.875085,-8.9063378 7.58141,-13.20103853 2.895389,-4.42905617 5.929765,-8.76847937 9.204635,-12.92721847 3.195989,-4.015261 6.5086281,-7.943734 10.1777057,-11.540125 2.5765601,-2.497042 5.16185938,-5.105201 8.4278839,-6.694024 0.7656381,-0.3639 1.6383371,-0.874599 2.5113589,-0.920229 0.091601,-0.0048 0.181864,0.03584 0.2734495,0.03079 0.080309,-0.0044 0.1560168,-0.03917 0.2340266,-0.05875 z" /><path
       style="fill:#000000;fill-opacity:1;fill-rule:nonzero;stroke:none;stroke-width:0.0132292"
       id="path102"
       d="m 4.705126,-31.140666 c 3.3108159,-0.01143 -4.4234417,0.01577 -9.163206,-0.06836 -0.094432,-0.0016 0.1736064,-0.08592 0.2678245,-0.09249 0.1318921,-0.0092 0.2683854,0.0049 0.3939222,0.04634 0.4478338,0.147966 1.0671175,0.557975 1.4379628,0.780394 3.03609107,1.669423 5.7190375,3.826232 8.3010533,6.116074 3.7675078,3.437194 7.1152732,7.285305 10.3651792,11.204326 3.930303,4.699794 7.513621,9.6643827 10.935512,14.7413716 3.475992,5.3409373 6.762652,10.8034794 9.927288,16.3338194 2.831079,4.972973 5.245989,10.162645 7.435969,15.444488 1.976305,4.796565 3.209899,9.84287 4.292703,14.901981 0.622716,3.293468 0.328658,1.664446 0.884132,4.886712 0,0 9.862844,-0.338183 9.862844,-0.338183 v 0 C 59.078919,49.550259 59.376731,51.204379 58.751129,47.853767 57.655503,42.679245 56.417263,37.511623 54.433108,32.594193 52.228375,27.231954 49.796989,21.961716 46.953221,16.904275 43.788865,11.321776 40.453959,5.8372675 36.999106,0.4297663 33.576435,-4.7082515 30.007926,-9.7476379 26.068494,-14.507018 c -3.2668,-4.000836 -6.624412,-7.933682 -10.38235,-11.48842 -2.571589,-2.402864 -5.218121,-4.753772 -8.3016832,-6.489944 -4.8496563,-3.082255 -0.8158929,-2.172813 -12.1856101,-1.744061 z" /><path
       style="fill:#000000;fill-opacity:1;fill-rule:nonzero;stroke:none;stroke-width:0.0132292"
       id="path103"
       d="m -5.501295,-50.852514 c 0.1726115,2.516571 0.1919578,5.040465 0.2162254,7.561759 -0.044011,7.948499 0.0879,15.89416 0.3213523,23.838854 0.4529932,10.9669977 0.6331056,21.941729 0.9011206,32.913957 0.3639449,10.695088 0.9768311,21.378553 1.2405333,32.07703 0.025109,1.417611 0.050213,2.835222 0.075319,4.252833 0,0 9.770221,-0.03967 9.770221,-0.03967 v 0 C 6.9909302,48.330575 6.9583811,46.9089 6.9258347,45.487228 6.6204236,34.791145 5.981095,24.110067 5.6272095,13.415688 5.3700239,2.4410097 5.1897659,-8.5356928 4.7745474,-19.506159 4.5656826,-27.435153 4.462646,-35.364822 4.5832166,-43.29651 c 0.00937,-2.518557 0.02122,-5.039335 -0.09353,-7.556004 z" /><path
       style="fill:#000000;fill-opacity:1;fill-rule:nonzero;stroke:none;stroke-width:0.0132292"
       id="path104"
       d="m -20.096466,-54.677902 c 0.0055,0.63378 0.003,1.267055 0.03118,1.900293 0.01169,1.054424 0.248545,2.047222 0.715328,2.98763 0.308112,0.418687 0.404021,0.631507 0.861496,0.914675 1.155449,0.715202 2.761562,0.608244 4.049308,0.659933 8.1978948,0.287335 16.3637671,-0.189379 24.520292,-0.897497 4.266745,-0.375019 2.13224,-0.172296 6.403498,-0.608384 0,0 -9.4033493,-2.852202 -9.4033493,-2.852202 v 0 c -4.267954,0.406078 -2.1328168,0.213885 -6.40540899,0.576568 -3.69216781,0.294626 -7.37993811,0.542983 -11.08256971,0.658387 -0.730356,0.02276 -2.922016,0.04452 -2.191404,0.05631 2.535177,0.04091 5.0709724,0.02072 7.6064559,0.03108 -1.4877785,0.0123 -2.9906356,-0.06975 -4.4681192,0.120523 -0.6606697,-0.202101 -0.5662637,-1.189095 -0.6305947,-1.738281 -0.02848,-0.602772 -0.01662,-1.205742 -0.01064,-1.809039 z" /><path
       style="fill:#000000;fill-opacity:1;fill-rule:nonzero;stroke:none;stroke-width:0.0132292"
       id="path105"
       d="m -17.450254,42.478794 c 0.28089,1.16078 0.678532,2.286595 1.120421,3.394482 0.448619,1.070523 0.93708,2.123681 1.426622,3.175921 0.311978,0.765934 0.713314,1.458113 1.286637,2.054635 1.042099,0.780764 2.411852,0.794171 3.6579177,0.89172 1.1113056,0.087 2.9672624,0.186835 4.0441959,0.248523 8.5097222,0.476385 17.0555314,0.679863 25.5572814,-0.0098 0.847182,-0.07867 1.694362,-0.157339 2.541545,-0.236008 0,0 -9.431888,-2.883855 -9.431888,-2.883855 v 0 c -0.841195,0.06885 -1.682387,0.137694 -2.523582,0.206542 -0.8936887,0.05307 -1.7866019,0.121446 -2.6810682,0.159213 -1.9340009,0.08165 -10.8602858,0.176493 3.7702332,0.09745 0.915247,-0.0049 -1.8305331,-0.01918 -2.7453882,-0.04642 -0.8695743,-0.02588 -1.7383971,-0.07285 -2.6074369,-0.112863 -0.8152342,-0.03754 -1.6302408,-0.07988 -2.4453612,-0.119811 -2.4549629,-0.142756 -4.9222898,-0.371224 -7.381142,-0.308343 -0.660863,0.0522 -0.8447114,-0.231807 -1.1030955,-0.8187 -0.4884314,-1.023017 -0.9762887,-2.046494 -1.4377511,-3.082047 -0.4355439,-1.002469 -0.8385572,-2.027587 -1.0647813,-3.100141 z" /></g></svg>
