<?xml version="1.0" encoding="UTF-8" standalone="no"?>
<!-- Created with Inkscape (http://www.inkscape.org/) -->

<svg
   width="108.17273mm"
   height="104.33162mm"
   viewBox="-60 -60 108.17273 104.33162"
   sodipodi:docname="CD-Label_120x120.svg"
   version="1.1"
   id="svg3"
   xml:space="preserve"
   inkscape:export-filename="diɵ.svg"
   inkscape:export-xdpi="96"
   inkscape:export-ydpi="96"
   xmlns:inkscape="http://www.inkscape.org/namespaces/inkscape"
   xmlns:sodipodi="http://sodipodi.sourceforge.net/DTD/sodipodi-0.dtd"
   xmlns="http://www.w3.org/2000/svg"
   xmlns:svg="http://www.w3.org/2000/svg"
   xmlns:rdf="http://www.w3.org/1999/02/22-rdf-syntax-ns#"
   xmlns:cc="http://creativecommons.org/ns#"
   xmlns:dc="http://purl.org/dc/elements/1.1/"><defs
     id="defs3" /><sodipodi:namedview
     pagecolor="#ffffff"
     bordercolor="#666666"
     borderopacity="1.0"
     inkscape:pageopacity="0.0"
     inkscape:pageshadow="2"
     inkscape:zoom="0.5"
     inkscape:cx="280"
     inkscape:cy="481"
     inkscape:document-units="mm"
     inkscape:current-layer="Template"
     showgrid="false"
     units="mm"
     showguides="true"
     inkscape:guide-bbox="true"
     inkscape:snap-global="true"
     inkscape:snap-bbox="true"
     inkscape:snap-bbox-midpoints="true"
     inkscape:window-width="1920"
     inkscape:window-height="991"
     inkscape:window-x="3831"
     inkscape:window-y="-9"
     inkscape:window-maximized="1"
     inkscape:bbox-paths="true"
     inkscape:bbox-nodes="true"
     inkscape:snap-bbox-edge-midpoints="true"
     inkscape:snap-grids="true"
     id="namedview1"
     inkscape:showpageshadow="2"
     inkscape:pagecheckerboard="0"
     inkscape:deskcolor="#d1d1d1"><sodipodi:guide
       orientation="1,0"
       position="220.4754,214.68393"
       id="guide2827"
       inkscape:locked="false" /><sodipodi:guide
       orientation="0,1"
       position="220.4754,214.68393"
       id="guide2829"
       inkscape:locked="false" /><inkscape:grid
       type="xygrid"
       id="grid3072"
       empspacing="10"
       visible="false"
       enabled="true"
       snapvisiblegridlinesonly="true"
       units="mm"
       dotted="false"
       spacingx="0.1mm"
       spacingy="0.1mm"
       originx="-6.2962573"
       originy="-3.58066" /><sodipodi:guide
       position="63.712744,77.586368"
       orientation="0,-1"
       id="guide4"
       inkscape:locked="false" /><sodipodi:guide
       position="63.010948,17.103971"
       orientation="0,-1"
       id="guide5"
       inkscape:locked="false" /><sodipodi:guide
       position="84.165082,46.367706"
       orientation="1,0"
       id="guide6"
       inkscape:locked="false" /><sodipodi:guide
       position="24.011145,38.066791"
       orientation="1,0"
       id="guide7"
       inkscape:locked="false" /><sodipodi:guide
       position="63.913257,47.540662"
       orientation="0,-1"
       id="guide8"
       inkscape:locked="false" /><sodipodi:guide
       position="54.288627,31.329816"
       orientation="1,0"
       id="guide9"
       inkscape:locked="false" /><sodipodi:guide
       position="88.87714,92.353579"
       orientation="0,-1"
       id="guide10"
       inkscape:locked="false" /><sodipodi:guide
       position="78.550714,1.7653221"
       orientation="0,-1"
       id="guide11"
       inkscape:locked="false" /><sodipodi:guide
       position="8.6718907,48.984299"
       orientation="1,0"
       id="guide12"
       inkscape:locked="false" /><sodipodi:guide
       position="99.404082,42.457855"
       orientation="1,0"
       id="guide13"
       inkscape:locked="false" /><inkscape:page
       x="0"
       y="0"
       width="108.17273"
       height="104.33162"
       id="page2"
       margin="0"
       bleed="0" /></sodipodi:namedview><metadata
     id="metadata2822"><rdf:RDF><cc:Work
         rdf:about=""><dc:format>image/svg+xml</dc:format><dc:type
           rdf:resource="http://purl.org/dc/dcmitype/StillImage" /><dc:title /></cc:Work></rdf:RDF></metadata><g
     inkscape:label="Layer 1"
     inkscape:groupmode="layer"
     id="Template"
     style="fill:none;stroke:#000000;stroke-width:0.05"
     transform="translate(-6.2962572,-3.58066)"><path
       id="path64"
       style="fill:#000000;fill-opacity:1;fill-rule:nonzero;stroke:none;stroke-width:0.0132292"
       d="m 4.5392131,-56.41934 -9.9864706,0.394808 c 0.1983185,1.578715 0.249953,3.176442 0.35295,4.76405 0.3296399,4.067421 0.5542164,8.140861 0.7363892,12.216826 -2.8603927,-0.188455 -5.7190147,-0.403907 -8.5695027,-0.714169 -4.680252,-0.526297 -9.366475,-1.078133 -13.950053,-2.199865 -3.32141,-0.756972 -6.667829,-1.447011 -9.923942,-2.456698 -1.790671,-0.604402 -3.551024,-1.29458 -5.259111,-2.105815 -0.697853,-0.335935 -1.376898,-0.729154 -1.89239,-1.318782 l -9.750826,2.195215 c 0.228502,0.004 0.427581,0.130088 0.617016,0.270784 0.0082,0.794251 0.03221,1.587921 0.05839,2.381767 0.08097,2.225785 0.167912,4.451751 0.259933,6.677112 0.136721,3.002517 0.22184,6.00692 0.289905,9.011853 0.05464,3.520536 0.126673,7.040492 0.202571,10.560595 0.08343,3.519846 0.215841,7.0378257 0.401526,10.5533615 l 9.889836,-0.1219564 c -0.212953,-3.488872 -0.351125,-6.9812101 -0.426331,-10.4763631 -0.07285,-3.520297 -0.13616,-7.040937 -0.188619,-10.561629 -0.0609,-3.017958 -0.13616,-6.035377 -0.265617,-9.051127 -0.05772,-1.516189 -0.103991,-3.032969 -0.151928,-4.549593 2.201817,0.608603 4.437891,1.099553 6.663676,1.607137 4.611536,1.137617 9.306916,1.829704 14.016198,2.401403 4.462983,0.529511 8.945435,0.855618 13.4301884,1.12913 0.5071283,0.02725 1.0150349,0.03613 1.5223877,0.05943 -1.1255442,1.3965 -2.0218485,2.96623 -2.9021481,4.533574 -1.779336,3.120128 -2.907012,6.478343 -3.915524,9.906372 -0.551116,1.921362 -0.871558,3.877848 -1.02681,5.867859 -0.05583,0.715658 -0.123039,1.432431 -0.11989,2.150256 0.008,1.833838 0.232721,3.4133182 0.434082,5.2337891 0.586907,4.0730301 1.56911,7.88053756 3.279387,11.636499 1.260472,2.7681422 1.8928761,3.7010258 3.4276975,6.3365641 0.9966935,1.5965518 2.0656096,3.1446988 3.2029053,4.6400268 -3.1548726,3.667337 -6.6567018,7.036796 -10.3771448,10.127547 -1.200952,0.997688 -2.452551,1.932676 -3.678845,2.899048 -5.52442,4.136221 -11.385589,7.788283 -17.171045,11.540381 -4.906632,3.182149 -4.642829,3.028124 -9.532751,6.283337 l 9.377205,1.871204 c 5.801468,-3.838393 3.735152,-2.492892 9.551355,-6.253365 5.839441,-3.775495 11.734103,-7.487932 17.2599286,-11.720215 1.23825,-0.998075 2.5011677,-1.965914 3.7145019,-2.994132 2.1321227,-1.80683 4.1885071,-3.707026 6.15673017,-5.69371 0.37942947,0.37792 0.76157233,0.753386 1.15186763,1.120862 2.4699012,2.325497 3.9019565,3.375623 6.5520549,5.484937 7.4328448,5.572813 15.6160848,10.030432 23.7866618,14.407389 4.162305,2.239766 8.435892,4.259535 12.704134,6.285921 l 9.404077,-2.163692 C 49.625099,43.754959 45.349467,41.771019 41.186589,39.560848 33.074663,35.263563 24.972932,30.859167 17.517749,25.47592 14.980358,23.515299 13.394814,22.372816 11.024089,20.213192 9.1152267,18.474304 7.3358851,16.605548 5.6869466,14.627486 6.3601932,13.800953 7.0230997,12.965558 7.6609863,12.110844 8.8751513,10.423241 9.7294781,9.2935211 10.829785,7.5436808 12.323434,5.1683046 13.594539,2.648495 14.708101,0.0759196 c 0.487741,-1.2692962 0.847619,-2.1354855 1.241268,-3.4406169 0.669285,-2.218981 1.073298,-4.5128014 1.289844,-6.8176717 0.07134,-1.42871 0.136779,-1.999991 0.06046,-3.431315 -0.119025,-2.232303 -0.547174,-4.447468 -1.187524,-6.585645 -1.044099,-2.936047 -2.218854,-5.822985 -3.815271,-8.510074 -1.293257,-2.246199 -2.6566979,-4.449403 -4.0271443,-6.649207 -0.2597588,-0.422806 -0.143719,-0.227422 -0.2113566,-0.337964 1.8940126,-0.08371 3.7868489,-0.201866 5.6766559,-0.358118 4.985226,-0.42817 9.949431,-1.056607 14.907101,-1.725992 3.418263,-0.444311 6.82719,-1.002103 10.195243,-1.740463 1.787782,-0.391926 3.137067,-0.752844 4.905127,-1.204577 0.01356,-0.0034 0.02675,-0.0079 0.04031,-0.01137 0.01958,2.317316 -0.0086,4.634337 -0.03876,6.951514 -0.03636,3.754922 -0.277538,7.502919 -0.466638,11.252026 -0.19649,3.846105 -0.332141,7.695021 -0.439766,11.544515 -0.04848,1.7225564 -0.08804,3.4453811 -0.127641,5.1681599 l 9.874849,0.041341 c 0.03242,-1.7183338 0.06542,-3.4366555 0.110071,-5.1547239 0.105699,-3.833948 0.233254,-7.667496 0.429948,-11.498006 0.197329,-3.773054 0.433374,-7.545372 0.499194,-11.323857 0.0447,-2.664191 0.08417,-5.328177 0.0894,-7.992794 0.0048,-0.838355 0.0109,-1.676781 0.0217,-2.515092 0.243995,-0.105497 0.490457,-0.205089 0.733805,-0.312125 l -0.729671,-0.173633 c 3.77e-4,-0.02187 1.24e-4,-0.04376 5.16e-4,-0.06563 h -0.277502 l -8.567952,-2.036568 c -3.453315,1.432521 -6.976063,2.687108 -10.619507,3.552238 -4.957133,1.19557 -9.966845,2.147146 -15.035258,2.73575 -4.588329,0.59692 -9.184077,1.149356 -13.7970909,1.518254 -0.1954039,-4.109608 -0.4109088,-8.21805 -0.6614583,-12.32483 -0.078354,-1.682951 -0.1192457,-3.368393 -0.2418457,-5.048787 z m -4.29689539,25.098726 c 0.75330811,1.209686 1.49764809,2.424851 2.22156979,3.652491 1.5623223,2.575028 2.7588816,5.329792 3.7899496,8.151957 0.6407838,1.968717 1.053759,4.020308 1.1709879,6.090067 0.074464,1.314733 0.010557,1.825516 -0.059428,3.141927 C 7.1455709,-8.1184701 6.7512489,-5.9630238 6.0920898,-3.8850789 5.7530474,-2.8162866 5.2857321,-1.6985095 4.8714925,-0.65891927 3.7565595,1.801285 2.5165964,4.2216656 1.0557048,6.4972331 0.87614895,6.7769194 0.69273142,7.0245433 0.51258545,7.2914998 -0.33035539,5.8982295 -1.0038048,4.7571035 -1.9193075,2.8080526 c -1.6686662,-3.552489 -2.6348992,-7.2099695 -3.1972208,-11.084078 -0.1995884,-1.7998516 -0.3978437,-3.1008826 -0.3937744,-4.9046106 0.00577,-2.559907 0.4713303,-5.102789 1.1503173,-7.561295 0.4109455,-1.367456 0.6220932,-2.141564 1.1125936,-3.486092 0.7530307,-2.064155 1.7200608,-4.04217 2.79414473,-5.956743 0.22670147,-0.38149 0.4599156,-0.759405 0.69556478,-1.135848 z" /></g></svg>
