<?xml version="1.0" encoding="UTF-8" standalone="no"?>
<!-- Created with Inkscape (http://www.inkscape.org/) -->

<svg
   width="112.23005mm"
   height="106.87585mm"
   viewBox="-60 -60 112.23005 106.87585"
   sodipodi:docname="CD-Label_120x120.svg"
   version="1.1"
   id="svg3"
   xml:space="preserve"
   inkscape:export-filename="diɵ.svg"
   inkscape:export-xdpi="96"
   inkscape:export-ydpi="96"
   xmlns:inkscape="http://www.inkscape.org/namespaces/inkscape"
   xmlns:sodipodi="http://sodipodi.sourceforge.net/DTD/sodipodi-0.dtd"
   xmlns="http://www.w3.org/2000/svg"
   xmlns:svg="http://www.w3.org/2000/svg"
   xmlns:rdf="http://www.w3.org/1999/02/22-rdf-syntax-ns#"
   xmlns:cc="http://creativecommons.org/ns#"
   xmlns:dc="http://purl.org/dc/elements/1.1/"><defs
     id="defs3" /><sodipodi:namedview
     pagecolor="#ffffff"
     bordercolor="#666666"
     borderopacity="1.0"
     inkscape:pageopacity="0.0"
     inkscape:pageshadow="2"
     inkscape:zoom="0.5"
     inkscape:cx="280"
     inkscape:cy="481"
     inkscape:document-units="mm"
     inkscape:current-layer="Template"
     showgrid="false"
     units="mm"
     showguides="true"
     inkscape:guide-bbox="true"
     inkscape:snap-global="true"
     inkscape:snap-bbox="true"
     inkscape:snap-bbox-midpoints="true"
     inkscape:window-width="1920"
     inkscape:window-height="991"
     inkscape:window-x="3831"
     inkscape:window-y="-9"
     inkscape:window-maximized="1"
     inkscape:bbox-paths="true"
     inkscape:bbox-nodes="true"
     inkscape:snap-bbox-edge-midpoints="true"
     inkscape:snap-grids="true"
     id="namedview1"
     inkscape:showpageshadow="2"
     inkscape:pagecheckerboard="0"
     inkscape:deskcolor="#d1d1d1"><sodipodi:guide
       orientation="1,0"
       position="221.92086,219.92194"
       id="guide2827"
       inkscape:locked="false" /><sodipodi:guide
       orientation="0,1"
       position="221.92086,219.92194"
       id="guide2829"
       inkscape:locked="false" /><inkscape:grid
       type="xygrid"
       id="grid3072"
       empspacing="10"
       visible="false"
       enabled="true"
       snapvisiblegridlinesonly="true"
       units="mm"
       dotted="false"
       spacingx="0.1mm"
       spacingy="0.1mm"
       originx="-4.8507974"
       originy="-6.2744426" /><sodipodi:guide
       position="65.158203,82.824377"
       orientation="0,-1"
       id="guide4"
       inkscape:locked="false" /><sodipodi:guide
       position="64.456407,22.341981"
       orientation="0,-1"
       id="guide5"
       inkscape:locked="false" /><sodipodi:guide
       position="85.610541,51.605716"
       orientation="1,0"
       id="guide6"
       inkscape:locked="false" /><sodipodi:guide
       position="25.456604,43.304801"
       orientation="1,0"
       id="guide7"
       inkscape:locked="false" /><sodipodi:guide
       position="65.358716,52.778672"
       orientation="0,-1"
       id="guide8"
       inkscape:locked="false" /><sodipodi:guide
       position="55.734086,36.567826"
       orientation="1,0"
       id="guide9"
       inkscape:locked="false" /><sodipodi:guide
       position="90.322599,97.591585"
       orientation="0,-1"
       id="guide10"
       inkscape:locked="false" /><sodipodi:guide
       position="79.996173,7.0033326"
       orientation="0,-1"
       id="guide11"
       inkscape:locked="false" /><sodipodi:guide
       position="10.117351,54.222309"
       orientation="1,0"
       id="guide12"
       inkscape:locked="false" /><sodipodi:guide
       position="100.84954,47.695865"
       orientation="1,0"
       id="guide13"
       inkscape:locked="false" /><inkscape:page
       x="-3.4390522e-15"
       y="0"
       width="112.23004"
       height="106.87585"
       id="page2"
       margin="0"
       bleed="0" /></sodipodi:namedview><metadata
     id="metadata2822"><rdf:RDF><cc:Work
         rdf:about=""><dc:format>image/svg+xml</dc:format><dc:type
           rdf:resource="http://purl.org/dc/dcmitype/StillImage" /><dc:title /></cc:Work></rdf:RDF></metadata><g
     inkscape:label="Layer 1"
     inkscape:groupmode="layer"
     id="Template"
     style="fill:none;stroke:#000000;stroke-width:0.05"
     transform="translate(-4.8507973,-6.2744426)"><path
       style="fill:#000000;fill-opacity:1;fill-rule:nonzero;stroke:none;stroke-width:0.0132292"
       id="path89"
       d="m -55.149203,-52.553214 c 0.974372,1.336418 1.849841,2.738449 2.72477,4.141126 2.339645,3.683536 4.649939,7.385582 6.973961,11.078993 3.414443,5.221366 6.52686,10.626351 9.526334,16.093706 3.315262,6.235287 6.72444,12.419801 9.984627,18.6841817 3.93346,7.5627071 7.188333,15.4451023 10.435342,23.3183873 3.676623,9.082006 7.170438,18.235705 10.8961682,27.297952 0.5286322,1.265089 1.0572644,2.530176 1.5858939,3.795265 0,0 9.7472314,-0.779193 9.7472314,-0.779193 v 0 C 6.1893988,49.816764 5.6536705,48.556326 5.1179421,47.295885 1.3463676,38.252906 -2.1438199,29.098815 -5.7911566,20.005615 -9.0253995,12.074804 -12.265789,4.1333323 -16.188363,-3.4892129 c -3.235352,-6.2898548 -6.654975,-12.4808081 -9.968601,-18.7294891 -2.991072,-5.507114 -6.078153,-10.964301 -9.498522,-16.219222 -2.315918,-3.68112 -4.588035,-7.389308 -6.90265,-11.071204 -0.868159,-1.417123 -1.690018,-2.871516 -2.668209,-4.216429 z"
       inkscape:export-filename="wɛi.svg"
       inkscape:export-xdpi="96"
       inkscape:export-ydpi="96" /><path
       style="fill:#000000;fill-opacity:1;fill-rule:nonzero;stroke:none;stroke-width:0.0132292"
       id="path90"
       d="m 47.174719,-52.616049 c -0.798705,0.857917 -1.450409,1.85006 -2.114494,2.813814 -1.454891,2.280048 -2.773122,4.644006 -4.152313,6.970166 -2.306338,3.807948 -4.51952,7.666282 -6.647132,11.576291 -2.581103,4.793649 -5.078783,9.630931 -7.521511,14.496325 -2.874693,5.885976 -5.708502,11.7919205 -8.560216,17.68909659 C 15.170217,7.1633935 12.289846,13.456606 9.5268609,19.802833 6.8309128,26.055606 4.3577942,32.399968 1.9005956,38.749217 c -1.49875872,3.75807 -2.88938489,7.556132 -4.2391753,11.369653 0,0 9.8248628,0.668999 9.8248628,0.668999 v 0 c 1.3409295,-3.794572 2.7260149,-7.572745 4.2097509,-11.314282 2.445419,-6.325523 4.911373,-12.644876 7.618262,-18.864368 2.757823,-6.320625 5.628362,-12.5906366 8.637558,-18.7959465 2.854351,-5.8893868 5.687586,-11.7892114 8.588833,-17.6557175 2.44589,-4.844055 4.950089,-9.658336 7.538042,-14.428218 2.132761,-3.8882 4.377418,-7.710334 6.678888,-11.501111 1.362419,-2.287618 2.663851,-4.618371 4.182118,-6.807988 0.684453,-0.942234 1.413684,-1.846783 2.141101,-2.754281 z" /><path
       style="fill:#000000;fill-opacity:1;fill-rule:nonzero;stroke:none;stroke-width:0.0132292"
       id="path91"
       d="m -3.2014335,-51.657849 c 0.6263269,2.04189 1.4782244,4.004688 2.33326776,5.96106 2.09421674,4.786704 4.46215814,9.446386 6.83272424,14.100225 3.1825909,6.198843 6.1863815,12.486256 9.2013435,18.76752 3.304434,6.9639575 6.677366,13.8949242 10.052576,20.8247505 3.264799,6.8566245 6.591297,13.6820825 10.02511,20.4556115 2.974816,5.790706 5.952074,11.579874 8.8607,17.404181 0.444045,0.890754 0.888092,1.781511 1.332137,2.672265 0,0 9.796709,-0.910823 9.796709,-0.910823 v 0 C 54.786977,46.726764 54.340821,45.836589 53.894662,44.946412 50.985021,39.113812 48.005715,33.317056 45.005157,27.530754 41.562005,20.770565 38.213229,13.964841 34.965852,7.1081776 31.582578,0.18907485 28.231309,-6.745596 24.930434,-13.704445 c -3.013728,-6.29335 -6.015138,-12.593296 -9.173424,-18.815957 -2.343187,-4.618485 -4.694325,-9.237312 -6.7612367,-13.988245 -0.8366998,-1.929619 -1.7540869,-3.85054 -2.2322049,-5.909019 z" /><path
       style="fill:#000000;fill-opacity:1;fill-rule:nonzero;stroke:none;stroke-width:0.0132292"
       id="path92"
       d="m -5.5199402,-52.234988 c -0.3819366,1.053104 -0.8823484,2.070089 -1.3406967,3.093666 -1.7215617,3.765799 -3.6676411,7.423376 -5.5520751,11.109104 -3.180865,6.0711 -5.896017,12.360926 -8.591751,18.656628 -3.287588,7.719902 -6.801553,15.3395098 -10.272008,22.9779512 -3.751605,8.3128038 -7.490499,16.6313328 -11.240249,24.9449718 -2.642389,5.922687 -5.485546,11.749849 -8.394522,17.544933 -1.04349,2.041716 -2.080963,4.086395 -3.129766,6.125388 0,0 9.840517,0.932637 9.840517,0.932637 v 0 c 1.039252,-2.04665 2.07559,-4.094763 3.104141,-6.146818 2.888314,-5.822109 5.688885,-11.68613 8.315095,-17.632024 3.723654,-8.320846 7.461351,-16.635409 11.228525,-24.9366531 3.485515,-7.6495194 7.012149,-15.2813009 10.307709,-23.0155669 2.7033672,-6.253199 5.4466915,-12.491262 8.6341269,-18.51769 1.92043839,-3.714729 3.9104649,-7.396877 5.6557121,-11.198761 0.5277987,-1.153651 1.1398355,-2.298142 1.4217068,-3.543304 z" /><circle
       id="path94"
       style="fill:#000000;stroke:#000000;stroke-width:0.0132292"
       cx="-18.466316"
       cy="-43.162022"
       r="0.12460105" /><path
       style="fill:#000000;fill-opacity:1;fill-rule:nonzero;stroke:none;stroke-width:0.0132292"
       id="path95"
       d="m -24.603754,-45.028345 c -0.124714,1.914072 0.132773,3.828375 0.401011,5.71921 0.45067,3.257025 1.494155,6.353372 2.910866,9.305918 1.06956,2.05323 2.447825,3.9189 4.143727,5.498243 1.096341,1.02099 1.570844,1.315863 2.770815,2.196467 1.201703,0.748118 1.709938,1.129949 3.019647,1.683796 5.0143195,2.120444 11.25378708,1.192572 16.2916548,1.183076 2.2652592,-0.312325 4.4872697,-0.951841 6.5797962,-1.875899 1.042259,-0.460261 2.015752,-1.007353 3.017953,-1.545441 2.83476,-1.47582 5.070195,-3.730948 7.161721,-6.096924 1.959353,-2.303653 3.550743,-4.874729 4.949542,-7.54687 1.239864,-2.438271 2.091719,-5.04182 2.917968,-7.641206 0,0 -9.895687,-0.613934 -9.895687,-0.613934 v 0 c -0.801944,2.487201 -1.649206,4.97054 -2.89511,7.278051 -1.388393,2.512636 -2.945011,4.936209 -4.888593,7.062425 -2.0473297,2.173348 -4.2881997,4.120838 -7.0220704,5.394431 -2.9567796,1.416798 -6.0485496,2.523267 -9.3685994,2.585595 2.583471,0.03032 5.16691554,0.06282 7.750413,0.09097 0.560025,0.0061 -1.1210237,0.01008 -1.6799904,-0.02484 -0.557096,-0.0348 -1.1134751,-0.09437 -1.6643958,-0.18411 -1.6212291,-0.264084 -3.1451391,-0.795618 -4.5506269,-1.653138 -2.814529,-1.816188 -5.1385284,-3.704569 -6.7660841,-6.706288 -1.433539,-2.762583 -2.42585,-5.573393 -2.862841,-8.669625 -0.240544,-1.700273 -0.497449,-3.436718 -0.333111,-5.156383 z" /><path
       style="fill:#000000;fill-opacity:1;fill-rule:nonzero;stroke:none;stroke-width:0.0132292"
       id="path96"
       d="m -22.416306,45.578327 c 0.689219,-1.381954 1.43909,-2.732395 2.181162,-4.086445 1.593199,-2.856418 3.215616,-5.696016 4.807241,-8.553339 1.239565,-2.179097 2.323817,-4.458329 3.710963,-6.551951 0.971193,-1.465826 1.245008,-1.709933 2.3785517,-3.049762 2.0415911,-2.168827 4.4122578,-4.046307 7.1854932,-5.185881 0.4996154,-0.205303 1.0187649,-0.359415 1.52814866,-0.539123 1.48502421,-0.26603 1.59703292,-0.338627 3.11185984,-0.398735 0.5209751,-0.02066 2.0855198,-0.0068 1.5641584,-0.0016 -16.4669548,0.162668 -8.9298567,-0.09097 -6.3512911,0.14334 0.4971997,0.04518 0.9900867,0.12931 1.48513005,0.193964 2.94446855,0.50402 5.60190645,1.81275 8.04061865,3.489624 2.4267318,1.760392 4.3214846,4.068863 6.0765476,6.469239 1.929485,2.736684 3.590491,5.646756 5.166614,8.596958 1.413042,2.657465 2.510383,5.460548 3.555222,8.277643 0,0 9.879195,-0.699243 9.879195,-0.699243 v 0 C 30.840622,40.785222 29.742086,37.893575 28.327459,35.144943 26.746127,32.10641 25.059178,29.120892 23.140067,26.280447 21.337009,23.701299 19.421293,21.196176 16.971738,19.186161 16.166045,18.561786 15.342707,17.892009 14.476323,17.350886 12.693394,16.237311 10.713274,15.452636 8.7187599,14.816493 3.6507614,13.690794 1.1351746,14.162501 -5.4100349,14.249229 c -1.6595619,0.02199 -3.3022725,0.478126 -4.8480741,1.037944 -0.522364,0.240597 -1.056153,0.457788 -1.567087,0.721786 -2.828944,1.461717 -5.247159,3.578535 -7.31347,5.982385 -0.42332,0.541573 -0.865807,1.068698 -1.269958,1.624722 -1.893257,2.604685 -3.280179,5.525651 -4.867753,8.315182 -1.603651,2.859762 -3.244742,5.698165 -4.840314,8.562462 -0.740212,1.33768 -1.456616,2.691082 -2.234727,4.006633 z" /><path
       style="fill:#000000;fill-opacity:1;fill-rule:nonzero;stroke:none;stroke-width:0.0132292"
       id="path97"
       d="m -4.023232,-6.2111747 c -0.095287,1.2460313 -0.1279207,2.4930496 -0.2525712,3.7370305 -0.1740562,1.47676389 -0.3730467,2.95040308 -0.56583,4.424791 0,0 9.9389987,0.2556722 9.9389987,0.2556722 v 0 C 5.2883073,0.71288634 5.4852447,-0.77977904 5.6700588,-2.2739869 5.7899759,-3.4538196 5.825684,-4.6401054 5.963233,-5.8167154 Z" /></g></svg>
